<?xml version="1.0" encoding="utf-8"?>
<COLLADA xmlns="http://www.collada.org/2005/11/COLLADASchema" version="1.4.1" xmlns:xsi="http://www.w3.org/2001/XMLSchema-instance">
  <asset>
    <contributor>
      <author>Blender User</author>
      <authoring_tool>Blender 4.4.0 commit date:2025-03-17, commit time:17:00, hash:05377985c527</authoring_tool>
    </contributor>
    <created>2025-04-03T14:36:37</created>
    <modified>2025-04-03T14:36:37</modified>
    <unit name="meter" meter="1"/>
    <up_axis>Z_UP</up_axis>
  </asset>
  <library_cameras>
    <camera id="Camera-camera" name="Camera">
      <optics>
        <technique_common>
          <perspective>
            <xfov sid="xfov">39.59775</xfov>
            <aspect_ratio>1.777778</aspect_ratio>
            <znear sid="znear">0.1</znear>
            <zfar sid="zfar">100</zfar>
          </perspective>
        </technique_common>
      </optics>
      <extra>
        <technique profile="blender">
          <shiftx sid="shiftx" type="float">0</shiftx>
          <shifty sid="shifty" type="float">0</shifty>
          <dof_distance sid="dof_distance" type="float">10</dof_distance>
        </technique>
      </extra>
    </camera>
  </library_cameras>
  <library_lights>
    <light id="Light-light" name="Light">
      <technique_common>
        <point>
          <color sid="color">1000 1000 1000</color>
          <constant_attenuation>1</constant_attenuation>
          <linear_attenuation>0</linear_attenuation>
          <quadratic_attenuation>0</quadratic_attenuation>
        </point>
      </technique_common>
      <extra>
        <technique profile="blender">
          <type sid="type" type="int">0</type>
          <flag sid="flag" type="int">0</flag>
          <mode sid="mode" type="int">2097153</mode>
          <red sid="red" type="float">1</red>
          <green sid="green" type="float">1</green>
          <blue sid="blue" type="float">1</blue>
          <energy sid="blender_energy" type="float">1000</energy>
          <spotsize sid="spotsize" type="float">75</spotsize>
          <spotblend sid="spotblend" type="float">0.15</spotblend>
          <clipsta sid="clipsta" type="float">0.04999995</clipsta>
          <clipend sid="clipend" type="float">40</clipend>
          <radius sid="radius" type="float">0.1</radius>
          <area_shape sid="area_shape" type="int">1</area_shape>
          <area_size sid="area_size" type="float">0.1</area_size>
          <area_sizey sid="area_sizey" type="float">0.1</area_sizey>
          <area_sizez sid="area_sizez" type="float">1</area_sizez>
        </technique>
      </extra>
    </light>
  </library_lights>
  <library_images/>
  <library_geometries>
    <geometry id="wedge_with_plane-mesh" name="wedge_with_plane">
      <mesh>
        <source id="wedge_with_plane-mesh-positions">
          <float_array id="wedge_with_plane-mesh-positions-array" count="2310">-25 -0.5 25 -25 0.5 -25 -25 -0.5 -25 -25 0.5 25 25 -0.5 25 25 -0.5 -25 23.94942 0.5 25 25 0 25 105 30 25 105 0 25 23.94942 0.5 -25 25 0 -25 105 30 -25 105 0 -25 -25 -0.5 0 -25 0 0 -25 0 -25 -25 0 25 -25 0.5 0 25 -0.5 0 0 -0.5 0 0 -0.5 -25 0 -0.5 25 -0.5252915 0 25 -0.5252915 0.5 25 24.47471 0 25 25 -0.25 25 24.47471 0.25 25 105 15 25 65 15 25 65 0 25 64.47471 15.25 25 -0.5252915 0.5 0 -0.5252915 0.5 -25 23.94942 0.5 0 -0.5252915 0 -25 24.47471 0 -25 24.47471 0.25 -25 25 -0.25 -25 65 15 -25 105 15 -25 65 0 -25 64.47471 15.25 -25 25 -0.25 0 25 0 0 64.47471 15.25 0 105 30 0 65 0 0 105 0 0 105 15 0 -25 -0.5 -12.5 -25 0.25 -12.5 -25 -0.25 -25 -25 0.25 25 -25 0.5 12.5 25 -0.5 -12.5 12.5 -0.5 12.5 12.5 -0.5 -25 12.5 -0.5 25 11.71206 0.25 25 11.71206 0.5 25 24.21206 0.25 25 25 -0.125 25 24.73736 0.125 25 105 7.5 25 85 22.5 25 85 0 25 84.73735 22.625 25 11.71206 0.5 -12.5 11.71206 0.5 -25 23.94942 0.5 -12.5 11.71206 0.25 -25 24.21206 0.25 -25 24.73736 0.125 -25 25 -0.125 -25 85 22.5 -25 105 7.5 -25 85 0 -25 84.73735 22.625 -25 25 -0.125 -12.5 25 0 -12.5 44.21206 7.875 -12.5 105 30 -12.5 85 0 -12.5 105 0 -12.5 105 22.5 -12.5 -25 -0.5 12.5 -25 -0.25 12.5 -25 0.25 -25 -25 -0.25 25 -25 0.5 -12.5 25 -0.5 12.5 -12.5 -0.5 -12.5 -12.5 -0.5 -25 -12.5 -0.5 25 -12.76265 -0.25 25 -12.76265 0.5 25 24.73736 -0.25 25 25 -0.375 25 24.21206 0.375 25 105 22.5 25 45 7.5 25 45 0 25 44.21206 7.875 25 -12.76265 0.5 12.5 -12.76265 0.5 -25 23.94942 0.5 12.5 -12.76265 -0.25 -25 24.73736 -0.25 -25 24.21206 0.375 -25 25 -0.375 -25 45 7.5 -25 105 22.5 -25 45 0 -25 44.21206 7.875 -25 25 -0.375 12.5 25 0 12.5 84.73735 22.625 12.5 105 30 12.5 45 0 12.5 105 0 12.5 105 7.5 12.5 105 15 12.5 105 22.5 0 105 22.5 12.5 105 7.5 -12.5 105 15 -12.5 105 7.5 0 65 0 12.5 85 0 0 85 0 12.5 45 0 -12.5 65 0 -12.5 45 0 0 64.47471 15.25 12.5 44.21206 7.875 0 44.21206 7.875 12.5 84.73735 22.625 -12.5 64.47471 15.25 -12.5 84.73735 22.625 0 25 -0.125 12.5 25 -0.25 12.5 25 -0.125 0 25 -0.25 -12.5 25 -0.375 0 25 -0.375 -12.5 44.47471 7.75 -25 64.73735 15.125 -25 44.73735 7.625 -25 65 7.5 -25 85 15 -25 85 7.5 -25 24.47471 0.125 -25 24.73736 0 -25 24.73736 -0.125 -25 11.97471 0 -25 12.23735 -0.25 -25 -0.2626457 -0.25 -25 -12.76265 0.25 -25 -0.5252915 0.25 -25 -12.76265 0 -25 -0.5252915 0.5 12.5 11.71206 0.5 12.5 11.71206 0.5 0 -12.76265 0.5 -12.5 -12.76265 0.5 0 -0.5252915 0.5 -12.5 44.73735 7.625 25 64.73735 15.125 25 44.47471 7.75 25 85 7.5 25 85 15 25 65 7.5 25 24.73736 -0.125 25 24.73736 0 25 24.47471 0.125 25 -0.2626457 -0.25 25 12.23735 -0.25 25 11.97471 0 25 -12.76265 0 25 -0.5252915 0.25 25 -12.76265 0.25 25 -12.5 -0.5 0 0 -0.5 12.5 -12.5 -0.5 12.5 12.5 -0.5 -12.5 12.5 -0.5 0 0 -0.5 -12.5 -25 0.25 0 -25 0 12.5 -25 0.25 12.5 -25 -0.25 -12.5 -25 -0.25 0 -25 0 -12.5 -25 -0.5 -18.75 -25 0.375 -18.75 -25 -0.375 -25 -25 0.375 25 -25 0.5 18.75 25 -0.5 -18.75 18.75 -0.5 18.75 18.75 -0.5 -25 18.75 -0.5 25 17.83074 0.375 25 17.83074 0.5 25 24.08074 0.375 25 25 -0.0625 25 24.86868 0.0625 25 105 3.75 25 95 26.25 25 95 0 25 94.86868 26.3125 25 17.83074 0.5 -18.75 17.83074 0.5 -25 23.94942 0.5 -18.75 17.83074 0.375 -25 24.08074 0.375 -25 24.86868 0.0625 -25 25 -0.0625 -25 95 26.25 -25 105 3.75 -25 95 0 -25 94.86868 26.3125 -25 25 -0.0625 -18.75 25 0 -18.75 34.08074 4.1875 -18.75 105 30 -18.75 95 0 -18.75 105 0 -18.75 105 26.25 -18.75 -25 -0.5 6.25 -25 -0.125 6.25 -25 0.125 -25 -25 -0.125 25 -25 0.5 -6.25 25 -0.5 6.25 -6.25 -0.5 -6.25 -6.25 -0.5 -25 -6.25 -0.5 25 -6.643969 -0.125 25 -6.643969 0.5 25 24.60603 -0.125 25 25 -0.3125 25 24.34339 0.3125 25 105 18.75 25 55 11.25 25 55 0 25 54.34338 11.5625 25 -6.643969 0.5 6.25 -6.643969 0.5 -25 23.94942 0.5 6.25 -6.643969 -0.125 -25 24.60603 -0.125 -25 24.34339 0.3125 -25 25 -0.3125 -25 55 11.25 -25 105 18.75 -25 55 0 -25 54.34338 11.5625 -25 25 -0.3125 6.25 25 0 6.25 74.60604 18.9375 6.25 105 30 6.25 55 0 6.25 105 0 6.25 105 11.25 6.25 105 15 18.75 105 26.25 0 105 26.25 6.25 105 3.75 -6.25 105 15 -6.25 105 11.25 0 65 0 18.75 95 0 0 95 0 6.25 35 0 -6.25 65 0 -6.25 55 0 0 64.47471 15.25 18.75 34.08074 4.1875 0 34.08074 4.1875 6.25 94.86868 26.3125 -6.25 64.47471 15.25 -6.25 74.60604 18.9375 0 25 -0.0625 6.25 25 -0.25 6.25 25 -0.1875 0 25 -0.25 -18.75 25 -0.4375 0 25 -0.4375 -6.25 34.47471 4 -25 64.86868 15.0625 -25 54.86867 11.3125 -25 65 3.75 -25 95 15 -25 95 11.25 -25 24.47471 0.0625 -25 24.86868 -0.125 -25 24.86868 -0.1875 -25 5.724709 0 -25 6.118677 -0.375 -25 -0.1313228 -0.375 -25 -18.88132 0.125 -25 -0.5252915 0.125 -25 -6.643969 0 -25 -0.5252915 0.5 6.25 17.83074 0.5 6.25 17.83074 0.5 0 -6.643969 0.5 -18.75 -6.643969 0.5 0 -0.5252915 0.5 -6.25 34.60603 3.9375 25 64.60604 15.1875 25 54.47471 11.5 25 75 3.75 25 75 15 25 65 11.25 25 24.60603 -0.0625 25 24.60603 0.125 25 24.47471 0.1875 25 -0.3939686 -0.125 25 18.35603 -0.125 25 18.22471 0 25 -18.88132 0 25 -0.5252915 0.375 25 -6.643969 0.375 25 -18.75 -0.5 0 0 -0.5 18.75 -6.25 -0.5 18.75 6.25 -0.5 -18.75 6.25 -0.5 0 0 -0.5 -6.25 -25 0.375 0 -25 0 18.75 -25 0.125 18.75 -25 -0.125 -18.75 -25 -0.125 0 -25 0 -6.25 -25 -0.5 -6.25 -25 0.125 -6.25 -25 -0.125 -25 -25 0.125 25 -25 0.5 6.25 25 -0.5 -6.25 6.25 -0.5 6.25 6.25 -0.5 -25 6.25 -0.5 25 5.593385 0.125 25 5.593385 0.5 25 24.34339 0.125 25 25 -0.1875 25 24.60603 0.1875 25 105 11.25 25 75 18.75 25 75 0 25 74.60604 18.9375 25 5.593385 0.5 -6.25 5.593385 0.5 -25 23.94942 0.5 -6.25 5.593385 0.125 -25 24.34339 0.125 -25 24.60603 0.1875 -25 25 -0.1875 -25 75 18.75 -25 105 11.25 -25 75 0 -25 74.60604 18.9375 -25 25 -0.1875 -6.25 25 0 -6.25 54.34338 11.5625 -6.25 105 30 -6.25 75 0 -6.25 105 0 -6.25 105 18.75 -6.25 -25 -0.5 18.75 -25 -0.375 18.75 -25 0.375 -25 -25 -0.375 25 -25 0.5 -18.75 25 -0.5 18.75 -18.75 -0.5 -18.75 -18.75 -0.5 -25 -18.75 -0.5 25 -18.88132 -0.375 25 -18.88132 0.5 25 24.86868 -0.375 25 25 -0.4375 25 24.08074 0.4375 25 105 26.25 25 35 3.75 25 35 0 25 34.08074 4.1875 25 -18.88132 0.5 18.75 -18.88132 0.5 -25 23.94942 0.5 18.75 -18.88132 -0.375 -25 24.86868 -0.375 -25 24.08074 0.4375 -25 25 -0.4375 -25 35 3.75 -25 105 26.25 -25 35 0 -25 34.08074 4.1875 -25 25 -0.4375 18.75 25 0 18.75 94.86868 26.3125 18.75 105 30 18.75 35 0 18.75 105 0 18.75 105 3.75 18.75 105 15 6.25 105 18.75 0 105 18.75 18.75 105 11.25 -18.75 105 15 -18.75 105 3.75 0 65 0 6.25 75 0 0 75 0 18.75 55 0 -18.75 65 0 -18.75 35 0 0 64.47471 15.25 6.25 54.34338 11.5625 0 54.34338 11.5625 18.75 74.60604 18.9375 -18.75 64.47471 15.25 -18.75 94.86868 26.3125 0 25 -0.1875 18.75 25 -0.25 18.75 25 -0.0625 0 25 -0.25 -6.25 25 -0.3125 0 25 -0.3125 -18.75 54.47471 11.5 -25 64.60604 15.1875 -25 34.60603 3.9375 -25 65 11.25 -25 75 15 -25 75 3.75 -25 24.47471 0.1875 -25 24.60603 0.125 -25 24.60603 -0.0625 -25 18.22471 0 -25 18.35603 -0.125 -25 -0.3939686 -0.125 -25 -6.643969 0.375 -25 -0.5252915 0.375 -25 -18.88132 0 -25 -0.5252915 0.5 18.75 5.593385 0.5 18.75 5.593385 0.5 0 -18.88132 0.5 -6.25 -18.88132 0.5 0 -0.5252915 0.5 -18.75 54.86867 11.3125 25 64.86868 15.0625 25 34.47471 4 25 95 11.25 25 95 15 25 65 3.75 25 24.86868 -0.1875 25 24.86868 -0.125 25 24.47471 0.0625 25 -0.1313228 -0.375 25 6.118677 -0.375 25 5.724709 0 25 -6.643969 0 25 -0.5252915 0.125 25 -18.88132 0.125 25 -6.25 -0.5 0 0 -0.5 6.25 -18.75 -0.5 6.25 18.75 -0.5 -6.25 18.75 -0.5 0 0 -0.5 -18.75 -25 0.125 0 -25 0 6.25 -25 0.375 6.25 -25 -0.375 -6.25 -25 -0.375 0 -25 0 -18.75 -25 0.125 -18.75 -25 0.125 -12.5 -25 0.25 -18.75 -25 -0.125 -12.5 -25 -0.25 -6.25 -25 -0.125 -6.25 -25 -0.375 -18.75 -25 -0.375 -12.5 -25 -0.25 -18.75 -25 0.375 12.5 -25 0.25 18.75 -25 0.375 18.75 -25 0.25 6.25 -25 0.125 6.25 -25 0.125 12.5 -25 0.375 -12.5 -25 0.25 -6.25 -25 0.375 -6.25 -6.25 -0.5 -18.75 -6.25 -0.5 -12.5 -12.5 -0.5 -18.75 6.25 -0.5 -12.5 12.5 -0.5 -6.25 6.25 -0.5 -6.25 18.75 -0.5 -18.75 18.75 -0.5 -12.5 12.5 -0.5 -18.75 -18.75 -0.5 12.5 -12.5 -0.5 18.75 -18.75 -0.5 18.75 -12.5 -0.5 6.25 -6.25 -0.5 6.25 -6.25 -0.5 12.5 -18.75 -0.5 -12.5 -12.5 -0.5 -6.25 -18.75 -0.5 -6.25 -18.88132 0.25 25 -12.76265 0.375 25 -18.88132 0.375 25 -12.76265 0.125 25 -6.643969 0.125 25 -6.643969 0.25 25 -18.88132 -0.25 25 -12.76265 -0.125 25 -18.88132 -0.125 25 11.84339 0.125 25 18.09339 0.125 25 17.96206 0.25 25 5.856031 -0.125 25 5.987354 -0.25 25 12.10603 -0.125 25 -12.63132 -0.375 25 -6.381323 -0.375 25 -6.512646 -0.25 25 24.34339 0.1875 25 24.34339 0.25 25 24.21206 0.3125 25 24.60603 0 25 24.73736 -0.0625 25 24.60603 0.0625 25 24.86868 -0.3125 25 24.86868 -0.25 25 24.73736 -0.1875 25 55 3.75 25 55 7.5 25 45 3.75 25 75 7.5 25 85 11.25 25 75 11.25 25 95 3.75 25 95 7.5 25 85 3.75 25 34.34338 4.0625 25 44.34338 7.8125 25 34.21206 4.125 25 44.60603 7.6875 25 54.73735 11.375 25 54.60603 11.4375 25 34.86867 3.8125 25 44.86867 7.5625 25 34.73735 3.875 25 5.593385 0.5 -18.75 5.593385 0.5 -12.5 11.71206 0.5 -18.75 -6.643969 0.5 -12.5 -12.76265 0.5 -6.25 -6.643969 0.5 -6.25 -18.88132 0.5 -18.75 -18.88132 0.5 -12.5 -12.76265 0.5 -18.75 11.71206 0.5 -6.25 17.83074 0.5 -6.25 17.83074 0.5 -12.5 5.593385 0.5 6.25 5.593385 0.5 12.5 11.71206 0.5 6.25 -12.76265 0.5 18.75 -6.643969 0.5 18.75 -6.643969 0.5 12.5 -18.88132 -0.125 -25 -12.76265 -0.125 -25 -18.88132 -0.25 -25 -12.76265 0.125 -25 -6.643969 0.25 -25 -6.643969 0.125 -25 -18.88132 0.375 -25 -12.76265 0.375 -25 -18.88132 0.25 -25 -6.512646 -0.25 -25 -6.381323 -0.375 -25 -12.63132 -0.375 -25 5.856031 -0.125 -25 12.10603 -0.125 -25 5.987354 -0.25 -25 17.96206 0.25 -25 18.09339 0.125 -25 11.84339 0.125 -25 24.73736 -0.1875 -25 24.86868 -0.25 -25 24.86868 -0.3125 -25 24.60603 0 -25 24.60603 0.0625 -25 24.73736 -0.0625 -25 24.21206 0.3125 -25 24.34339 0.25 -25 24.34339 0.1875 -25 85 3.75 -25 95 7.5 -25 95 3.75 -25 75 7.5 -25 75 11.25 -25 85 11.25 -25 45 3.75 -25 55 7.5 -25 55 3.75 -25 34.73735 3.875 -25 44.86867 7.5625 -25 34.86867 3.8125 -25 44.60603 7.6875 -25 54.60603 11.4375 -25 54.73735 11.375 -25 34.21206 4.125 -25 44.34338 7.8125 -25 34.34338 4.0625 -25 25 -0.375 -18.75 25 -0.4375 -12.5 25 -0.4375 -18.75 25 -0.3125 -12.5 25 -0.3125 -6.25 25 -0.375 -6.25 25 -0.125 -18.75 25 -0.1875 -12.5 25 -0.1875 -18.75 25 -0.0625 -6.25 25 -0.125 -6.25 25 -0.0625 -12.5 25 -0.125 6.25 25 -0.1875 12.5 25 -0.1875 6.25 25 -0.0625 18.75 25 -0.125 18.75 25 -0.0625 12.5 94.86868 26.3125 6.25 84.73735 22.625 6.25 94.86868 26.3125 12.5 84.73735 22.625 -6.25 74.60604 18.9375 -12.5 74.60604 18.9375 -6.25 94.86868 26.3125 -18.75 84.73735 22.625 -18.75 94.86868 26.3125 -12.5 44.21206 7.875 18.75 34.08074 4.1875 12.5 34.08074 4.1875 18.75 54.34338 11.5625 12.5 54.34338 11.5625 6.25 44.21206 7.875 6.25 84.73735 22.625 18.75 74.60604 18.9375 12.5 74.60604 18.9375 18.75 35 0 6.25 45 0 6.25 35 0 12.5 45 0 -6.25 55 0 -12.5 55 0 -6.25 35 0 -18.75 45 0 -18.75 35 0 -12.5 85 0 18.75 95 0 12.5 95 0 18.75 75 0 12.5 75 0 6.25 85 0 6.25 45 0 18.75 55 0 12.5 55 0 18.75 105 3.75 6.25 105 7.5 6.25 105 3.75 12.5 105 7.5 -6.25 105 11.25 -12.5 105 11.25 -6.25 105 3.75 -18.75 105 7.5 -18.75 105 3.75 -12.5 105 22.5 18.75 105 26.25 12.5 105 26.25 18.75 105 18.75 12.5 105 18.75 6.25 105 22.5 6.25 105 7.5 18.75 105 11.25 12.5 105 11.25 18.75 105 22.5 -6.25 105 26.25 -12.5 105 26.25 -6.25 105 18.75 -18.75 105 22.5 -18.75 105 18.75 -12.5 85 0 -6.25 95 0 -12.5 95 0 -6.25 75 0 -18.75 85 0 -18.75 75 0 -12.5 44.21206 7.875 -6.25 34.08074 4.1875 -12.5 34.08074 4.1875 -6.25 54.34338 11.5625 -18.75 44.21206 7.875 -18.75 54.34338 11.5625 -12.5 25 -0.3125 18.75 25 -0.375 18.75 25 -0.3125 12.5 25 -0.375 6.25 25 -0.4375 12.5 25 -0.4375 6.25 74.73735 18.875 -25 84.86868 22.5625 -25 74.86868 18.8125 -25 85 18.75 -25 95 22.5 -25 95 18.75 -25 24.73736 0.0625 -25 24.86868 0 -25 24.86868 -0.0625 -25 18.48736 -0.25 -25 18.61868 -0.375 -25 12.36868 -0.375 -25 5.593385 0.375 -25 11.71206 0.375 -25 5.593385 0.25 -25 11.71206 0.5 18.75 17.83074 0.5 18.75 17.83074 0.5 12.5 -18.88132 0.5 6.25 -18.88132 0.5 12.5 -12.76265 0.5 6.25 74.86868 18.8125 25 84.86868 22.5625 25 74.73735 18.875 25 95 18.75 25 95 22.5 25 85 18.75 25 24.86868 -0.0625 25 24.86868 0 25 24.73736 0.0625 25 12.36868 -0.375 25 18.61868 -0.375 25 18.48736 -0.25 25 5.593385 0.25 25 11.71206 0.375 25 5.593385 0.375 25 6.25 -0.5 12.5 12.5 -0.5 18.75 6.25 -0.5 18.75 18.75 -0.5 6.25 18.75 -0.5 12.5 12.5 -0.5 6.25 -25 -0.125 12.5 -25 -0.25 18.75 -25 -0.125 18.75 -25 -0.375 6.25 -25 -0.375 12.5 -25 -0.25 6.25</float_array>
          <technique_common>
            <accessor source="#wedge_with_plane-mesh-positions-array" count="770" stride="3">
              <param name="X" type="float"/>
              <param name="Y" type="float"/>
              <param name="Z" type="float"/>
            </accessor>
          </technique_common>
        </source>
        <source id="wedge_with_plane-mesh-normals">
          <float_array id="wedge_with_plane-mesh-normals-array" count="4608">-1 0 0 -1 0 0 0 -1 0 0 -1 0 0 0 1 0 0 1 0 0 1 0 0 1 0 0 1 0 1 0 0 1 0 0 0 -1 0 0 -1 0 0 -1 0 0 -1 0 0 -1 1 0 0 1 0 0 -0.3420202 0.9396926 0 -0.3420202 0.9396926 0 0 -1 0 0 -1 0 1 0 0 1 0 0 1 0 0 1 0 0 1 0 0 1 0 0 1 0 0 1 0 0 0 -1 0 0 -1 0 0 -1 0 0 -1 0 0 -1 0 0 -1 0 -0.34202 0.9396926 0 -0.34202 0.9396926 0 -0.3420202 0.9396926 0 -0.34202 0.9396926 0 -0.34202 0.9396926 0 -0.34202 0.9396926 0 1 0 0 1 0 0 1 0 0 1 0 0 1 0 0 1 0 0 0 0 -1 0 0 -1 0 0 -1 0 0 -1 0 0 -1 0 0 -1 0 0 -1 0 0 -1 0 0 -1 0 0 -1 0 0 -1 0 0 -1 0 0 -1 0 0 -1 0 0 -1 0 1 0 0 1 0 0 1 0 0 1 0 0 1 0 0 1 0 0 0 1 0 0 1 0 0 1 0 0 1 0 0 1 0 0 1 0 0 1 0 0 1 0 0 1 0 0 1 0 0 1 0 0 1 0 0 1 0 0 1 0 0 1 0 -1 0 0 -1 0 0 -1 0 0 -1 0 0 -1 0 0 -1 0 -1 0 0 -1 0 0 -1 0 0 -1 0 0 -1 0 0 -1 0 0 -1 0 0 -1 0 0 -1 0 0 -1 0 0 -1 0 0 -1 0 0 -1 0 0 -1 0 0 -1 0 0 -1 0 0 -1 0 0 -1 0 0 -1 0 0 -1 0 0 -1 0 0 -1 0 0 -1 0 0 -1 0 0 0 -1 0 0 -1 0 0 -1 0 0 -1 0 0 -1 0 0 -1 0 0 -1 0 0 -1 0 0 -1 0 0 -1 0 0 -1 0 0 -1 0 0 -1 0 0 -1 0 0 -1 0 0 -1 0 0 -1 0 0 -1 0 0 0 1 0 0 1 0 0 1 0 0 1 0 0 1 0 0 1 0 0 1 0 0 1 0 0 1 0 0 1 0 0 1 0 0 1 0 0 1 0 0 1 0 0 1 0 0 1 0 0 1 0 0 1 0 0 1 0 0 1 0 0 1 0 0 1 0 0 1 0 0 1 0 0 1 0 0 1 0 0 1 0 0 1 0 0 1 0 0 1 0 0 1 0 0 1 0 0 1 0 0 1 0 0 1 0 0 1 0 0 1 0 0 1 0 0 1 0 0 1 0 0 1 0 0 1 0 0 1 0 0 1 0 0 1 0 1 0 0 1 0 0 1 0 0 1 0 0 1 0 0 1 0 0 1 0 0 1 0 0 1 0 0 1 0 0 1 0 0 1 0 0 1 0 0 1 0 0 1 0 0 1 0 0 1 0 0 1 0 0 0 -1 0 0 -1 0 0 -1 0 0 -1 0 0 -1 0 0 -1 0 0 -1 0 0 -1 0 0 -1 0 0 -1 0 0 -1 0 0 -1 0 0 -1 0 0 -1 0 0 -1 0 0 -1 0 0 -1 0 0 -1 0 0 -1 0 0 -1 0 0 -1 0 0 -1 0 0 -1 0 0 -1 0 0 -1 0 0 -1 0 0 -1 0 0 -1 0 0 -1 0 0 -1 0 0 -1 0 0 -1 0 0 -1 0 0 -1 0 0 -1 0 0 -1 0 0 -1 0 0 -1 0 0 -1 0 0 -1 0 0 -1 0 0 -1 0 0 -1 0 0 -1 0 0 -1 1 0 0 1 0 0 1 0 0 1 0 0 1 0 0 1 0 0 1 0 0 1 0 0 1 0 0 1 0 0 1 0 0 1 0 0 1 0 0 1 0 0 1 0 0 1 0 0 1 0 0 1 0 0 -0.34202 0.9396926 0 -0.34202 0.9396926 0 -0.34202 0.9396926 0 -0.34202 0.9396926 0 -0.3420203 0.9396926 0 -0.34202 0.9396926 0 -0.34202 0.9396926 0 -0.34202 0.9396926 0 -0.34202 0.9396926 0 -0.34202 0.9396926 -2.08752e-7 -0.34202 0.9396926 -2.26443e-7 -0.3420202 0.9396926 0 -0.34202 0.9396926 0 -0.34202 0.9396926 0 -0.34202 0.9396926 0 -0.34202 0.9396926 0 -0.3420203 0.9396926 0 -0.34202 0.9396926 0 0 -1 0 0 -1 0 0 -1 0 0 -1 0 0 -1 0 0 -1 0 0 -1 0 0 -1 0 0 -1 0 0 -1 0 0 -1 0 0 -1 0 0 -1 0 0 -1 0 0 -1 0 0 -1 0 0 -1 0 0 -1 0 1 0 0 1 0 0 1 0 0 1 0 0 1 0 0 1 0 0 1 0 0 1 0 0 1 0 0 1 0 0 1 0 0 1 0 0 1 0 0 1 0 0 1 0 0 1 0 0 1 0 0 1 0 0 1 0 0 1 0 0 1 0 0 1 0 0 1 0 0 1 0 0 0 -1 0 0 -1 0 0 -1 0 0 -1 0 0 -1 0 0 -1 0 -0.3420202 0.9396926 0 -0.34202 0.9396926 0 -0.3420202 0.9396926 0 -0.34202 0.9396926 0 -0.34202 0.9396926 0 -0.3420202 0.9396926 0 1 0 0 1 0 0 1 0 0 1 0 0 1 0 0 1 0 0 0 0 -1 0 0 -1 0 0 -1 0 0 -1 0 0 -1 0 0 -1 0 0 -1 0 0 -1 0 0 -1 0 0 -1 0 0 -1 0 0 -1 0 0 -1 0 0 -1 0 0 -1 0 1 0 0 1 0 0 1 0 0 1 0 0 1 0 0 1 0 0 0 1 0 0 1 0 0 1 0 0 1 0 0 1 0 0 1 0 0 1 0 0 1 0 0 1 0 0 1 0 0 1 0 0 1 0 0 1 0 0 1 0 0 1 0 -1 0 0 -1 0 0 -1 0 0 -1 0 0 -1 0 0 -1 0 -1 0 0 -1 0 0 -1 0 0 -1 0 0 -1 0 0 -1 0 0 -1 0 0 -1 0 0 -1 0 0 -1 0 0 -1 0 0 -1 0 0 -1 0 0 -1 0 0 -1 0 0 -1 0 0 -1 0 0 -1 0 0 -1 0 0 -1 0 0 -1 0 0 -1 0 0 -1 0 0 -1 0 0 0 -1 0 0 -1 0 0 -1 0 0 -1 0 0 -1 0 0 -1 0 0 -1 0 0 -1 0 0 -1 0 0 -1 0 0 -1 0 0 -1 0 0 -1 0 0 -1 0 0 -1 0 0 -1 0 0 -1 0 0 -1 0 0 0 1 0 0 1 0 0 1 0 0 1 0 0 1 0 0 1 0 0 1 0 0 1 0 0 1 0 0 1 0 0 1 0 0 1 0 0 1 0 0 1 0 0 1 0 0 1 0 0 1 0 0 1 0 0 1 0 0 1 0 0 1 0 0 1 0 0 1 0 0 1 0 0 1 0 0 1 0 0 1 0 0 1 0 0 1 0 0 1 0 0 1 0 0 1 0 0 1 0 0 1 0 0 1 0 0 1 0 0 1 0 0 1 0 0 1 0 0 1 0 0 1 0 0 1 0 0 1 0 0 1 0 0 1 0 1 0 0 1 0 0 1 0 0 1 0 0 1 0 0 1 0 0 1 0 0 1 0 0 1 0 0 1 0 0 1 0 0 1 0 0 1 0 0 1 0 0 1 0 0 1 0 0 1 0 0 1 0 0 0 -1 0 0 -1 0 0 -1 0 0 -1 0 0 -1 0 0 -1 0 0 -1 0 0 -1 0 0 -1 0 0 -1 0 0 -1 0 0 -1 0 0 -1 0 0 -1 0 0 -1 0 0 -1 0 0 -1 0 0 -1 0 0 -1 0 0 -1 0 0 -1 0 0 -1 0 0 -1 0 0 -1 0 0 -1 0 0 -1 0 0 -1 0 0 -1 0 0 -1 0 0 -1 0 0 -1 0 0 -1 0 0 -1 0 0 -1 0 0 -1 0 0 -1 0 0 -1 0 0 -1 0 0 -1 0 0 -1 0 0 -1 0 0 -1 0 0 -1 0 0 -1 0 0 -1 1 0 0 1 0 0 1 0 0 1 0 0 1 0 0 1 0 0 1 0 0 1 0 0 1 0 0 1 0 0 1 0 0 1 0 0 1 0 0 1 0 0 1 0 0 1 0 0 1 0 0 1 0 0 -0.34202 0.9396926 0 -0.34202 0.9396926 0 -0.34202 0.9396926 0 -0.34202 0.9396926 0 -0.34202 0.9396926 0 -0.3420202 0.9396926 2.08753e-7 -0.34202 0.9396926 0 -0.34202 0.9396926 0 -0.34202 0.9396926 0 -0.34202 0.9396926 0 -0.3420202 0.9396926 0 -0.3420202 0.9396926 0 -0.34202 0.9396926 0 -0.34202 0.9396926 0 -0.3420202 0.9396926 0 -0.34202 0.9396926 0 -0.3420202 0.9396926 0 -0.3420202 0.9396926 0 0 -1 0 0 -1 0 0 -1 0 0 -1 0 0 -1 0 0 -1 0 0 -1 0 0 -1 0 0 -1 0 0 -1 0 0 -1 0 0 -1 0 0 -1 0 0 -1 0 0 -1 0 0 -1 0 0 -1 0 0 -1 0 1 0 0 1 0 0 1 0 0 1 0 0 1 0 0 1 0 0 1 0 0 1 0 0 1 0 0 1 0 0 1 0 0 1 0 0 1 0 0 1 0 0 1 0 0 1 0 0 1 0 0 1 0 0 1 0 0 1 0 0 1 0 0 1 0 0 1 0 0 1 0 0 1 0 0 1 0 0 1 0 0 1 0 0 1 0 0 1 0 0 1 0 0 1 0 0 1 0 0 1 0 0 1 0 0 1 0 0 1 0 0 1 0 0 1 0 0 1 0 0 1 0 0 1 0 0 1 0 0 1 0 0 1 0 0 1 0 0 1 0 0 1 0 0 1 0 0 1 0 0 1 0 0 1 0 0 1 0 0 1 0 0 1 0 0 1 0 0 1 0 0 1 0 0 1 0 0 1 0 0 1 0 0 1 0 0 1 0 0 1 0 0 1 0 0 1 0 0 1 0 0 1 0 0 1 0 0 1 0 0 1 0 0 1 0 0 0 -1 0 0 -1 0 0 -1 0 0 -1 0 0 -1 0 0 -1 0 0 -1 0 0 -1 0 0 -1 0 0 -1 0 0 -1 0 0 -1 0 0 -1 0 0 -1 0 0 -1 0 0 -1 0 0 -1 0 0 -1 0 0 -1 0 0 -1 0 0 -1 0 0 -1 0 0 -1 0 0 -1 0 0 -1 0 0 -1 0 0 -1 0 0 -1 0 0 -1 0 0 -1 0 0 -1 0 0 -1 0 0 -1 0 0 -1 0 0 -1 0 0 -1 0 0 -1 0 0 -1 0 0 -1 0 0 -1 0 0 -1 0 0 -1 0 0 -1 0 0 -1 0 0 -1 0 0 -1 0 0 -1 0 0 -1 0 0 -1 0 0 -1 0 0 -1 0 0 -1 0 0 -1 0 0 -1 0 -0.3420203 0.9396926 0 -0.34202 0.9396926 0 -0.34202 0.9396926 0 -0.3420203 0.9396926 0 -0.3420203 0.9396926 0 -0.34202 0.9396926 0 -0.34202 0.9396926 0 -0.34202 0.9396926 0 -0.34202 0.9396926 0 -0.34202 0.9396926 0 -0.34202 0.9396926 0 -0.3420202 0.9396926 0 -0.3420202 0.9396926 0 -0.3420202 0.9396926 0 -0.3420202 0.9396926 0 -0.34202 0.9396926 0 -0.34202 0.9396926 0 -0.3420202 0.9396926 0 -0.3420202 0.9396926 0 -0.3420202 0.9396926 0 -0.3420202 0.9396926 0 -0.3420202 0.9396926 0 -0.3420202 0.9396926 0 -0.3420202 0.9396926 0 -0.34202 0.9396926 0 -0.34202 0.9396926 0 -0.34202 0.9396926 0 -0.34202 0.9396926 0 -0.34202 0.9396926 0 -0.34202 0.9396926 0 -0.34202 0.9396926 0 -0.34202 0.9396926 0 -0.34202 0.9396926 0 -0.34202 0.9396926 0 -0.34202 0.9396926 0 -0.34202 0.9396926 0 -0.3420203 0.9396926 0 -0.34202 0.9396926 0 -0.34202 0.9396926 0 -0.3420203 0.9396926 0 -0.3420203 0.9396926 0 -0.34202 0.9396926 0 -0.34202 0.9396926 0 -0.34202 0.9396926 0 -0.34202 0.9396926 0 -0.34202 0.9396926 0 -0.34202 0.9396926 0 -0.34202 0.9396926 0 -0.34202 0.9396926 0 -0.34202 0.9396926 0 -0.34202 0.9396926 0 -0.34202 0.9396926 0 -0.34202 0.9396926 0 -0.34202 0.9396926 0 1 0 0 1 0 0 1 0 0 1 0 0 1 0 0 1 0 0 1 0 0 1 0 0 1 0 0 1 0 0 1 0 0 1 0 0 1 0 0 1 0 0 1 0 0 1 0 0 1 0 0 1 0 0 1 0 0 1 0 0 1 0 0 1 0 0 1 0 0 1 0 0 1 0 0 1 0 0 1 0 0 1 0 0 1 0 0 1 0 0 1 0 0 1 0 0 1 0 0 1 0 0 1 0 0 1 0 0 1 0 0 1 0 0 1 0 0 1 0 0 1 0 0 1 0 0 1 0 0 1 0 0 1 0 0 1 0 0 1 0 0 1 0 0 1 0 0 1 0 0 1 0 0 1 0 0 1 0 0 1 0 0 0 0 -1 0 0 -1 0 0 -1 0 0 -1 0 0 -1 0 0 -1 0 0 -1 0 0 -1 0 0 -1 0 0 -1 0 0 -1 0 0 -1 0 0 -1 0 0 -1 0 0 -1 0 0 -1 0 0 -1 0 0 -1 0 0 -1 0 0 -1 0 0 -1 0 0 -1 0 0 -1 0 0 -1 0 0 -1 0 0 -1 0 0 -1 0 0 -1 0 0 -1 0 0 -1 0 0 -1 0 0 -1 0 0 -1 0 0 -1 0 0 -1 0 0 -1 0 0 -1 0 0 -1 0 0 -1 0 0 -1 0 0 -1 0 0 -1 0 0 -1 0 0 -1 0 0 -1 0 0 -1 0 0 -1 0 0 -1 0 0 -1 0 0 -1 0 0 -1 0 0 -1 0 0 -1 0 0 -1 0 0 -1 0 0 -1 0 0 -1 0 0 -1 0 0 -1 0 0 -1 0 0 -1 0 0 -1 0 0 -1 0 0 -1 0 0 -1 0 0 -1 0 0 -1 0 0 -1 0 0 -1 0 0 -1 0 0 -1 0 0 -1 0 0 -1 0 0 -1 0 0 -1 0 0 -1 0 0 -1 0 0 -1 0 0 -1 0 0 -1 0 0 -1 0 0 -1 0 0 -1 0 0 -1 0 0 -1 0 0 -1 0 0 -1 0 0 -1 0 0 -1 0 0 -1 0 0 -1 0 0 -1 0 0 -1 0 0 -1 0 0 -1 0 0 -1 0 0 -1 0 0 -1 0 0 -1 0 0 -1 0 0 -1 0 0 -1 0 0 -1 0 0 -1 0 0 -1 0 0 -1 0 0 -1 0 0 -1 0 0 -1 0 0 -1 0 0 -1 0 0 -1 0 0 -1 0 0 -1 0 0 -1 0 0 -1 0 0 -1 0 0 -1 0 0 -1 0 0 -1 0 0 -1 0 0 -1 0 0 -1 0 0 -1 0 0 -1 0 0 -1 0 0 -1 0 0 -1 0 0 -1 0 0 -1 0 0 -1 0 0 -1 0 0 -1 0 0 -1 0 0 -1 0 1 0 0 1 0 0 1 0 0 1 0 0 1 0 0 1 0 0 1 0 0 1 0 0 1 0 0 1 0 0 1 0 0 1 0 0 1 0 0 1 0 0 1 0 0 1 0 0 1 0 0 1 0 0 1 0 0 1 0 0 1 0 0 1 0 0 1 0 0 1 0 0 1 0 0 1 0 0 1 0 0 1 0 0 1 0 0 1 0 0 1 0 0 1 0 0 1 0 0 1 0 0 1 0 0 1 0 0 1 0 0 1 0 0 1 0 0 1 0 0 1 0 0 1 0 0 1 0 0 1 0 0 1 0 0 1 0 0 1 0 0 1 0 0 1 0 0 1 0 0 1 0 0 1 0 0 1 0 0 1 0 0 0 1 0 0 1 0 0 1 0 0 1 0 0 1 0 0 1 0 0 1 0 0 1 0 0 1 0 0 1 0 0 1 0 0 1 0 0 1 0 0 1 0 0 1 0 0 1 0 0 1 0 0 1 0 0 1 0 0 1 0 0 1 0 0 1 0 0 1 0 0 1 0 0 1 0 0 1 0 0 1 0 0 1 0 0 1 0 0 1 0 0 1 0 0 1 0 0 1 0 0 1 0 0 1 0 0 1 0 0 1 0 0 1 0 0 1 0 0 1 0 0 1 0 0 1 0 0 1 0 0 1 0 0 1 0 0 1 0 0 1 0 0 1 0 0 1 0 0 1 0 0 1 0 0 1 0 0 1 0 0 1 0 0 1 0 0 1 0 0 1 0 0 1 0 0 1 0 0 1 0 0 1 0 0 1 0 0 1 0 0 1 0 0 1 0 0 1 0 0 1 0 0 1 0 0 1 0 0 1 0 0 1 0 0 1 0 0 1 0 0 1 0 0 1 0 0 1 0 0 1 0 0 1 0 0 1 0 0 1 0 0 1 0 0 1 0 0 1 0 0 1 0 0 1 0 0 1 0 0 1 0 0 1 0 0 1 0 0 1 0 0 1 0 0 1 0 0 1 0 0 1 0 0 1 0 0 1 0 0 1 0 0 1 0 0 1 0 0 1 0 0 1 0 0 1 0 0 1 0 0 1 0 0 1 0 0 1 0 0 1 0 0 1 0 0 1 0 0 1 0 0 1 0 0 1 0 0 1 0 0 1 0 0 1 0 0 1 0 0 1 0 0 1 0 0 1 0 0 1 0 0 1 0 0 1 0 0 1 0 0 1 0 0 1 0 0 1 0 0 1 0 0 1 0 0 1 0 0 1 0 0 1 0 0 1 0 0 1 0 0 1 0 0 1 0 -1 0 0 -1 0 0 -1 0 0 -1 0 0 -1 0 0 -1 0 0 -1 0 0 -1 0 0 -1 0 0 -1 0 0 -1 0 0 -1 0 0 -1 0 0 -1 0 0 -1 0 0 -1 0 0 -1 0 0 -1 0 0 -1 0 0 -1 0 0 -1 0 0 -1 0 0 -1 0 0 -1 0 0 -1 0 0 -1 0 0 -1 0 0 -1 0 0 -1 0 0 -1 0 0 -1 0 0 -1 0 0 -1 0 0 -1 0 0 -1 0 0 -1 0 0 -1 0 0 -1 0 0 -1 0 0 -1 0 0 -1 0 0 -1 0 0 -1 0 0 -1 0 0 -1 0 0 -1 0 0 -1 0 0 -1 0 0 -1 0 0 -1 0 0 -1 0 0 -1 0 0 -1 0 0 -1 0 -1 0 0 -1 0 0 -1 0 0 -1 0 0 -1 0 0 -1 0 0 -1 0 0 -1 0 0 -1 0 0 -1 0 0 -1 0 0 -1 0 0 -1 0 0 -1 0 0 -1 0 0 -1 0 0 -1 0 0 -1 0 0 -1 0 0 -1 0 0 -1 0 0 -1 0 0 -1 0 0 -1 0 0 -1 0 0 -1 0 0 -1 0 0 -1 0 0 -1 0 0 -1 0 0 -1 0 0 -1 0 0 -1 0 0 -1 0 0 -1 0 0 -1 0 0 -1 0 0 -1 0 0 -1 0 0 -1 0 0 -1 0 0 -1 0 0 -1 0 0 -1 0 0 -1 0 0 -1 0 0 -1 0 0 -1 0 0 -1 0 0 -1 0 0 -1 0 0 -1 0 0 -1 0 0 -1 0 0 -1 0 0 -1 0 0 -1 0 0 -1 0 0 -1 0 0 -1 0 0 -1 0 0 -1 0 0 -1 0 0 -1 0 0 -1 0 0 -1 0 0 -1 0 0 -1 0 0 -1 0 0 -1 0 0 -1 0 0 -1 0 0 0 -1 0 0 -1 0 0 -1 0 0 -1 0 0 -1 0 0 -1 0 0 -1 0 0 -1 0 0 -1 0 0 -1 0 0 -1 0 0 -1 0 0 -1 0 0 -1 0 0 -1 0 0 -1 0 0 -1 0 0 -1 0 0 0 1 0 0 1 0 0 1 0 0 1 0 0 1 0 0 1 0 0 1 0 0 1 0 0 1 0 0 1 0 0 1 0 0 1 0 0 1 0 0 1 0 0 1 0 0 1 0 0 1 0 0 1 0 0 1 0 0 1 0 0 1 0 0 1 0 0 1 0 0 1 0 0 1 0 0 1 0 0 1 0 0 1 0 0 1 0 0 1 0 0 1 0 0 1 0 0 1 0 0 1 0 0 1 0 0 1 0 0 1 0 0 1 0 0 1 0 0 1 0 0 1 0 0 1 0 0 1 0 0 1 0 0 1 0 1 0 0 1 0 0 1 0 0 1 0 0 1 0 0 1 0 0 1 0 0 1 0 0 1 0 0 1 0 0 1 0 0 1 0 0 1 0 0 1 0 0 1 0 0 1 0 0 1 0 0 1 0 0 0 -1 0 0 -1 0 0 -1 0 0 -1 0 0 -1 0 0 -1 0 0 -1 0 0 -1 0 0 -1 0 0 -1 0 0 -1 0 0 -1 0 0 -1 0 0 -1 0 0 -1 0 0 -1 0 0 -1 0 0 -1 0 0 -1 0 0 -1 0 0 -1 0 0 -1 0 0 -1 0 0 -1 0 0 -1 0 0 -1 0 0 -1 0 0 -1 0 0 -1 0 0 -1 0 0 -1 0 0 -1 0 0 -1 0 0 -1 0 0 -1 0 0 -1 0 0 -1 0 0 -1 0 0 -1 0 0 -1 0 0 -1 0 0 -1 0 0 -1 0 0 -1 0 0 -1 1 0 0 1 0 0 1 0 0 1 0 0 1 0 0 1 0 0 1 0 0 1 0 0 1 0 0 1 0 0 1 0 0 1 0 0 1 0 0 1 0 0 1 0 0 1 0 0 1 0 0 1 0 0 -0.3420203 0.9396926 0 -0.3420203 0.9396926 0 -0.3420203 0.9396926 0 -0.3420203 0.9396926 0 -0.34202 0.9396926 0 -0.34202 0.9396926 0 -0.3420203 0.9396926 0 -0.3420203 0.9396926 0 -0.3420203 0.9396926 0 -0.34202 0.9396926 0 -0.3420202 0.9396926 0 -0.3420202 0.9396926 0 -0.34202 0.9396926 0 -0.34202 0.9396926 0 -0.3420202 0.9396926 0 -0.3420203 0.9396926 0 -0.34202 0.9396926 0 -0.34202 0.9396926 0 0 -1 0 0 -1 0 0 -1 0 0 -1 0 0 -1 0 0 -1 0 0 -1 0 0 -1 0 0 -1 0 0 -1 0 0 -1 0 0 -1 0 0 -1 0 0 -1 0 0 -1 0 0 -1 0 0 -1 0 0 -1 0 1 0 0 1 0 0 1 0 0 1 0 0 1 0 0 1 0 0 1 0 0 1 0 0 1 0 0 1 0 0 1 0 0 1 0 0 1 0 0 1 0 0 1 0 0 1 0 0 1 0 0 1 0 0 1 0 0 1 0 0 1 0 0 1 0 0 1 0 0 1 0 0 0 -1 0 0 -1 0 0 -1 0 0 -1 0 0 -1 0 0 -1 0 -0.34202 0.9396926 0 -0.3420202 0.9396926 0 -0.3420202 0.9396926 0 -0.3420202 0.9396926 0 -0.3420202 0.9396926 0 -0.3420202 0.9396926 2.08753e-7 1 0 0 1 0 0 1 0 0 1 0 0 1 0 0 1 0 0 0 0 -1 0 0 -1 0 0 -1 0 0 -1 0 0 -1 0 0 -1 0 0 -1 0 0 -1 0 0 -1 0 0 -1 0 0 -1 0 0 -1 0 0 -1 0 0 -1 0 0 -1 0 1 0 0 1 0 0 1 0 0 1 0 0 1 0 0 1 0 0 0 1 0 0 1 0 0 1 0 0 1 0 0 1 0 0 1 0 0 1 0 0 1 0 0 1 0 0 1 0 0 1 0 0 1 0 0 1 0 0 1 0 0 1 0 -1 0 0 -1 0 0 -1 0 0 -1 0 0 -1 0 0 -1 0 -1 0 0 -1 0 0 -1 0 0 -1 0 0 -1 0 0 -1 0 0</float_array>
          <technique_common>
            <accessor source="#wedge_with_plane-mesh-normals-array" count="1536" stride="3">
              <param name="X" type="float"/>
              <param name="Y" type="float"/>
              <param name="Z" type="float"/>
            </accessor>
          </technique_common>
        </source>
        <vertices id="wedge_with_plane-mesh-vertices">
          <input semantic="POSITION" source="#wedge_with_plane-mesh-positions"/>
        </vertices>
        <triangles count="1536">
          <input semantic="VERTEX" source="#wedge_with_plane-mesh-vertices" offset="0"/>
          <input semantic="NORMAL" source="#wedge_with_plane-mesh-normals" offset="1"/>
          <p>0 0 375 0 374 0 0 1 377 1 375 1 4 2 200 2 379 2 4 3 202 3 200 3 6 4 204 4 203 4 4 5 385 5 202 5 7 6 207 6 206 6 8 7 209 7 388 7 8 8 211 8 209 8 3 9 392 9 198 9 6 10 394 10 204 10 10 11 215 11 213 11 5 12 201 12 396 12 11 13 218 13 217 13 12 14 400 14 219 14 12 15 219 15 222 15 4 16 379 16 403 16 4 17 403 17 386 17 10 18 225 18 402 18 10 19 214 19 225 19 13 20 227 20 221 20 13 21 228 21 227 21 12 22 229 22 400 22 12 23 226 23 229 23 49 24 410 24 265 24 49 25 411 25 410 25 46 26 262 26 268 26 40 27 413 27 364 27 40 28 414 28 413 28 49 29 265 29 271 29 47 30 416 30 263 30 47 31 417 31 416 31 48 32 264 32 274 32 41 33 419 33 257 33 41 34 420 34 419 34 47 35 263 35 277 35 45 36 422 36 261 36 45 37 423 37 422 37 34 38 250 38 280 38 42 39 425 39 366 39 42 40 426 40 425 40 45 41 261 41 283 41 26 42 428 42 350 42 26 43 429 43 428 43 43 44 367 44 286 44 43 45 431 45 367 45 43 46 432 46 431 46 19 47 343 47 289 47 42 48 434 48 258 48 42 49 435 49 434 49 39 50 255 50 292 50 39 51 437 51 255 51 39 52 438 52 437 52 40 53 364 53 295 53 37 54 440 54 253 54 37 55 441 55 440 55 38 56 254 56 298 56 36 57 443 57 360 57 36 58 444 58 443 58 21 59 237 59 301 59 33 60 446 60 249 60 33 61 447 61 446 61 35 62 251 62 304 62 24 63 449 63 240 63 24 64 450 64 449 64 34 65 358 65 307 65 18 66 452 66 234 66 18 67 453 67 452 67 32 68 356 68 310 68 29 69 455 69 245 69 29 70 456 70 455 70 31 71 247 71 313 71 28 72 458 72 352 72 28 73 459 73 458 73 29 74 245 74 316 74 26 75 461 75 242 75 26 76 462 76 461 76 27 77 243 77 319 77 22 78 464 78 238 78 22 79 465 79 464 79 25 80 349 80 322 80 23 81 467 81 239 81 23 82 468 82 467 82 24 83 240 83 325 83 20 84 470 84 236 84 20 85 471 85 470 85 22 86 238 86 328 86 19 87 473 87 343 87 19 88 474 88 473 88 20 89 236 89 331 89 15 90 476 90 339 90 15 91 477 91 476 91 17 92 341 92 334 92 14 93 479 93 338 93 14 94 480 94 479 94 15 95 339 95 337 95 193 96 482 96 481 96 193 97 483 97 482 97 51 98 195 98 484 98 191 99 485 99 335 99 191 100 486 100 485 100 192 101 336 101 487 101 50 102 488 102 194 102 50 103 489 103 488 103 191 104 335 104 490 104 190 105 491 105 478 105 190 106 492 106 491 106 53 107 197 107 493 107 188 108 494 108 332 108 188 109 495 109 494 109 189 110 333 110 496 110 51 111 497 111 195 111 51 112 498 112 497 112 188 113 332 113 499 113 187 114 500 114 475 114 187 115 501 115 500 115 92 116 380 116 502 116 185 117 503 117 329 117 185 118 504 118 503 118 186 119 330 119 505 119 55 120 506 120 199 120 55 121 507 121 506 121 185 122 329 122 508 122 184 123 509 123 472 123 184 124 510 124 509 124 94 125 382 125 511 125 182 126 512 126 326 126 182 127 513 127 512 127 183 128 327 128 514 128 92 129 515 129 380 129 92 130 516 130 515 130 182 131 326 131 517 131 181 132 518 132 469 132 181 133 519 133 518 133 96 134 384 134 520 134 179 135 521 135 323 135 179 136 522 136 521 136 180 137 324 137 523 137 95 138 524 138 383 138 95 139 525 139 524 139 179 140 323 140 526 140 178 141 527 141 466 141 178 142 528 142 527 142 61 143 205 143 529 143 176 144 530 144 320 144 176 145 531 145 530 145 177 146 321 146 532 146 94 147 533 147 382 147 94 148 534 148 533 148 176 149 320 149 535 149 175 150 536 150 463 150 175 151 537 151 536 151 99 152 387 152 538 152 173 153 539 153 317 153 173 154 540 154 539 154 174 155 318 155 541 155 98 156 542 156 386 156 98 157 543 157 542 157 173 158 317 158 544 158 172 159 545 159 460 159 172 160 546 160 545 160 101 161 389 161 547 161 170 162 548 162 314 162 170 163 549 163 548 163 171 164 315 164 550 164 64 165 551 165 208 165 64 166 552 166 551 166 170 167 314 167 553 167 169 168 554 168 457 168 169 169 555 169 554 169 103 170 391 170 556 170 167 171 557 171 311 171 167 172 558 172 557 172 168 173 312 173 559 173 101 174 560 174 389 174 101 175 561 175 560 175 167 176 311 176 562 176 166 177 563 177 454 177 166 178 564 178 563 178 68 179 212 179 565 179 164 180 566 180 308 180 164 181 567 181 566 181 165 182 309 182 568 182 90 183 569 183 378 183 90 184 570 184 569 184 164 185 308 185 571 185 163 186 572 186 451 186 163 187 573 187 572 187 70 188 214 188 574 188 161 189 575 189 305 189 161 190 576 190 575 190 162 191 306 191 577 191 96 192 578 192 384 192 96 193 579 193 578 193 161 194 305 194 580 194 160 195 581 195 448 195 160 196 582 196 581 196 107 197 395 197 583 197 158 198 584 198 302 198 158 199 585 199 584 199 159 200 303 200 586 200 105 201 587 201 393 201 105 202 588 202 587 202 158 203 302 203 589 203 157 204 590 204 445 204 157 205 591 205 590 205 93 206 381 206 592 206 155 207 593 207 299 207 155 208 594 208 593 208 156 209 300 209 595 209 72 210 596 210 216 210 72 211 597 211 596 211 155 212 299 212 598 212 154 213 599 213 442 213 154 214 600 214 599 214 110 215 398 215 601 215 152 216 602 216 296 216 152 217 603 217 602 217 153 218 297 218 604 218 109 219 605 219 397 219 109 220 606 220 605 220 152 221 296 221 607 221 151 222 608 222 439 222 151 223 609 223 608 223 76 224 220 224 610 224 149 225 611 225 293 225 149 226 612 226 611 226 150 227 294 227 613 227 111 228 614 228 399 228 111 229 615 229 614 229 149 230 293 230 616 230 148 231 617 231 436 231 148 232 618 232 617 232 111 233 399 233 619 233 146 234 620 234 290 234 146 235 621 235 620 235 147 236 291 236 622 236 114 237 623 237 402 237 114 238 624 238 623 238 146 239 290 239 625 239 145 240 626 240 433 240 145 241 627 241 626 241 55 242 199 242 628 242 143 243 629 243 287 243 143 244 630 244 629 244 144 245 288 245 631 245 79 246 632 246 223 246 79 247 633 247 632 247 143 248 287 248 634 248 142 249 635 249 430 249 142 250 636 250 635 250 79 251 223 251 637 251 140 252 638 252 284 252 140 253 639 253 638 253 141 254 285 254 640 254 62 255 641 255 206 255 62 256 642 256 641 256 140 257 284 257 643 257 139 258 644 258 427 258 139 259 645 259 644 259 117 260 405 260 646 260 137 261 647 261 281 261 137 262 648 262 647 262 138 263 282 263 649 263 78 264 650 264 222 264 78 265 651 265 650 265 137 266 281 266 652 266 136 267 653 267 424 267 136 268 654 268 653 268 106 269 394 269 655 269 134 270 656 270 278 270 134 271 657 271 656 271 135 272 279 272 658 272 117 273 659 273 405 273 117 274 660 274 659 274 134 275 278 275 661 275 133 276 662 276 421 276 133 277 663 277 662 277 119 278 407 278 664 278 131 279 665 279 275 279 131 280 666 280 665 280 132 281 276 281 667 281 113 282 668 282 401 282 113 283 669 283 668 283 131 284 275 284 670 284 130 285 671 285 418 285 130 286 672 286 671 286 120 287 408 287 673 287 128 288 674 288 272 288 128 289 675 289 674 289 129 290 273 290 676 290 119 291 677 291 407 291 119 292 678 292 677 292 128 293 272 293 679 293 127 294 680 294 415 294 127 295 681 295 680 295 121 296 409 296 682 296 125 297 683 297 269 297 125 298 684 298 683 298 126 299 270 299 685 299 76 300 686 300 220 300 76 301 687 301 686 301 125 302 269 302 688 302 124 303 689 303 412 303 124 304 690 304 689 304 118 305 406 305 691 305 122 306 692 306 266 306 122 307 693 307 692 307 123 308 267 308 694 308 121 309 695 309 409 309 121 310 696 310 695 310 122 311 266 311 697 311 85 312 698 312 373 312 85 313 699 313 698 313 82 314 370 314 700 314 112 315 701 315 256 315 112 316 702 316 701 316 85 317 373 317 703 317 83 318 704 318 371 318 83 319 705 319 704 319 84 320 372 320 706 320 77 321 707 321 365 321 77 322 708 322 707 322 83 323 371 323 709 323 81 324 710 324 369 324 81 325 711 325 710 325 70 326 358 326 712 326 114 327 713 327 258 327 114 328 714 328 713 328 81 329 369 329 715 329 98 330 716 330 242 330 98 331 717 331 716 331 115 332 259 332 718 332 115 333 719 333 259 333 115 334 720 334 719 334 91 335 235 335 721 335 78 336 722 336 366 336 78 337 723 337 722 337 75 338 363 338 724 338 75 339 725 339 363 339 75 340 726 340 725 340 112 341 256 341 727 341 73 342 728 342 361 342 73 343 729 343 728 343 74 344 362 344 730 344 108 345 731 345 252 345 108 346 732 346 731 346 57 347 345 347 733 347 69 348 734 348 357 348 69 349 735 349 734 349 71 350 359 350 736 350 60 351 737 351 348 351 60 352 738 352 737 352 106 353 250 353 739 353 54 354 740 354 342 354 54 355 741 355 740 355 104 356 248 356 742 356 65 357 743 357 353 357 65 358 744 358 743 358 67 359 355 359 745 359 100 360 746 360 244 360 100 361 747 361 746 361 65 362 353 362 748 362 62 363 749 363 350 363 62 364 750 364 749 364 63 365 351 365 751 365 58 366 752 366 346 366 58 367 753 367 752 367 97 368 241 368 754 368 59 369 755 369 347 369 59 370 756 370 755 370 60 371 348 371 757 371 56 372 758 372 344 372 56 373 759 373 758 373 58 374 346 374 760 374 91 375 761 375 235 375 91 376 762 376 761 376 56 377 344 377 763 377 87 378 764 378 231 378 87 379 765 379 764 379 89 380 233 380 766 380 86 381 767 381 230 381 86 382 768 382 767 382 87 383 231 383 769 383 769 384 336 384 192 384 769 385 231 385 336 385 231 386 15 386 336 386 767 387 769 387 192 387 767 388 768 388 769 388 768 389 87 389 769 389 230 390 480 390 14 390 230 391 767 391 480 391 767 392 192 392 480 392 766 393 333 393 189 393 766 394 233 394 333 394 233 395 17 395 333 395 764 396 766 396 189 396 764 397 765 397 766 397 765 398 89 398 766 398 231 399 477 399 15 399 231 400 764 400 477 400 764 401 189 401 477 401 763 402 330 402 186 402 763 403 344 403 330 403 344 404 20 404 330 404 761 405 763 405 186 405 761 406 762 406 763 406 762 407 56 407 763 407 235 408 474 408 19 408 235 409 761 409 474 409 761 410 186 410 474 410 760 411 327 411 183 411 760 412 346 412 327 412 346 413 22 413 327 413 758 414 760 414 183 414 758 415 759 415 760 415 759 416 58 416 760 416 344 417 471 417 20 417 344 418 758 418 471 418 758 419 183 419 471 419 757 420 324 420 180 420 757 421 348 421 324 421 348 422 24 422 324 422 755 423 757 423 180 423 755 424 756 424 757 424 756 425 60 425 757 425 347 426 468 426 23 426 347 427 755 427 468 427 755 428 180 428 468 428 754 429 321 429 177 429 754 430 241 430 321 430 241 431 25 431 321 431 752 432 754 432 177 432 752 433 753 433 754 433 753 434 97 434 754 434 346 435 465 435 22 435 346 436 752 436 465 436 752 437 177 437 465 437 751 438 318 438 174 438 751 439 351 439 318 439 351 440 27 440 318 440 749 441 751 441 174 441 749 442 750 442 751 442 750 443 63 443 751 443 350 444 462 444 26 444 350 445 749 445 462 445 749 446 174 446 462 446 748 447 315 447 171 447 748 448 353 448 315 448 353 449 29 449 315 449 746 450 748 450 171 450 746 451 747 451 748 451 747 452 65 452 748 452 244 453 459 453 28 453 244 454 746 454 459 454 746 455 171 455 459 455 745 456 312 456 168 456 745 457 355 457 312 457 355 458 31 458 312 458 743 459 745 459 168 459 743 460 744 460 745 460 744 461 67 461 745 461 353 462 456 462 29 462 353 463 743 463 456 463 743 464 168 464 456 464 742 465 309 465 165 465 742 466 248 466 309 466 248 467 32 467 309 467 740 468 742 468 165 468 740 469 741 469 742 469 741 470 104 470 742 470 342 471 453 471 18 471 342 472 740 472 453 472 740 473 165 473 453 473 739 474 306 474 162 474 739 475 250 475 306 475 250 476 34 476 306 476 737 477 739 477 162 477 737 478 738 478 739 478 738 479 106 479 739 479 348 480 450 480 24 480 348 481 737 481 450 481 737 482 162 482 450 482 736 483 303 483 159 483 736 484 359 484 303 484 359 485 35 485 303 485 734 486 736 486 159 486 734 487 735 487 736 487 735 488 71 488 736 488 357 489 447 489 33 489 357 490 734 490 447 490 734 491 159 491 447 491 733 492 300 492 156 492 733 493 345 493 300 493 345 494 21 494 300 494 731 495 733 495 156 495 731 496 732 496 733 496 732 497 57 497 733 497 252 498 444 498 36 498 252 499 731 499 444 499 731 500 156 500 444 500 730 501 297 501 153 501 730 502 362 502 297 502 362 503 38 503 297 503 728 504 730 504 153 504 728 505 729 505 730 505 729 506 74 506 730 506 361 507 441 507 37 507 361 508 728 508 441 508 728 509 153 509 441 509 727 510 294 510 150 510 727 511 256 511 294 511 256 512 40 512 294 512 725 513 727 513 150 513 725 514 726 514 727 514 726 515 112 515 727 515 363 516 438 516 39 516 363 517 725 517 438 517 725 518 150 518 438 518 724 519 291 519 147 519 724 520 363 520 291 520 363 521 39 521 291 521 722 522 724 522 147 522 722 523 723 523 724 523 723 524 75 524 724 524 366 525 435 525 42 525 366 526 722 526 435 526 722 527 147 527 435 527 721 528 288 528 144 528 721 529 235 529 288 529 235 530 19 530 288 530 719 531 721 531 144 531 719 532 720 532 721 532 720 533 91 533 721 533 259 534 432 534 43 534 259 535 719 535 432 535 719 536 144 536 432 536 718 537 285 537 141 537 718 538 259 538 285 538 259 539 43 539 285 539 716 540 718 540 141 540 716 541 717 541 718 541 717 542 115 542 718 542 242 543 429 543 26 543 242 544 716 544 429 544 716 545 141 545 429 545 715 546 282 546 138 546 715 547 369 547 282 547 369 548 45 548 282 548 713 549 715 549 138 549 713 550 714 550 715 550 714 551 81 551 715 551 258 552 426 552 42 552 258 553 713 553 426 553 713 554 138 554 426 554 712 555 279 555 135 555 712 556 358 556 279 556 358 557 34 557 279 557 710 558 712 558 135 558 710 559 711 559 712 559 711 560 70 560 712 560 369 561 423 561 45 561 369 562 710 562 423 562 710 563 135 563 423 563 709 564 276 564 132 564 709 565 371 565 276 565 371 566 47 566 276 566 707 567 709 567 132 567 707 568 708 568 709 568 708 569 83 569 709 569 365 570 420 570 41 570 365 571 707 571 420 571 707 572 132 572 420 572 706 573 273 573 129 573 706 574 372 574 273 574 372 575 48 575 273 575 704 576 706 576 129 576 704 577 705 577 706 577 705 578 84 578 706 578 371 579 417 579 47 579 371 580 704 580 417 580 704 581 129 581 417 581 703 582 270 582 126 582 703 583 373 583 270 583 373 584 49 584 270 584 701 585 703 585 126 585 701 586 702 586 703 586 702 587 85 587 703 587 256 588 414 588 40 588 256 589 701 589 414 589 701 590 126 590 414 590 700 591 267 591 123 591 700 592 370 592 267 592 370 593 46 593 267 593 698 594 700 594 123 594 698 595 699 595 700 595 699 596 82 596 700 596 373 597 411 597 49 597 373 598 698 598 411 598 698 599 123 599 411 599 697 600 352 600 64 600 697 601 266 601 352 601 266 602 28 602 352 602 695 603 697 603 64 603 695 604 696 604 697 604 696 605 122 605 697 605 409 606 208 606 9 606 409 607 695 607 208 607 695 608 64 608 208 608 694 609 268 609 124 609 694 610 267 610 268 610 267 611 46 611 268 611 692 612 694 612 124 612 692 613 693 613 694 613 693 614 123 614 694 614 266 615 412 615 28 615 266 616 692 616 412 616 692 617 124 617 412 617 691 618 388 618 100 618 691 619 406 619 388 619 406 620 8 620 388 620 689 621 691 621 100 621 689 622 690 622 691 622 690 623 118 623 691 623 412 624 244 624 28 624 412 625 689 625 244 625 689 626 100 626 244 626 688 627 372 627 84 627 688 628 269 628 372 628 269 629 48 629 372 629 686 630 688 630 84 630 686 631 687 631 688 631 687 632 125 632 688 632 220 633 228 633 13 633 220 634 686 634 228 634 686 635 84 635 228 635 685 636 271 636 127 636 685 637 270 637 271 637 270 638 49 638 271 638 683 639 685 639 127 639 683 640 684 640 685 640 684 641 126 641 685 641 269 642 415 642 48 642 269 643 683 643 415 643 683 644 127 644 415 644 682 645 408 645 120 645 682 646 409 646 408 646 409 647 9 647 408 647 680 648 682 648 120 648 680 649 681 649 682 649 681 650 121 650 682 650 415 651 264 651 48 651 415 652 680 652 264 652 680 653 120 653 264 653 679 654 246 654 102 654 679 655 272 655 246 655 272 656 30 656 246 656 677 657 679 657 102 657 677 658 678 658 679 658 678 659 128 659 679 659 407 660 390 660 7 660 407 661 677 661 390 661 677 662 102 662 390 662 676 663 274 663 130 663 676 664 273 664 274 664 273 665 48 665 274 665 674 666 676 666 130 666 674 667 675 667 676 667 675 668 129 668 676 668 272 669 418 669 30 669 272 670 674 670 418 670 674 671 130 671 418 671 673 672 210 672 66 672 673 673 408 673 210 673 408 674 9 674 210 674 671 675 673 675 66 675 671 676 672 676 673 676 672 677 120 677 673 677 418 678 354 678 30 678 418 679 671 679 354 679 671 680 66 680 354 680 670 681 368 681 80 681 670 682 275 682 368 682 275 683 44 683 368 683 668 684 670 684 80 684 668 685 669 685 670 685 669 686 131 686 670 686 401 687 224 687 11 687 401 688 668 688 224 688 668 689 80 689 224 689 667 690 277 690 133 690 667 691 276 691 277 691 276 692 47 692 277 692 665 693 667 693 133 693 665 694 666 694 667 694 666 695 132 695 667 695 275 696 421 696 44 696 275 697 665 697 421 697 665 698 133 698 421 698 664 699 404 699 116 699 664 700 407 700 404 700 407 701 7 701 404 701 662 702 664 702 116 702 662 703 663 703 664 703 663 704 119 704 664 704 421 705 260 705 44 705 421 706 662 706 260 706 662 707 116 707 260 707 661 708 355 708 67 708 661 709 278 709 355 709 278 710 31 710 355 710 659 711 661 711 67 711 659 712 660 712 661 712 660 713 134 713 661 713 405 714 211 714 8 714 405 715 659 715 211 715 659 716 67 716 211 716 658 717 280 717 136 717 658 718 279 718 280 718 279 719 34 719 280 719 656 720 658 720 136 720 656 721 657 721 658 721 657 722 135 722 658 722 278 723 424 723 31 723 278 724 656 724 424 724 656 725 136 725 424 725 655 726 391 726 103 726 655 727 394 727 391 727 394 728 6 728 391 728 653 729 655 729 103 729 653 730 654 730 655 730 654 731 106 731 655 731 424 732 247 732 31 732 424 733 653 733 247 733 653 734 103 734 247 734 652 735 370 735 82 735 652 736 281 736 370 736 281 737 46 737 370 737 650 738 652 738 82 738 650 739 651 739 652 739 651 740 137 740 652 740 222 741 226 741 12 741 222 742 650 742 226 742 650 743 82 743 226 743 649 744 283 744 139 744 649 745 282 745 283 745 282 746 45 746 283 746 647 747 649 747 139 747 647 748 648 748 649 748 648 749 138 749 649 749 281 750 427 750 46 750 281 751 647 751 427 751 647 752 139 752 427 752 646 753 406 753 118 753 646 754 405 754 406 754 405 755 8 755 406 755 644 756 646 756 118 756 644 757 645 757 646 757 645 758 117 758 646 758 427 759 262 759 46 759 427 760 644 760 262 760 644 761 118 761 262 761 643 762 260 762 116 762 643 763 284 763 260 763 284 764 44 764 260 764 641 765 643 765 116 765 641 766 642 766 643 766 642 767 140 767 643 767 206 768 404 768 7 768 206 769 641 769 404 769 641 770 116 770 404 770 640 771 286 771 142 771 640 772 285 772 286 772 285 773 43 773 286 773 638 774 640 774 142 774 638 775 639 775 640 775 639 776 141 776 640 776 284 777 430 777 44 777 284 778 638 778 430 778 638 779 142 779 430 779 637 780 224 780 80 780 637 781 223 781 224 781 223 782 11 782 224 782 635 783 637 783 80 783 635 784 636 784 637 784 636 785 79 785 637 785 430 786 368 786 44 786 430 787 635 787 368 787 635 788 80 788 368 788 634 789 362 789 74 789 634 790 287 790 362 790 287 791 38 791 362 791 632 792 634 792 74 792 632 793 633 793 634 793 633 794 143 794 634 794 223 795 218 795 11 795 223 796 632 796 218 796 632 797 74 797 218 797 631 798 289 798 145 798 631 799 288 799 289 799 288 800 19 800 289 800 629 801 631 801 145 801 629 802 630 802 631 802 630 803 144 803 631 803 287 804 433 804 38 804 287 805 629 805 433 805 629 806 145 806 433 806 628 807 398 807 110 807 628 808 199 808 398 808 199 809 5 809 398 809 626 810 628 810 110 810 626 811 627 811 628 811 627 812 55 812 628 812 433 813 254 813 38 813 433 814 626 814 254 814 626 815 110 815 254 815 625 816 253 816 109 816 625 817 290 817 253 817 290 818 37 818 253 818 623 819 625 819 109 819 623 820 624 820 625 820 624 821 146 821 625 821 402 822 397 822 10 822 402 823 623 823 397 823 623 824 109 824 397 824 622 825 292 825 148 825 622 826 291 826 292 826 291 827 39 827 292 827 620 828 622 828 148 828 620 829 621 829 622 829 621 830 147 830 622 830 290 831 436 831 37 831 290 832 620 832 436 832 620 833 148 833 436 833 619 834 217 834 73 834 619 835 399 835 217 835 399 836 11 836 217 836 617 837 619 837 73 837 617 838 618 838 619 838 618 839 111 839 619 839 436 840 361 840 37 840 436 841 617 841 361 841 617 842 73 842 361 842 616 843 257 843 113 843 616 844 293 844 257 844 293 845 41 845 257 845 614 846 616 846 113 846 614 847 615 847 616 847 615 848 149 848 616 848 399 849 401 849 11 849 399 850 614 850 401 850 614 851 113 851 401 851 613 852 295 852 151 852 613 853 294 853 295 853 294 854 40 854 295 854 611 855 613 855 151 855 611 856 612 856 613 856 612 857 150 857 613 857 293 858 439 858 41 858 293 859 611 859 439 859 611 860 151 860 439 860 610 861 221 861 77 861 610 862 220 862 221 862 220 863 13 863 221 863 608 864 610 864 77 864 608 865 609 865 610 865 609 866 76 866 610 866 439 867 365 867 41 867 439 868 608 868 365 868 608 869 77 869 365 869 607 870 360 870 72 870 607 871 296 871 360 871 296 872 36 872 360 872 605 873 607 873 72 873 605 874 606 874 607 874 606 875 152 875 607 875 397 876 216 876 10 876 397 877 605 877 216 877 605 878 72 878 216 878 604 879 298 879 154 879 604 880 297 880 298 880 297 881 38 881 298 881 602 882 604 882 154 882 602 883 603 883 604 883 603 884 153 884 604 884 296 885 442 885 36 885 296 886 602 886 442 886 602 887 154 887 442 887 601 888 396 888 108 888 601 889 398 889 396 889 398 890 5 890 396 890 599 891 601 891 108 891 599 892 600 892 601 892 600 893 110 893 601 893 442 894 252 894 36 894 442 895 599 895 252 895 599 896 108 896 252 896 598 897 359 897 71 897 598 898 299 898 359 898 299 899 35 899 359 899 596 900 598 900 71 900 596 901 597 901 598 901 597 902 155 902 598 902 216 903 215 903 10 903 216 904 596 904 215 904 596 905 71 905 215 905 595 906 301 906 157 906 595 907 300 907 301 907 300 908 21 908 301 908 593 909 595 909 157 909 593 910 594 910 595 910 594 911 156 911 595 911 299 912 445 912 35 912 299 913 593 913 445 913 593 914 157 914 445 914 592 915 395 915 107 915 592 916 381 916 395 916 381 917 2 917 395 917 590 918 592 918 107 918 590 919 591 919 592 919 591 920 93 920 592 920 445 921 251 921 35 921 445 922 590 922 251 922 590 923 107 923 251 923 589 924 232 924 88 924 589 925 302 925 232 925 302 926 16 926 232 926 587 927 589 927 88 927 587 928 588 928 589 928 588 929 158 929 589 929 393 930 376 930 1 930 393 931 587 931 376 931 587 932 88 932 376 932 586 933 304 933 160 933 586 934 303 934 304 934 303 935 35 935 304 935 584 936 586 936 160 936 584 937 585 937 586 937 585 938 159 938 586 938 302 939 448 939 16 939 302 940 584 940 448 940 584 941 160 941 448 941 583 942 196 942 52 942 583 943 395 943 196 943 395 944 2 944 196 944 581 945 583 945 52 945 581 946 582 946 583 946 582 947 107 947 583 947 448 948 340 948 16 948 448 949 581 949 340 949 581 950 52 950 340 950 580 951 248 951 104 951 580 952 305 952 248 952 305 953 32 953 248 953 578 954 580 954 104 954 578 955 579 955 580 955 579 956 161 956 580 956 384 957 392 957 3 957 384 958 578 958 392 958 578 959 104 959 392 959 577 960 307 960 163 960 577 961 306 961 307 961 306 962 34 962 307 962 575 963 577 963 163 963 575 964 576 964 577 964 576 965 162 965 577 965 305 966 451 966 32 966 305 967 575 967 451 967 575 968 163 968 451 968 574 969 212 969 68 969 574 970 214 970 212 970 214 971 10 971 212 971 572 972 574 972 68 972 572 973 573 973 574 973 573 974 70 974 574 974 451 975 356 975 32 975 451 976 572 976 356 976 572 977 68 977 356 977 571 978 249 978 105 978 571 979 308 979 249 979 308 980 33 980 249 980 569 981 571 981 105 981 569 982 570 982 571 982 570 983 164 983 571 983 378 984 393 984 1 984 378 985 569 985 393 985 569 986 105 986 393 986 568 987 310 987 166 987 568 988 309 988 310 988 309 989 32 989 310 989 566 990 568 990 166 990 566 991 567 991 568 991 567 992 165 992 568 992 308 993 454 993 33 993 308 994 566 994 454 994 566 995 166 995 454 995 565 996 213 996 69 996 565 997 212 997 213 997 212 998 10 998 213 998 563 999 565 999 69 999 563 1000 564 1000 565 1000 564 1001 68 1001 565 1001 454 1002 357 1002 33 1002 454 1003 563 1003 357 1003 563 1004 69 1004 357 1004 562 1005 351 1005 63 1005 562 1006 311 1006 351 1006 311 1007 27 1007 351 1007 560 1008 562 1008 63 1008 560 1009 561 1009 562 1009 561 1010 167 1010 562 1010 389 1011 207 1011 7 1011 389 1012 560 1012 207 1012 560 1013 63 1013 207 1013 559 1014 313 1014 169 1014 559 1015 312 1015 313 1015 312 1016 31 1016 313 1016 557 1017 559 1017 169 1017 557 1018 558 1018 559 1018 558 1019 168 1019 559 1019 311 1020 457 1020 27 1020 311 1021 557 1021 457 1021 557 1022 169 1022 457 1022 556 1023 387 1023 99 1023 556 1024 391 1024 387 1024 391 1025 6 1025 387 1025 554 1026 556 1026 99 1026 554 1027 555 1027 556 1027 555 1028 103 1028 556 1028 457 1029 243 1029 27 1029 457 1030 554 1030 243 1030 554 1031 99 1031 243 1031 553 1032 354 1032 66 1032 553 1033 314 1033 354 1033 314 1034 30 1034 354 1034 551 1035 553 1035 66 1035 551 1036 552 1036 553 1036 552 1037 170 1037 553 1037 208 1038 210 1038 9 1038 208 1039 551 1039 210 1039 551 1040 66 1040 210 1040 550 1041 316 1041 172 1041 550 1042 315 1042 316 1042 315 1043 29 1043 316 1043 548 1044 550 1044 172 1044 548 1045 549 1045 550 1045 549 1046 171 1046 550 1046 314 1047 460 1047 30 1047 314 1048 548 1048 460 1048 548 1049 172 1049 460 1049 547 1050 390 1050 102 1050 547 1051 389 1051 390 1051 389 1052 7 1052 390 1052 545 1053 547 1053 102 1053 545 1054 546 1054 547 1054 546 1055 101 1055 547 1055 460 1056 246 1056 30 1056 460 1057 545 1057 246 1057 545 1058 102 1058 246 1058 544 1059 241 1059 97 1059 544 1060 317 1060 241 1060 317 1061 25 1061 241 1061 542 1062 544 1062 97 1062 542 1063 543 1063 544 1063 543 1064 173 1064 544 1064 386 1065 385 1065 4 1065 386 1066 542 1066 385 1066 542 1067 97 1067 385 1067 541 1068 319 1068 175 1068 541 1069 318 1069 319 1069 318 1070 27 1070 319 1070 539 1071 541 1071 175 1071 539 1072 540 1072 541 1072 540 1073 174 1073 541 1073 317 1074 463 1074 25 1074 317 1075 539 1075 463 1075 539 1076 175 1076 463 1076 538 1077 205 1077 61 1077 538 1078 387 1078 205 1078 387 1079 6 1079 205 1079 536 1080 538 1080 61 1080 536 1081 537 1081 538 1081 537 1082 99 1082 538 1082 463 1083 349 1083 25 1083 463 1084 536 1084 349 1084 536 1085 61 1085 349 1085 535 1086 239 1086 95 1086 535 1087 320 1087 239 1087 320 1088 23 1088 239 1088 533 1089 535 1089 95 1089 533 1090 534 1090 535 1090 534 1091 176 1091 535 1091 382 1092 383 1092 0 1092 382 1093 533 1093 383 1093 533 1094 95 1094 383 1094 532 1095 322 1095 178 1095 532 1096 321 1096 322 1096 321 1097 25 1097 322 1097 530 1098 532 1098 178 1098 530 1099 531 1099 532 1099 531 1100 177 1100 532 1100 320 1101 466 1101 23 1101 320 1102 530 1102 466 1102 530 1103 178 1103 466 1103 529 1104 203 1104 59 1104 529 1105 205 1105 203 1105 205 1106 6 1106 203 1106 527 1107 529 1107 59 1107 527 1108 528 1108 529 1108 528 1109 61 1109 529 1109 466 1110 347 1110 23 1110 466 1111 527 1111 347 1111 527 1112 59 1112 347 1112 526 1113 233 1113 89 1113 526 1114 323 1114 233 1114 323 1115 17 1115 233 1115 524 1116 526 1116 89 1116 524 1117 525 1117 526 1117 525 1118 179 1118 526 1118 383 1119 377 1119 0 1119 383 1120 524 1120 377 1120 524 1121 89 1121 377 1121 523 1122 325 1122 181 1122 523 1123 324 1123 325 1123 324 1124 24 1124 325 1124 521 1125 523 1125 181 1125 521 1126 522 1126 523 1126 522 1127 180 1127 523 1127 323 1128 469 1128 17 1128 323 1129 521 1129 469 1129 521 1130 181 1130 469 1130 520 1131 197 1131 53 1131 520 1132 384 1132 197 1132 384 1133 3 1133 197 1133 518 1134 520 1134 53 1134 518 1135 519 1135 520 1135 519 1136 96 1136 520 1136 469 1137 341 1137 17 1137 469 1138 518 1138 341 1138 518 1139 53 1139 341 1139 517 1140 338 1140 50 1140 517 1141 326 1141 338 1141 326 1142 14 1142 338 1142 515 1143 517 1143 50 1143 515 1144 516 1144 517 1144 516 1145 182 1145 517 1145 380 1146 194 1146 2 1146 380 1147 515 1147 194 1147 515 1148 50 1148 194 1148 514 1149 328 1149 184 1149 514 1150 327 1150 328 1150 327 1151 22 1151 328 1151 512 1152 514 1152 184 1152 512 1153 513 1153 514 1153 513 1154 183 1154 514 1154 326 1155 472 1155 14 1155 326 1156 512 1156 472 1156 512 1157 184 1157 472 1157 511 1158 374 1158 86 1158 511 1159 382 1159 374 1159 382 1160 0 1160 374 1160 509 1161 511 1161 86 1161 509 1162 510 1162 511 1162 510 1163 94 1163 511 1163 472 1164 230 1164 14 1164 472 1165 509 1165 230 1165 509 1166 86 1166 230 1166 508 1167 345 1167 57 1167 508 1168 329 1168 345 1168 329 1169 21 1169 345 1169 506 1170 508 1170 57 1170 506 1171 507 1171 508 1171 507 1172 185 1172 508 1172 199 1173 201 1173 5 1173 199 1174 506 1174 201 1174 506 1175 57 1175 201 1175 505 1176 331 1176 187 1176 505 1177 330 1177 331 1177 330 1178 20 1178 331 1178 503 1179 505 1179 187 1179 503 1180 504 1180 505 1180 504 1181 186 1181 505 1181 329 1182 475 1182 21 1182 329 1183 503 1183 475 1183 503 1184 187 1184 475 1184 502 1185 381 1185 93 1185 502 1186 380 1186 381 1186 380 1187 2 1187 381 1187 500 1188 502 1188 93 1188 500 1189 501 1189 502 1189 501 1190 92 1190 502 1190 475 1191 237 1191 21 1191 475 1192 500 1192 237 1192 500 1193 93 1193 237 1193 499 1194 234 1194 90 1194 499 1195 332 1195 234 1195 332 1196 18 1196 234 1196 497 1197 499 1197 90 1197 497 1198 498 1198 499 1198 498 1199 188 1199 499 1199 195 1200 378 1200 1 1200 195 1201 497 1201 378 1201 497 1202 90 1202 378 1202 496 1203 334 1203 190 1203 496 1204 333 1204 334 1204 333 1205 17 1205 334 1205 494 1206 496 1206 190 1206 494 1207 495 1207 496 1207 495 1208 189 1208 496 1208 332 1209 478 1209 18 1209 332 1210 494 1210 478 1210 494 1211 190 1211 478 1211 493 1212 198 1212 54 1212 493 1213 197 1213 198 1213 197 1214 3 1214 198 1214 491 1215 493 1215 54 1215 491 1216 492 1216 493 1216 492 1217 53 1217 493 1217 478 1218 342 1218 18 1218 478 1219 491 1219 342 1219 491 1220 54 1220 342 1220 490 1221 340 1221 52 1221 490 1222 335 1222 340 1222 335 1223 16 1223 340 1223 488 1224 490 1224 52 1224 488 1225 489 1225 490 1225 489 1226 191 1226 490 1226 194 1227 196 1227 2 1227 194 1228 488 1228 196 1228 488 1229 52 1229 196 1229 487 1230 337 1230 193 1230 487 1231 336 1231 337 1231 336 1232 15 1232 337 1232 485 1233 487 1233 193 1233 485 1234 486 1234 487 1234 486 1235 192 1235 487 1235 335 1236 481 1236 16 1236 335 1237 485 1237 481 1237 485 1238 193 1238 481 1238 484 1239 376 1239 88 1239 484 1240 195 1240 376 1240 195 1241 1 1241 376 1241 482 1242 484 1242 88 1242 482 1243 483 1243 484 1243 483 1244 51 1244 484 1244 481 1245 232 1245 16 1245 481 1246 482 1246 232 1246 482 1247 88 1247 232 1247 337 1248 483 1248 193 1248 337 1249 339 1249 483 1249 339 1250 51 1250 483 1250 479 1251 486 1251 191 1251 479 1252 480 1252 486 1252 480 1253 192 1253 486 1253 338 1254 489 1254 50 1254 338 1255 479 1255 489 1255 479 1256 191 1256 489 1256 334 1257 492 1257 190 1257 334 1258 341 1258 492 1258 341 1259 53 1259 492 1259 476 1260 495 1260 188 1260 476 1261 477 1261 495 1261 477 1262 189 1262 495 1262 339 1263 498 1263 51 1263 339 1264 476 1264 498 1264 476 1265 188 1265 498 1265 331 1266 501 1266 187 1266 331 1267 236 1267 501 1267 236 1268 92 1268 501 1268 473 1269 504 1269 185 1269 473 1270 474 1270 504 1270 474 1271 186 1271 504 1271 343 1272 507 1272 55 1272 343 1273 473 1273 507 1273 473 1274 185 1274 507 1274 328 1275 510 1275 184 1275 328 1276 238 1276 510 1276 238 1277 94 1277 510 1277 470 1278 513 1278 182 1278 470 1279 471 1279 513 1279 471 1280 183 1280 513 1280 236 1281 516 1281 92 1281 236 1282 470 1282 516 1282 470 1283 182 1283 516 1283 325 1284 519 1284 181 1284 325 1285 240 1285 519 1285 240 1286 96 1286 519 1286 467 1287 522 1287 179 1287 467 1288 468 1288 522 1288 468 1289 180 1289 522 1289 239 1290 525 1290 95 1290 239 1291 467 1291 525 1291 467 1292 179 1292 525 1292 322 1293 528 1293 178 1293 322 1294 349 1294 528 1294 349 1295 61 1295 528 1295 464 1296 531 1296 176 1296 464 1297 465 1297 531 1297 465 1298 177 1298 531 1298 238 1299 534 1299 94 1299 238 1300 464 1300 534 1300 464 1301 176 1301 534 1301 319 1302 537 1302 175 1302 319 1303 243 1303 537 1303 243 1304 99 1304 537 1304 461 1305 540 1305 173 1305 461 1306 462 1306 540 1306 462 1307 174 1307 540 1307 242 1308 543 1308 98 1308 242 1309 461 1309 543 1309 461 1310 173 1310 543 1310 316 1311 546 1311 172 1311 316 1312 245 1312 546 1312 245 1313 101 1313 546 1313 458 1314 549 1314 170 1314 458 1315 459 1315 549 1315 459 1316 171 1316 549 1316 352 1317 552 1317 64 1317 352 1318 458 1318 552 1318 458 1319 170 1319 552 1319 313 1320 555 1320 169 1320 313 1321 247 1321 555 1321 247 1322 103 1322 555 1322 455 1323 558 1323 167 1323 455 1324 456 1324 558 1324 456 1325 168 1325 558 1325 245 1326 561 1326 101 1326 245 1327 455 1327 561 1327 455 1328 167 1328 561 1328 310 1329 564 1329 166 1329 310 1330 356 1330 564 1330 356 1331 68 1331 564 1331 452 1332 567 1332 164 1332 452 1333 453 1333 567 1333 453 1334 165 1334 567 1334 234 1335 570 1335 90 1335 234 1336 452 1336 570 1336 452 1337 164 1337 570 1337 307 1338 573 1338 163 1338 307 1339 358 1339 573 1339 358 1340 70 1340 573 1340 449 1341 576 1341 161 1341 449 1342 450 1342 576 1342 450 1343 162 1343 576 1343 240 1344 579 1344 96 1344 240 1345 449 1345 579 1345 449 1346 161 1346 579 1346 304 1347 582 1347 160 1347 304 1348 251 1348 582 1348 251 1349 107 1349 582 1349 446 1350 585 1350 158 1350 446 1351 447 1351 585 1351 447 1352 159 1352 585 1352 249 1353 588 1353 105 1353 249 1354 446 1354 588 1354 446 1355 158 1355 588 1355 301 1356 591 1356 157 1356 301 1357 237 1357 591 1357 237 1358 93 1358 591 1358 443 1359 594 1359 155 1359 443 1360 444 1360 594 1360 444 1361 156 1361 594 1361 360 1362 597 1362 72 1362 360 1363 443 1363 597 1363 443 1364 155 1364 597 1364 298 1365 600 1365 154 1365 298 1366 254 1366 600 1366 254 1367 110 1367 600 1367 440 1368 603 1368 152 1368 440 1369 441 1369 603 1369 441 1370 153 1370 603 1370 253 1371 606 1371 109 1371 253 1372 440 1372 606 1372 440 1373 152 1373 606 1373 295 1374 609 1374 151 1374 295 1375 364 1375 609 1375 364 1376 76 1376 609 1376 437 1377 612 1377 149 1377 437 1378 438 1378 612 1378 438 1379 150 1379 612 1379 255 1380 615 1380 111 1380 255 1381 437 1381 615 1381 437 1382 149 1382 615 1382 292 1383 618 1383 148 1383 292 1384 255 1384 618 1384 255 1385 111 1385 618 1385 434 1386 621 1386 146 1386 434 1387 435 1387 621 1387 435 1388 147 1388 621 1388 258 1389 624 1389 114 1389 258 1390 434 1390 624 1390 434 1391 146 1391 624 1391 289 1392 627 1392 145 1392 289 1393 343 1393 627 1393 343 1394 55 1394 627 1394 431 1395 630 1395 143 1395 431 1396 432 1396 630 1396 432 1397 144 1397 630 1397 367 1398 633 1398 79 1398 367 1399 431 1399 633 1399 431 1400 143 1400 633 1400 286 1401 636 1401 142 1401 286 1402 367 1402 636 1402 367 1403 79 1403 636 1403 428 1404 639 1404 140 1404 428 1405 429 1405 639 1405 429 1406 141 1406 639 1406 350 1407 642 1407 62 1407 350 1408 428 1408 642 1408 428 1409 140 1409 642 1409 283 1410 645 1410 139 1410 283 1411 261 1411 645 1411 261 1412 117 1412 645 1412 425 1413 648 1413 137 1413 425 1414 426 1414 648 1414 426 1415 138 1415 648 1415 366 1416 651 1416 78 1416 366 1417 425 1417 651 1417 425 1418 137 1418 651 1418 280 1419 654 1419 136 1419 280 1420 250 1420 654 1420 250 1421 106 1421 654 1421 422 1422 657 1422 134 1422 422 1423 423 1423 657 1423 423 1424 135 1424 657 1424 261 1425 660 1425 117 1425 261 1426 422 1426 660 1426 422 1427 134 1427 660 1427 277 1428 663 1428 133 1428 277 1429 263 1429 663 1429 263 1430 119 1430 663 1430 419 1431 666 1431 131 1431 419 1432 420 1432 666 1432 420 1433 132 1433 666 1433 257 1434 669 1434 113 1434 257 1435 419 1435 669 1435 419 1436 131 1436 669 1436 274 1437 672 1437 130 1437 274 1438 264 1438 672 1438 264 1439 120 1439 672 1439 416 1440 675 1440 128 1440 416 1441 417 1441 675 1441 417 1442 129 1442 675 1442 263 1443 678 1443 119 1443 263 1444 416 1444 678 1444 416 1445 128 1445 678 1445 271 1446 681 1446 127 1446 271 1447 265 1447 681 1447 265 1448 121 1448 681 1448 413 1449 684 1449 125 1449 413 1450 414 1450 684 1450 414 1451 126 1451 684 1451 364 1452 687 1452 76 1452 364 1453 413 1453 687 1453 413 1454 125 1454 687 1454 268 1455 690 1455 124 1455 268 1456 262 1456 690 1456 262 1457 118 1457 690 1457 410 1458 693 1458 122 1458 410 1459 411 1459 693 1459 411 1460 123 1460 693 1460 265 1461 696 1461 121 1461 265 1462 410 1462 696 1462 410 1463 122 1463 696 1463 229 1464 699 1464 85 1464 229 1465 226 1465 699 1465 226 1466 82 1466 699 1466 400 1467 702 1467 112 1467 400 1468 229 1468 702 1468 229 1469 85 1469 702 1469 227 1470 705 1470 83 1470 227 1471 228 1471 705 1471 228 1472 84 1472 705 1472 221 1473 708 1473 77 1473 221 1474 227 1474 708 1474 227 1475 83 1475 708 1475 225 1476 711 1476 81 1476 225 1477 214 1477 711 1477 214 1478 70 1478 711 1478 402 1479 714 1479 114 1479 402 1480 225 1480 714 1480 225 1481 81 1481 714 1481 386 1482 717 1482 98 1482 386 1483 403 1483 717 1483 403 1484 115 1484 717 1484 403 1485 720 1485 115 1485 403 1486 379 1486 720 1486 379 1487 91 1487 720 1487 222 1488 723 1488 78 1488 222 1489 219 1489 723 1489 219 1490 75 1490 723 1490 219 1491 726 1491 75 1491 219 1492 400 1492 726 1492 400 1493 112 1493 726 1493 217 1494 729 1494 73 1494 217 1495 218 1495 729 1495 218 1496 74 1496 729 1496 396 1497 732 1497 108 1497 396 1498 201 1498 732 1498 201 1499 57 1499 732 1499 213 1500 735 1500 69 1500 213 1501 215 1501 735 1501 215 1502 71 1502 735 1502 204 1503 738 1503 60 1503 204 1504 394 1504 738 1504 394 1505 106 1505 738 1505 198 1506 741 1506 54 1506 198 1507 392 1507 741 1507 392 1508 104 1508 741 1508 209 1509 744 1509 65 1509 209 1510 211 1510 744 1510 211 1511 67 1511 744 1511 388 1512 747 1512 100 1512 388 1513 209 1513 747 1513 209 1514 65 1514 747 1514 206 1515 750 1515 62 1515 206 1516 207 1516 750 1516 207 1517 63 1517 750 1517 202 1518 753 1518 58 1518 202 1519 385 1519 753 1519 385 1520 97 1520 753 1520 203 1521 756 1521 59 1521 203 1522 204 1522 756 1522 204 1523 60 1523 756 1523 200 1524 759 1524 56 1524 200 1525 202 1525 759 1525 202 1526 58 1526 759 1526 379 1527 762 1527 91 1527 379 1528 200 1528 762 1528 200 1529 56 1529 762 1529 375 1530 765 1530 87 1530 375 1531 377 1531 765 1531 377 1532 89 1532 765 1532 374 1533 768 1533 86 1533 374 1534 375 1534 768 1534 375 1535 87 1535 768 1535</p>
        </triangles>
      </mesh>
    </geometry>
  </library_geometries>
  <library_visual_scenes>
    <visual_scene id="Scene" name="Scene">
      <node id="wedge_with_plane" name="wedge_with_plane" type="NODE">
        <matrix sid="transform">1 0 0 0 0 0.001572326 -0.9999987 0 0 0.9999987 0.001572326 0 0 0 0 1</matrix>
        <instance_geometry url="#wedge_with_plane-mesh" name="wedge_with_plane"/>
      </node>
      <node id="Camera" name="Camera" type="NODE">
        <matrix sid="transform">0.6859207 -0.3240135 0.6515582 7.358891 0.7276763 0.3054208 -0.6141704 -6.925791 0 0.8953956 0.4452714 4.958309 0 0 0 1</matrix>
        <instance_camera url="#Camera-camera"/>
      </node>
      <node id="Light" name="Light" type="NODE">
        <matrix sid="transform">-0.2908646 -0.7711008 0.5663932 4.076245 0.9551712 -0.1998834 0.2183912 1.005454 -0.05518906 0.6045247 0.7946723 5.903862 0 0 0 1</matrix>
        <instance_light url="#Light-light"/>
      </node>
    </visual_scene>
  </library_visual_scenes>
  <scene>
    <instance_visual_scene url="#Scene"/>
  </scene>
</COLLADA>