<?xml version="1.0" encoding="utf-8"?>
<COLLADA xmlns="http://www.collada.org/2005/11/COLLADASchema" version="1.4.1" xmlns:xsi="http://www.w3.org/2001/XMLSchema-instance">
  <asset>
    <contributor>
      <author>Blender User</author>
      <authoring_tool>Blender 4.2.1 LTS commit date:2024-08-19, commit time:11:21, hash:396f546c9d82</authoring_tool>
    </contributor>
    <created>2024-08-29T11:39:30</created>
    <modified>2024-08-29T11:39:30</modified>
    <unit name="meter" meter="1"/>
    <up_axis>Z_UP</up_axis>
  </asset>
  <library_cameras>
    <camera id="Camera_002-camera" name="Camera.002">
      <optics>
        <technique_common>
          <perspective>
            <xfov sid="xfov">39.59775</xfov>
            <aspect_ratio>1.777778</aspect_ratio>
            <znear sid="znear">0.1</znear>
            <zfar sid="zfar">100</zfar>
          </perspective>
        </technique_common>
      </optics>
      <extra>
        <technique profile="blender">
          <shiftx sid="shiftx" type="float">0</shiftx>
          <shifty sid="shifty" type="float">0</shifty>
          <dof_distance sid="dof_distance" type="float">10</dof_distance>
        </technique>
      </extra>
    </camera>
    <camera id="Camera_001-camera" name="Camera.001">
      <optics>
        <technique_common>
          <perspective>
            <xfov sid="xfov">39.59775</xfov>
            <aspect_ratio>1.777778</aspect_ratio>
            <znear sid="znear">0.1</znear>
            <zfar sid="zfar">100</zfar>
          </perspective>
        </technique_common>
      </optics>
      <extra>
        <technique profile="blender">
          <shiftx sid="shiftx" type="float">0</shiftx>
          <shifty sid="shifty" type="float">0</shifty>
          <dof_distance sid="dof_distance" type="float">10</dof_distance>
        </technique>
      </extra>
    </camera>
    <camera id="Camera-camera" name="Camera">
      <optics>
        <technique_common>
          <perspective>
            <xfov sid="xfov">39.59775</xfov>
            <aspect_ratio>1.777778</aspect_ratio>
            <znear sid="znear">0.1</znear>
            <zfar sid="zfar">100</zfar>
          </perspective>
        </technique_common>
      </optics>
      <extra>
        <technique profile="blender">
          <shiftx sid="shiftx" type="float">0</shiftx>
          <shifty sid="shifty" type="float">0</shifty>
          <dof_distance sid="dof_distance" type="float">10</dof_distance>
        </technique>
      </extra>
    </camera>
  </library_cameras>
  <library_lights>
    <light id="Light_002-light" name="Light.002">
      <technique_common>
        <point>
          <color sid="color">1000 1000 1000</color>
          <constant_attenuation>1</constant_attenuation>
          <linear_attenuation>0</linear_attenuation>
          <quadratic_attenuation>0</quadratic_attenuation>
        </point>
      </technique_common>
      <extra>
        <technique profile="blender">
          <type sid="type" type="int">0</type>
          <flag sid="flag" type="int">0</flag>
          <mode sid="mode" type="int">2097153</mode>
          <red sid="red" type="float">1</red>
          <green sid="green" type="float">1</green>
          <blue sid="blue" type="float">1</blue>
          <shadow_r sid="blender_shadow_r" type="float">0</shadow_r>
          <shadow_g sid="blender_shadow_g" type="float">0</shadow_g>
          <shadow_b sid="blender_shadow_b" type="float">0</shadow_b>
          <energy sid="blender_energy" type="float">1000</energy>
          <spotsize sid="spotsize" type="float">75</spotsize>
          <spotblend sid="spotblend" type="float">0.15</spotblend>
          <clipsta sid="clipsta" type="float">0.04999995</clipsta>
          <clipend sid="clipend" type="float">30.002</clipend>
          <bias sid="bias" type="float">1</bias>
          <radius sid="radius" type="float">0.1</radius>
          <area_shape sid="area_shape" type="int">1</area_shape>
          <area_size sid="area_size" type="float">0.1</area_size>
          <area_sizey sid="area_sizey" type="float">0.1</area_sizey>
          <area_sizez sid="area_sizez" type="float">1</area_sizez>
        </technique>
      </extra>
    </light>
    <light id="Light_001-light" name="Light.001">
      <technique_common>
        <point>
          <color sid="color">1000 1000 1000</color>
          <constant_attenuation>1</constant_attenuation>
          <linear_attenuation>0</linear_attenuation>
          <quadratic_attenuation>0</quadratic_attenuation>
        </point>
      </technique_common>
      <extra>
        <technique profile="blender">
          <type sid="type" type="int">0</type>
          <flag sid="flag" type="int">0</flag>
          <mode sid="mode" type="int">2097153</mode>
          <red sid="red" type="float">1</red>
          <green sid="green" type="float">1</green>
          <blue sid="blue" type="float">1</blue>
          <shadow_r sid="blender_shadow_r" type="float">0</shadow_r>
          <shadow_g sid="blender_shadow_g" type="float">0</shadow_g>
          <shadow_b sid="blender_shadow_b" type="float">0</shadow_b>
          <energy sid="blender_energy" type="float">1000</energy>
          <spotsize sid="spotsize" type="float">75</spotsize>
          <spotblend sid="spotblend" type="float">0.15</spotblend>
          <clipsta sid="clipsta" type="float">0.04999995</clipsta>
          <clipend sid="clipend" type="float">30.002</clipend>
          <bias sid="bias" type="float">1</bias>
          <radius sid="radius" type="float">0.1</radius>
          <area_shape sid="area_shape" type="int">1</area_shape>
          <area_size sid="area_size" type="float">0.1</area_size>
          <area_sizey sid="area_sizey" type="float">0.1</area_sizey>
          <area_sizez sid="area_sizez" type="float">1</area_sizez>
        </technique>
      </extra>
    </light>
    <light id="Light-light" name="Light">
      <technique_common>
        <point>
          <color sid="color">1000 1000 1000</color>
          <constant_attenuation>1</constant_attenuation>
          <linear_attenuation>0</linear_attenuation>
          <quadratic_attenuation>0</quadratic_attenuation>
        </point>
      </technique_common>
      <extra>
        <technique profile="blender">
          <type sid="type" type="int">0</type>
          <flag sid="flag" type="int">0</flag>
          <mode sid="mode" type="int">2097153</mode>
          <red sid="red" type="float">1</red>
          <green sid="green" type="float">1</green>
          <blue sid="blue" type="float">1</blue>
          <shadow_r sid="blender_shadow_r" type="float">0</shadow_r>
          <shadow_g sid="blender_shadow_g" type="float">0</shadow_g>
          <shadow_b sid="blender_shadow_b" type="float">0</shadow_b>
          <energy sid="blender_energy" type="float">1000</energy>
          <spotsize sid="spotsize" type="float">75</spotsize>
          <spotblend sid="spotblend" type="float">0.15</spotblend>
          <clipsta sid="clipsta" type="float">0.04999995</clipsta>
          <clipend sid="clipend" type="float">30.002</clipend>
          <bias sid="bias" type="float">1</bias>
          <radius sid="radius" type="float">0.1</radius>
          <area_shape sid="area_shape" type="int">1</area_shape>
          <area_size sid="area_size" type="float">0.1</area_size>
          <area_sizey sid="area_sizey" type="float">0.1</area_sizey>
          <area_sizez sid="area_sizez" type="float">1</area_sizez>
        </technique>
      </extra>
    </light>
  </library_lights>
  <library_effects>
    <effect id="Material_001-effect">
      <profile_COMMON>
        <technique sid="common">
          <lambert>
            <emission>
              <color sid="emission">0 0 0 1</color>
            </emission>
            <diffuse>
              <color sid="diffuse">0.8 0.8 0.8 1</color>
            </diffuse>
            <index_of_refraction>
              <float sid="ior">1.45</float>
            </index_of_refraction>
          </lambert>
        </technique>
      </profile_COMMON>
    </effect>
  </library_effects>
  <library_images/>
  <library_materials>
    <material id="Material_001-material" name="Material.001">
      <instance_effect url="#Material_001-effect"/>
    </material>
  </library_materials>
  <library_geometries>
    <geometry id="Cube_001-mesh" name="Cube.001">
      <mesh>
        <source id="Cube_001-mesh-positions">
          <float_array id="Cube_001-mesh-positions-array" count="516">0.9968352 -0.9855493 1.043456 1 1 -1 1 -1 -1 -1.003165 -0.9855493 1.043456 -1 1 -1 -1.275447 1.596517 0.1225379 -1 -1 -1 -1.001582 0.007225334 0.02172791 0 1 -1 0.9984176 0.007225334 0.02172791 -0.001582503 0.007225334 0.02172803 -0.003164887 -0.9855493 1.043456 -1.000791 0.5036126 -0.489136 -0.5 1 -1 0.9992088 0.5036126 -0.489136 -0.5023738 -0.489162 0.532592 -0.503165 -0.9855493 1.043456 -1.002374 -0.489162 0.5325919 0.5 1 -1 0.9976264 -0.489162 0.5325919 0.4992088 0.5036126 -0.489136 0.4968352 -0.9855493 1.043456 0.4984176 0.007225334 0.02172797 -0.002373695 -0.489162 0.532592 0.4976264 -0.489162 0.5325919 -0.5007913 0.5036126 -0.489136 -0.5015825 0.007225334 0.02172797 -7.91252e-4 0.5036126 -0.489136 -1.000527 0.6690751 -0.6594241 -1.000264 0.8345376 -0.829712 -0.6666667 1 -1 -0.8333334 1 -1 0.9994726 0.6690751 -0.6594241 0.9997363 0.8345376 -0.829712 -0.6693042 -0.6546245 0.70288 -0.8362346 -0.8200869 0.873168 -0.6698316 -0.9855493 1.043456 -0.8364983 -0.9855493 1.043456 -1.00211 -0.3236995 0.3623039 -1.001846 -0.158237 0.1920159 0.3333333 1 -1 0.1666666 1 -1 0.9978902 -0.3236995 0.3623039 0.9981539 -0.158237 0.1920159 0.3322783 0.3381502 -0.318848 0.1653479 0.1726877 -0.1485599 0.3301685 -0.9855493 1.043456 0.1635017 -0.9855493 1.043456 0.6650843 0.007225334 0.02172791 0.8317509 0.007225334 0.02172791 -0.002637386 -0.6546245 0.70288 -0.002901136 -0.8200869 0.873168 0.3306959 -0.6546245 0.70288 0.1637655 -0.8200869 0.873168 -0.3338608 0.6690751 -0.6594241 -0.1669304 0.8345376 -0.829712 -0.3349158 0.007225334 0.02172797 -0.1682491 0.007225334 0.02172797 -0.001055002 0.3381502 -0.318848 -0.001318752 0.1726877 -0.1485599 -1.001319 0.1726877 -0.1485601 -1.001055 0.3381502 -0.3188481 -0.1666666 1 -1 -0.3333333 1 -1 0.9986814 0.1726877 -0.1485601 0.9989451 0.3381502 -0.3188481 -0.1685129 -0.1582371 0.192016 -0.3354433 -0.3236995 0.362304 -0.1698315 -0.9855493 1.043456 -0.3364983 -0.9855493 1.043456 -1.002901 -0.8200869 0.8731679 -1.002637 -0.6546245 0.7028799 0.8333333 1 -1 0.6666666 1 -1 0.997099 -0.8200869 0.8731679 0.9973627 -0.6546245 0.7028799 0.8330696 0.8345375 -0.829712 0.6661391 0.6690751 -0.659424 0.8301686 -0.9855493 1.043456 0.6635019 -0.9855493 1.043456 0.1650841 0.007225334 0.02172797 0.3317509 0.007225334 0.02172797 -0.001846194 -0.1582371 0.192016 -0.002109944 -0.3236995 0.362304 0.8314872 -0.1582371 0.1920159 0.6645568 -0.3236995 0.3623039 -0.8346521 0.1726877 -0.1485601 -0.6677216 0.3381502 -0.3188481 -0.8349158 0.007225334 0.02172791 -0.6682491 0.007225334 0.02172791 -2.63751e-4 0.8345375 -0.829712 -5.27501e-4 0.6690751 -0.659424 0.1661391 0.6690751 -0.659424 0.3330696 0.8345376 -0.829712 0.1658754 0.5036126 -0.489136 0.3325421 0.5036126 -0.489136 0.4997363 0.8345375 -0.829712 0.4994725 0.6690751 -0.659424 -0.3341246 0.5036126 -0.489136 -0.1674579 0.5036126 -0.489136 -0.501055 0.3381502 -0.318848 -0.5013188 0.1726877 -0.14856 -0.1677216 0.3381502 -0.318848 -0.3346521 0.1726877 -0.14856 -0.8338609 0.6690751 -0.6594241 -0.6669304 0.8345376 -0.829712 -0.8341246 0.5036126 -0.489136 -0.6674579 0.5036126 -0.489136 -0.5002638 0.8345375 -0.829712 -0.5005275 0.6690751 -0.6594241 0.6642931 -0.489162 0.5325919 0.8309597 -0.489162 0.5325919 0.4973626 -0.6546245 0.70288 0.4970989 -0.8200869 0.873168 0.830696 -0.6546245 0.70288 0.6637656 -0.8200869 0.873168 0.4981538 -0.1582371 0.192016 0.4978901 -0.3236995 0.362304 0.3314871 -0.1582371 0.192016 0.1645567 -0.3236995 0.362304 0.3309597 -0.489162 0.5325919 0.1642929 -0.489162 0.5325919 0.6658754 0.5036126 -0.489136 0.8325421 0.5036126 -0.489136 0.498945 0.3381502 -0.318848 0.4986813 0.1726877 -0.14856 0.8322784 0.3381502 -0.318848 0.6653479 0.1726877 -0.14856 -0.3357071 -0.489162 0.532592 -0.1690403 -0.489162 0.532592 -0.5026375 -0.6546245 0.70288 -0.5029012 -0.8200869 0.873168 -0.1693041 -0.6546245 0.70288 -0.3362345 -0.8200869 0.873168 -0.8354433 -0.3236995 0.3623039 -0.6685129 -0.158237 0.192016 -0.8357071 -0.489162 0.5325919 -0.6690405 -0.489162 0.5325919 -0.5018463 -0.1582371 0.192016 -0.50211 -0.3236995 0.362304 -0.3351796 -0.158237 0.192016 -0.6687766 -0.3236995 0.362304 -0.8351796 -0.158237 0.1920159 -0.1695678 -0.8200869 0.873168 -0.3359708 -0.6546245 0.70288 -0.1687766 -0.3236995 0.362304 0.8320147 0.1726877 -0.14856 0.6656117 0.3381502 -0.318848 0.8328059 0.6690751 -0.659424 0.1640293 -0.6546245 0.70288 0.3312234 -0.3236995 0.362304 0.6648205 -0.158237 0.1920159 0.8304323 -0.8200869 0.873168 0.6640293 -0.6546245 0.70288 0.8312235 -0.3236995 0.3623039 -0.3335971 0.8345375 -0.829712 -0.6671942 0.6690751 -0.6594241 -0.8335971 0.8345376 -0.829712 -0.1679854 0.1726877 -0.1485599 -0.3343883 0.3381502 -0.318848 -0.1671941 0.6690751 -0.659424 0.6664029 0.8345375 -0.829712 0.3328058 0.6690751 -0.659424 0.1664029 0.8345375 -0.829712 0.1656116 0.3381502 -0.318848 -0.6679854 0.1726877 -0.14856 -0.8343884 0.3381502 -0.3188481 0.3304322 -0.8200869 0.873168 0.1648204 -0.158237 0.192016 0.3320146 0.1726877 -0.1485599 -0.6695679 -0.8200869 0.873168 -0.8359708 -0.6546245 0.7028799</float_array>
          <technique_common>
            <accessor source="#Cube_001-mesh-positions-array" count="172" stride="3">
              <param name="X" type="float"/>
              <param name="Y" type="float"/>
              <param name="Z" type="float"/>
            </accessor>
          </technique_common>
        </source>
        <source id="Cube_001-mesh-normals">
          <float_array id="Cube_001-mesh-normals-array" count="411">0.5773944 -0.5794961 -0.5751522 -0.5474249 -0.3120036 0.7765177 -0.576422 -0.5797231 -0.5758984 -0.707484 0.5074105 0.4919359 -0.7074841 0.5074106 0.4919359 0 0.9211109 -0.3893002 0.7067209 0.5068631 0.4935944 0.7067208 0.5068631 0.4935945 0 0.7171958 0.6968718 -0.707484 0.5074108 0.4919357 0 -0.3727441 0.9279342 0 -0.372744 0.9279342 0.5475783 0.7707578 -0.3257154 0 -0.3727441 0.9279343 0 0.7171956 0.696872 0 0.7171956 0.696872 0 0.7171955 0.696872 0 0.7171956 0.6968719 0 0.7171956 0.6968719 0 0.7171955 0.696872 0 0.7171958 0.6968718 0 0.7171956 0.696872 0 0.7171956 0.696872 -2.64384e-7 0.7171956 0.6968719 0 0.7171956 0.696872 0 0.7171956 0.696872 0 0.7171955 0.696872 0 0.7171955 0.696872 1.51618e-7 0.7171956 0.6968719 0 0.7171956 0.6968719 0 0.7171956 0.6968719 -1.90806e-7 0.7171956 0.6968719 0 0.7171955 0.6968721 0 0.7171955 0.6968721 0 0.7171956 0.6968719 0 0.7171957 0.6968718 -0.7074841 0.5074106 0.4919357 0 0.7171955 0.6968721 -0.7074841 0.5074105 0.4919357 0 0.7171955 0.6968721 0 0.7171956 0.6968719 0 0.7171956 0.6968719 0 0.7171955 0.6968721 0 0.7171957 0.6968718 0 -0.3727439 0.9279344 0 0.7171956 0.696872 0 0.7171955 0.696872 1.33577e-7 0.7171956 0.6968719 0 0.7171956 0.6968719 0 0.7171956 0.6968719 0 0.7171956 0.6968719 0 0.7171956 0.696872 1.30862e-7 0.7171955 0.6968721 0 0.7171956 0.6968719 0 0.7171955 0.696872 -1.30861e-7 0.7171958 0.6968718 0 0.7171955 0.696872 0 0.7171955 0.6968721 0 0.7171954 0.6968721 0 -0.3727441 0.9279342 -0.7074841 0.5074103 0.4919361 0 0.7171955 0.6968721 -0.7074842 0.5074102 0.4919362 -1.6382e-7 0.7171955 0.6968721 0 0.7171957 0.6968719 0 0.7171956 0.6968719 0 0.7171956 0.6968719 0 0.7171956 0.6968719 -1.84366e-7 0.7171958 0.6968718 0 0.7171955 0.6968721 0 0.7171956 0.6968719 -0.7074841 0.5074105 0.4919359 0 0.7171958 0.6968718 0 0.7171956 0.6968719 0 0.7171955 0.6968721 1.4124e-7 0.7171955 0.6968721 0 0.7171955 0.6968721 0.7067209 0.5068631 0.4935944 0.7067209 0.5068631 0.4935945 0 0.7171955 0.6968721 0 0.7171955 0.6968721 0 0.7171955 0.6968721 0 0.7171955 0.696872 0 0.7171955 0.696872 -1.30862e-7 0.7171956 0.6968719 0.7067209 0.5068632 0.4935942 0 0.7171955 0.6968721 0.706721 0.506863 0.4935945 0 0.7171956 0.696872 0 0.7171954 0.6968721 1.41174e-7 0.7171955 0.696872 0 0.7171955 0.696872 0 0.7171956 0.6968719 0 0.7171955 0.6968721 0.706721 0.5068629 0.4935944 0.7067208 0.5068634 0.4935943 0.7067207 0.5068635 0.4935942 0.5460718 -0.3122429 0.7773738 0.7067207 0.5068634 0.4935942 0 0.7171955 0.6968721 0 0.9211109 -0.3893003 0 0.7171956 0.6968719 0 0.7171956 0.6968719 0 0.7171955 0.6968721 -0.707484 0.5074105 0.4919361 0 0.9211109 -0.3893005 -0.5470204 0.7710438 -0.3259758 0 0.9211109 -0.3893002 0 0.7171956 0.6968719 0 0.7171956 0.6968719 -1.32059e-7 0.7171956 0.6968719 0 0.7171955 0.6968721 0 0.7171956 0.696872 0 0.7171957 0.6968718 0 0.7171956 0.6968719 0 0.7171956 0.696872 0 0.7171957 0.6968718 0 0.9211108 -0.3893005 0 0.921111 -0.3893002 0 0.9211109 -0.3893004 0 0.7171956 0.6968719 0 0.7171956 0.696872 0 0.7171956 0.696872 0 0.7171957 0.6968719 0 0.9211111 -0.3893002 0 0.7171956 0.6968719 0 0.7171956 0.6968719 0 0.7171956 0.6968719 -0.707484 0.5074105 0.4919361 0 -0.372744 0.9279342 0 0.7171955 0.696872 0 0.7171956 0.696872 1.22862e-7 0.7171955 0.6968721 0 0.7171955 0.6968721 0 -0.3727442 0.9279342 -0.7074839 0.5074105 0.4919361 0 0.7171956 0.696872</float_array>
          <technique_common>
            <accessor source="#Cube_001-mesh-normals-array" count="137" stride="3">
              <param name="X" type="float"/>
              <param name="Y" type="float"/>
              <param name="Z" type="float"/>
            </accessor>
          </technique_common>
        </source>
        <source id="Cube_001-mesh-map-0">
          <float_array id="Cube_001-mesh-map-0-array" count="2028">0.375 0.75 0.625 1 0.375 1 0.375 0 0.5 0.25 0.4791666 0.25 0.125 0.75 0.2291666 0.5 0.25 0.5 0.4791666 0.6041666 0.5 0.625 0.375 0.75 0.625 0.25 0.6041666 0.2708333 0.6041666 0.25 0.375 0.75 0.625 0.875 0.625 0.8958333 0.375 0.5 0.375 0.75 0.125 0.75 0.625 0.25 0.625 0.2708333 0.6041666 0.2708333 0.5 0.375 0.5 0.3958333 0.4791666 0.3958333 0.5 0.375 0.5208333 0.375 0.5 0.3958333 0.625 0.375 0.625 0.3958333 0.6041666 0.3958333 0.5 0.25 0.4791666 0.2708333 0.4791666 0.25 0.5 0.25 0.5 0.2708333 0.4791666 0.2708333 0.5 0.375 0.4791666 0.3958333 0.4791666 0.375 0.4375 0.375 0.4166667 0.3958333 0.4166667 0.375 0.4375 0.375 0.4375 0.3958333 0.4166667 0.3958333 0.4375 0.4375 0.4166667 0.4583333 0.4166667 0.4375 0.4375 0.3125 0.4375 0.3333333 0.4166667 0.3333333 0.4375 0.3125 0.4583333 0.3125 0.4375 0.3333333 0.5 0.3125 0.5 0.3333333 0.4791666 0.3333333 0.4375 0.25 0.4166667 0.2708333 0.4166667 0.25 0.4375 0.25 0.4375 0.2708333 0.4166667 0.2708333 0.4375 0.3125 0.4166667 0.3333333 0.4166667 0.3125 0.5625 0.4375 0.5625 0.4583333 0.5416666 0.4583333 0.5625 0.4375 0.5833333 0.4375 0.5625 0.4583333 0.625 0.4375 0.625 0.4583333 0.6041666 0.4583333 0.5 0.4375 0.5208333 0.4375 0.5 0.4583333 0.5 0.4375 0.5208333 0.4166666 0.5208333 0.4375 0.5625 0.375 0.5833333 0.375 0.5625 0.3958333 0.4375 0.4375 0.4375 0.4583333 0.4166667 0.4583333 0.4375 0.4375 0.4583333 0.4375 0.4375 0.4583333 0.5 0.4375 0.5 0.4583333 0.4791666 0.4583333 0.5625 0.3125 0.5625 0.3333333 0.5416666 0.3333333 0.5625 0.3125 0.5833333 0.3125 0.5625 0.3333333 0.625 0.3125 0.625 0.3333333 0.6041666 0.3333333 0.5625 0.25 0.5416666 0.2708333 0.5416666 0.25 0.5625 0.25 0.5625 0.2708333 0.5416666 0.2708333 0.5625 0.3125 0.5416666 0.3333333 0.5416666 0.3125 0.5208333 0.3125 0.5 0.3333333 0.5 0.3125 0.5416666 0.3125 0.5208333 0.3333333 0.5208333 0.3125 0.5208333 0.3125 0.5208333 0.3333333 0.5 0.3333333 0.5208333 0.3333333 0.5 0.3541666 0.5 0.3333333 0.5416666 0.3125 0.5416666 0.3333333 0.5208333 0.3333333 0.5416666 0.3333333 0.5208333 0.3541666 0.5208333 0.3333333 0.5208333 0.3333333 0.5208333 0.3541666 0.5 0.3541666 0.5208333 0.3541666 0.5 0.375 0.5 0.3541666 0.5208333 0.2916666 0.5208333 0.3125 0.5 0.3125 0.5416666 0.2708333 0.5416666 0.2916666 0.5208333 0.2916666 0.5208333 0.2916666 0.5416666 0.2916666 0.5208333 0.3125 0.5416666 0.2916666 0.5416666 0.3125 0.5208333 0.3125 0.5416666 0.2708333 0.5625 0.2708333 0.5416666 0.2916666 0.5625 0.2708333 0.5625 0.2916666 0.5416666 0.2916666 0.5416666 0.2916666 0.5625 0.2916666 0.5416666 0.3125 0.5625 0.2916666 0.5625 0.3125 0.5416666 0.3125 0.5208333 0.25 0.5 0.2708333 0.5 0.25 0.5416666 0.25 0.5208333 0.2708333 0.5208333 0.25 0.5208333 0.25 0.5208333 0.2708333 0.5 0.2708333 0.5208333 0.2708333 0.5 0.2916666 0.5 0.2708333 0.5416666 0.25 0.5416666 0.2708333 0.5208333 0.2708333 0.5416666 0.2708333 0.5208333 0.2916666 0.5208333 0.2708333 0.5208333 0.2708333 0.5208333 0.2916666 0.5 0.2916666 0.5208333 0.2916666 0.5 0.3125 0.5 0.2916666 0.5833333 0.3541666 0.5833333 0.375 0.5625 0.375 0.6041666 0.3333333 0.6041666 0.3541666 0.5833333 0.3541666 0.5833333 0.3541666 0.6041666 0.3541666 0.5833333 0.375 0.6041666 0.3541666 0.6041666 0.375 0.5833333 0.375 0.6041666 0.3333333 0.625 0.3333333 0.6041666 0.3541666 0.625 0.3333333 0.625 0.3541666 0.6041666 0.3541666 0.6041666 0.3541666 0.625 0.3541666 0.6041666 0.375 0.625 0.3541666 0.625 0.375 0.6041666 0.375 0.5625 0.3541666 0.5833333 0.3541666 0.5625 0.375 0.5625 0.3333333 0.5833333 0.3333333 0.5625 0.3541666 0.5625 0.3541666 0.5833333 0.3333333 0.5833333 0.3541666 0.5833333 0.3333333 0.6041666 0.3333333 0.5833333 0.3541666 0.5625 0.3333333 0.5833333 0.3125 0.5833333 0.3333333 0.5833333 0.3125 0.6041666 0.3125 0.5833333 0.3333333 0.5833333 0.3333333 0.6041666 0.3125 0.6041666 0.3333333 0.6041666 0.3125 0.625 0.3125 0.6041666 0.3333333 0.5208333 0.3541666 0.5208333 0.375 0.5 0.375 0.5416666 0.3333333 0.5416666 0.3541666 0.5208333 0.3541666 0.5208333 0.3541666 0.5416666 0.3541666 0.5208333 0.375 0.5416666 0.3541666 0.5416666 0.375 0.5208333 0.375 0.5416666 0.3333333 0.5625 0.3333333 0.5416666 0.3541666 0.5625 0.3333333 0.5625 0.3541666 0.5416666 0.3541666 0.5416666 0.3541666 0.5625 0.3541666 0.5416666 0.375 0.5625 0.3541666 0.5625 0.375 0.5416666 0.375 0.4583333 0.4791666 0.4583333 0.5 0.4375 0.5 0.4791666 0.4583333 0.4791666 0.4791666 0.4583333 0.4791666 0.4583333 0.4791666 0.4791666 0.4791666 0.4583333 0.5 0.4791666 0.4791666 0.4791666 0.5 0.4583333 0.5 0.4791666 0.4583333 0.5 0.4583333 0.4791666 0.4791666 0.5 0.4583333 0.5 0.4791666 0.4791666 0.4791666 0.4791666 0.4791666 0.5 0.4791666 0.4791666 0.5 0.5 0.4791666 0.5 0.5 0.4791666 0.5 0.4375 0.4791666 0.4583333 0.4791666 0.4375 0.5 0.4375 0.4583333 0.4583333 0.4583333 0.4375 0.4791666 0.4375 0.4791666 0.4583333 0.4583333 0.4583333 0.4791666 0.4583333 0.4583333 0.4791666 0.4583333 0.4583333 0.4791666 0.4375 0.4583333 0.4583333 0.4375 0.4583333 0.4583333 0.4583333 0.4375 0.4791666 0.4375 0.4583333 0.4583333 0.4583333 0.4583333 0.4791666 0.4375 0.4791666 0.4583333 0.4791666 0.4375 0.5 0.4375 0.4791666 0.4583333 0.3958333 0.4791666 0.3958334 0.5 0.375 0.5 0.4166667 0.4583333 0.4166667 0.4791666 0.3958333 0.4791666 0.3958333 0.4791666 0.4166667 0.4791666 0.3958334 0.5 0.4166667 0.4791666 0.4166667 0.5 0.3958334 0.5 0.4166667 0.4583333 0.4375 0.4583333 0.4166667 0.4791666 0.4375 0.4583333 0.4375 0.4791666 0.4166667 0.4791666 0.4166667 0.4791666 0.4375 0.4791666 0.4166667 0.5 0.4375 0.4791666 0.4375 0.5 0.4166667 0.5 0.5625 0.4166666 0.5833333 0.4166666 0.5625 0.4375 0.5625 0.3958333 0.5833333 0.3958333 0.5625 0.4166666 0.5625 0.4166666 0.5833333 0.3958333 0.5833333 0.4166666 0.5833333 0.3958333 0.6041666 0.3958333 0.5833333 0.4166666 0.5625 0.3958333 0.5833333 0.375 0.5833333 0.3958333 0.5833333 0.375 0.6041666 0.375 0.5833333 0.3958333 0.5833333 0.3958333 0.6041666 0.375 0.6041666 0.3958333 0.6041666 0.375 0.625 0.375 0.6041666 0.3958333 0.5416666 0.4375 0.5625 0.4166666 0.5625 0.4375 0.5208333 0.4375 0.5416666 0.4166666 0.5416666 0.4375 0.5416666 0.4375 0.5416666 0.4166666 0.5625 0.4166666 0.5416666 0.4166666 0.5625 0.3958333 0.5625 0.4166666 0.5208333 0.4375 0.5208333 0.4166666 0.5416666 0.4166666 0.5208333 0.4166666 0.5416666 0.3958333 0.5416666 0.4166666 0.5416666 0.4166666 0.5416666 0.3958333 0.5625 0.3958333 0.5416666 0.3958333 0.5625 0.375 0.5625 0.3958333 0.5 0.4791666 0.5208333 0.4791666 0.5 0.5 0.5 0.4583333 0.5208333 0.4583333 0.5 0.4791666 0.5 0.4791666 0.5208333 0.4583333 0.5208333 0.4791666 0.5208333 0.4583333 0.5416666 0.4583333 0.5208333 0.4791666 0.5 0.4583333 0.5208333 0.4375 0.5208333 0.4583333 0.5208333 0.4375 0.5416666 0.4375 0.5208333 0.4583333 0.5208333 0.4583333 0.5416666 0.4375 0.5416666 0.4583333 0.5416666 0.4375 0.5625 0.4375 0.5416666 0.4583333 0.5833333 0.4791666 0.5833333 0.5 0.5625 0.5 0.6041666 0.4583333 0.6041666 0.4791666 0.5833333 0.4791666 0.5833333 0.4791666 0.6041666 0.4791666 0.5833333 0.5 0.6041666 0.4791666 0.6041666 0.5 0.5833333 0.5 0.6041666 0.4583333 0.625 0.4583333 0.6041666 0.4791666 0.625 0.4583333 0.625 0.4791666 0.6041666 0.4791666 0.6041666 0.4791666 0.625 0.4791666 0.6041666 0.5 0.625 0.4791666 0.625 0.5 0.6041666 0.5 0.5625 0.4791666 0.5833333 0.4791666 0.5625 0.5 0.5625 0.4583333 0.5833333 0.4583333 0.5625 0.4791666 0.5625 0.4791666 0.5833333 0.4583333 0.5833333 0.4791666 0.5833333 0.4583333 0.6041666 0.4583333 0.5833333 0.4791666 0.5625 0.4583333 0.5833333 0.4375 0.5833333 0.4583333 0.5833333 0.4375 0.6041666 0.4375 0.5833333 0.4583333 0.5833333 0.4583333 0.6041666 0.4375 0.6041666 0.4583333 0.6041666 0.4375 0.625 0.4375 0.6041666 0.4583333 0.5208333 0.4791666 0.5208333 0.5 0.5 0.5 0.5416666 0.4583333 0.5416666 0.4791666 0.5208333 0.4791666 0.5208333 0.4791666 0.5416666 0.4791666 0.5208333 0.5 0.5416666 0.4791666 0.5416666 0.5 0.5208333 0.5 0.5416666 0.4583333 0.5625 0.4583333 0.5416666 0.4791666 0.5625 0.4583333 0.5625 0.4791666 0.5416666 0.4791666 0.5416666 0.4791666 0.5625 0.4791666 0.5416666 0.5 0.5625 0.4791666 0.5625 0.5 0.5416666 0.5 0.3958333 0.3125 0.375 0.3333333 0.375 0.3125 0.4166667 0.3125 0.3958333 0.3333333 0.3958333 0.3125 0.3958333 0.3125 0.3958333 0.3333333 0.375 0.3333333 0.3958333 0.3333333 0.375 0.3541666 0.375 0.3333333 0.4166667 0.3125 0.4166667 0.3333333 0.3958333 0.3333333 0.4166667 0.3333333 0.3958334 0.3541666 0.3958333 0.3333333 0.3958333 0.3333333 0.3958334 0.3541666 0.375 0.3541666 0.3958334 0.3541666 0.375 0.375 0.375 0.3541666 0.3958334 0.2916666 0.3958333 0.3125 0.375 0.3125 0.4166667 0.2708333 0.4166667 0.2916666 0.3958334 0.2916666 0.3958334 0.2916666 0.4166667 0.2916666 0.3958333 0.3125 0.4166667 0.2916666 0.4166667 0.3125 0.3958333 0.3125 0.4166667 0.2708333 0.4375 0.2708333 0.4166667 0.2916666 0.4375 0.2708333 0.4375 0.2916666 0.4166667 0.2916666 0.4166667 0.2916666 0.4375 0.2916666 0.4166667 0.3125 0.4375 0.2916666 0.4375 0.3125 0.4166667 0.3125 0.3958334 0.25 0.375 0.2708333 0.375 0.25 0.4166667 0.25 0.3958333 0.2708333 0.3958334 0.25 0.3958334 0.25 0.3958333 0.2708333 0.375 0.2708333 0.3958333 0.2708333 0.375 0.2916666 0.375 0.2708333 0.4166667 0.25 0.4166667 0.2708333 0.3958333 0.2708333 0.4166667 0.2708333 0.3958334 0.2916666 0.3958333 0.2708333 0.3958333 0.2708333 0.3958334 0.2916666 0.375 0.2916666 0.3958334 0.2916666 0.375 0.3125 0.375 0.2916666 0.4583333 0.3541666 0.4583333 0.375 0.4375 0.375 0.4791666 0.3333333 0.4791666 0.3541666 0.4583333 0.3541666 0.4583333 0.3541666 0.4791666 0.3541666 0.4583333 0.375 0.4791666 0.3541666 0.4791666 0.375 0.4583333 0.375 0.4791666 0.3333333 0.5 0.3333333 0.4791666 0.3541666 0.5 0.3333333 0.5 0.3541666 0.4791666 0.3541666 0.4791666 0.3541666 0.5 0.3541666 0.4791666 0.375 0.5 0.3541666 0.5 0.375 0.4791666 0.375 0.4375 0.3541666 0.4583333 0.3541666 0.4375 0.375 0.4375 0.3333333 0.4583333 0.3333333 0.4375 0.3541666 0.4375 0.3541666 0.4583333 0.3333333 0.4583333 0.3541666 0.4583333 0.3333333 0.4791666 0.3333333 0.4583333 0.3541666 0.4375 0.3333333 0.4583333 0.3125 0.4583333 0.3333333 0.4583333 0.3125 0.4791666 0.3125 0.4583333 0.3333333 0.4583333 0.3333333 0.4791666 0.3125 0.4791666 0.3333333 0.4791666 0.3125 0.5 0.3125 0.4791666 0.3333333 0.3958334 0.3541666 0.3958333 0.375 0.375 0.375 0.4166667 0.3333333 0.4166667 0.3541666 0.3958334 0.3541666 0.3958334 0.3541666 0.4166667 0.3541666 0.3958333 0.375 0.4166667 0.3541666 0.4166667 0.375 0.3958333 0.375 0.4166667 0.3333333 0.4375 0.3333333 0.4166667 0.3541666 0.4375 0.3333333 0.4375 0.3541666 0.4166667 0.3541666 0.4166667 0.3541666 0.4375 0.3541666 0.4166667 0.375 0.4375 0.3541666 0.4375 0.375 0.4166667 0.375 0.3958333 0.4375 0.375 0.4583333 0.375 0.4375 0.4166667 0.4375 0.3958333 0.4583333 0.3958333 0.4375 0.3958333 0.4375 0.3958333 0.4583333 0.375 0.4583333 0.3958333 0.4583333 0.375 0.4791666 0.375 0.4583333 0.4166667 0.4375 0.4166667 0.4583333 0.3958333 0.4583333 0.4166667 0.4583333 0.3958333 0.4791666 0.3958333 0.4583333 0.3958333 0.4583333 0.3958333 0.4791666 0.375 0.4791666 0.3958333 0.4791666 0.375 0.5 0.375 0.4791666 0.3958334 0.4166666 0.3958333 0.4375 0.375 0.4375 0.4166667 0.3958333 0.4166667 0.4166666 0.3958334 0.4166666 0.3958334 0.4166666 0.4166667 0.4166666 0.3958333 0.4375 0.4166667 0.4166666 0.4166667 0.4375 0.3958333 0.4375 0.4166667 0.3958333 0.4375 0.3958333 0.4166667 0.4166666 0.4375 0.3958333 0.4375 0.4166666 0.4166667 0.4166666 0.4166667 0.4166666 0.4375 0.4166666 0.4166667 0.4375 0.4375 0.4166666 0.4375 0.4375 0.4166667 0.4375 0.3958333 0.375 0.375 0.3958333 0.375 0.375 0.4166667 0.375 0.3958333 0.3958333 0.3958333 0.375 0.3958333 0.375 0.3958333 0.3958333 0.375 0.3958333 0.3958333 0.3958333 0.375 0.4166666 0.375 0.3958333 0.4166667 0.375 0.4166667 0.3958333 0.3958333 0.3958333 0.4166667 0.3958333 0.3958334 0.4166666 0.3958333 0.3958333 0.3958333 0.3958333 0.3958334 0.4166666 0.375 0.4166666 0.3958334 0.4166666 0.375 0.4375 0.375 0.4166666 0.4583333 0.375 0.4375 0.3958333 0.4375 0.375 0.4791666 0.375 0.4583333 0.3958333 0.4583333 0.375 0.4583333 0.375 0.4583333 0.3958333 0.4375 0.3958333 0.4583333 0.3958333 0.4375 0.4166666 0.4375 0.3958333 0.4791666 0.375 0.4791666 0.3958333 0.4583333 0.3958333 0.4791666 0.3958333 0.4583333 0.4166666 0.4583333 0.3958333 0.4583333 0.3958333 0.4583333 0.4166666 0.4375 0.4166666 0.4583333 0.4166666 0.4375 0.4375 0.4375 0.4166666 0.4583333 0.2916666 0.4583333 0.3125 0.4375 0.3125 0.4791666 0.2708333 0.4791666 0.2916666 0.4583333 0.2916666 0.4583333 0.2916666 0.4791666 0.2916666 0.4583333 0.3125 0.4791666 0.2916666 0.4791666 0.3125 0.4583333 0.3125 0.4791666 0.2708333 0.5 0.2708333 0.4791666 0.2916666 0.5 0.2708333 0.5 0.2916666 0.4791666 0.2916666 0.4791666 0.2916666 0.5 0.2916666 0.4791666 0.3125 0.5 0.2916666 0.5 0.3125 0.4791666 0.3125 0.4583333 0.25 0.4375 0.2708333 0.4375 0.25 0.4791666 0.25 0.4583333 0.2708333 0.4583333 0.25 0.4583333 0.25 0.4583333 0.2708333 0.4375 0.2708333 0.4583333 0.2708333 0.4375 0.2916666 0.4375 0.2708333 0.4791666 0.25 0.4791666 0.2708333 0.4583333 0.2708333 0.4791666 0.2708333 0.4583333 0.2916666 0.4583333 0.2708333 0.4583333 0.2708333 0.4583333 0.2916666 0.4375 0.2916666 0.4583333 0.2916666 0.4375 0.3125 0.4375 0.2916666 0.5833333 0.4166666 0.5833333 0.4375 0.5625 0.4375 0.6041666 0.3958333 0.6041666 0.4166666 0.5833333 0.4166666 0.5833333 0.4166666 0.6041666 0.4166666 0.5833333 0.4375 0.6041666 0.4166666 0.6041666 0.4375 0.5833333 0.4375 0.6041666 0.3958333 0.625 0.3958333 0.6041666 0.4166666 0.625 0.3958333 0.625 0.4166666 0.6041666 0.4166666 0.6041666 0.4166666 0.625 0.4166666 0.6041666 0.4375 0.625 0.4166666 0.625 0.4375 0.6041666 0.4375 0.5 0.4166666 0.5208333 0.4166666 0.5 0.4375 0.5 0.3958333 0.5208333 0.3958333 0.5 0.4166666 0.5 0.4166666 0.5208333 0.3958333 0.5208333 0.4166666 0.5208333 0.3958333 0.5416666 0.3958333 0.5208333 0.4166666 0.5 0.3958333 0.5208333 0.375 0.5208333 0.3958333 0.5208333 0.375 0.5416666 0.375 0.5208333 0.3958333 0.5208333 0.3958333 0.5416666 0.375 0.5416666 0.3958333 0.5416666 0.375 0.5625 0.375 0.5416666 0.3958333 0.4583333 0.4166666 0.4583333 0.4375 0.4375 0.4375 0.4791666 0.3958333 0.4791666 0.4166666 0.4583333 0.4166666 0.4583333 0.4166666 0.4791666 0.4166666 0.4583333 0.4375 0.4791666 0.4166666 0.4791666 0.4375 0.4583333 0.4375 0.4791666 0.3958333 0.5 0.3958333 0.4791666 0.4166666 0.5 0.3958333 0.5 0.4166666 0.4791666 0.4166666 0.4791666 0.4166666 0.5 0.4166666 0.4791666 0.4375 0.5 0.4166666 0.5 0.4375 0.4791666 0.4375 0.5833333 0.2916666 0.5833333 0.3125 0.5625 0.3125 0.6041666 0.2708333 0.6041666 0.2916666 0.5833333 0.2916666 0.5833333 0.2916666 0.6041666 0.2916666 0.5833333 0.3125 0.6041666 0.2916666 0.6041666 0.3125 0.5833333 0.3125 0.6041666 0.2708333 0.625 0.2708333 0.6041666 0.2916666 0.625 0.2708333 0.625 0.2916666 0.6041666 0.2916666 0.6041666 0.2916666 0.625 0.2916666 0.6041666 0.3125 0.625 0.2916666 0.625 0.3125 0.6041666 0.3125 0.5833333 0.25 0.5625 0.2708333 0.5625 0.25 0.6041666 0.25 0.5833333 0.2708333 0.5833333 0.25 0.5833333 0.25 0.5833333 0.2708333 0.5625 0.2708333 0.5833333 0.2708333 0.5625 0.2916666 0.5625 0.2708333 0.6041666 0.25 0.6041666 0.2708333 0.5833333 0.2708333 0.6041666 0.2708333 0.5833333 0.2916666 0.5833333 0.2708333 0.5833333 0.2708333 0.5833333 0.2916666 0.5625 0.2916666 0.5833333 0.2916666 0.5625 0.3125 0.5625 0.2916666 0.375 0 0.625 0.25 0.6041666 0.25 0.375 0 0.6041666 0.25 0.5833333 0.25 0.3958334 0.25 0.375 0.25 0.375 0 0.4583333 0.25 0.4375 0.25 0.375 0 0.4375 0.25 0.4166667 0.25 0.375 0 0.4166667 0.25 0.3958334 0.25 0.375 0 0.375 0 0.5833333 0.25 0.5625 0.25 0.5625 0.25 0.5416666 0.25 0.375 0 0.5416666 0.25 0.5208333 0.25 0.375 0 0.5208333 0.25 0.5 0.25 0.375 0 0.4791666 0.25 0.4583333 0.25 0.375 0 0.3541667 0.5 0.375 0.5 0.125 0.75 0.125 0.75 0.125 0.5 0.1458333 0.5 0.125 0.75 0.1458333 0.5 0.1666666 0.5 0.3333333 0.5 0.3541667 0.5 0.125 0.75 0.3125 0.5 0.3333333 0.5 0.125 0.75 0.125 0.75 0.1666666 0.5 0.1875 0.5 0.125 0.75 0.1875 0.5 0.2083333 0.5 0.2916666 0.5 0.3125 0.5 0.125 0.75 0.2708333 0.5 0.2916666 0.5 0.125 0.75 0.125 0.75 0.2083333 0.5 0.2291666 0.5 0.25 0.5 0.2708333 0.5 0.125 0.75 0.375 0.75 0.375 0.5 0.3958334 0.5208333 0.375 0.75 0.3958334 0.5208333 0.4166667 0.5416666 0.6041666 0.7291666 0.625 0.75 0.375 0.75 0.5416666 0.6666666 0.5625 0.6875 0.375 0.75 0.5625 0.6875 0.5833333 0.7083333 0.375 0.75 0.5833333 0.7083333 0.6041666 0.7291666 0.375 0.75 0.375 0.75 0.4166667 0.5416666 0.4375 0.5625 0.375 0.75 0.4375 0.5625 0.4583333 0.5833333 0.5 0.625 0.5208333 0.6458333 0.375 0.75 0.5208333 0.6458333 0.5416666 0.6666666 0.375 0.75 0.375 0.75 0.4583333 0.5833333 0.4791666 0.6041666 0.375 0.75 0.625 0.75 0.625 0.7708333 0.375 0.75 0.625 0.7708333 0.625 0.7916666 0.625 0.9791666 0.625 1 0.375 0.75 0.625 0.9583333 0.625 0.9791666 0.375 0.75 0.375 0.75 0.625 0.7916666 0.625 0.8125 0.375 0.75 0.625 0.8125 0.625 0.8333333 0.625 0.9375 0.625 0.9583333 0.375 0.75 0.625 0.9166666 0.625 0.9375 0.375 0.75 0.375 0.75 0.625 0.8333333 0.625 0.8541666 0.375 0.75 0.625 0.8541666 0.625 0.875 0.625 0.8958333 0.625 0.9166666 0.375 0.75</float_array>
          <technique_common>
            <accessor source="#Cube_001-mesh-map-0-array" count="1014" stride="2">
              <param name="S" type="float"/>
              <param name="T" type="float"/>
            </accessor>
          </technique_common>
        </source>
        <vertices id="Cube_001-mesh-vertices">
          <input semantic="POSITION" source="#Cube_001-mesh-positions"/>
        </vertices>
        <triangles material="Material_001-material" count="338">
          <input semantic="VERTEX" source="#Cube_001-mesh-vertices" offset="0"/>
          <input semantic="NORMAL" source="#Cube_001-mesh-normals" offset="1"/>
          <input semantic="TEXCOORD" source="#Cube_001-mesh-map-0" offset="2" set="0"/>
          <p>2 0 0 3 1 1 6 2 2 6 2 3 7 3 4 60 4 5 6 2 6 62 5 7 8 5 8 64 6 9 9 7 10 2 0 11 3 1 12 35 8 13 70 9 14 2 0 15 11 10 16 68 11 17 1 12 18 2 0 19 6 2 20 3 1 21 37 13 22 35 8 23 10 14 24 80 15 25 45 16 26 10 14 27 82 17 28 80 15 29 11 10 30 47 13 31 53 18 32 7 3 33 86 19 34 60 4 35 7 3 36 88 20 37 86 19 38 10 14 39 45 16 40 59 21 41 27 22 42 92 23 43 91 24 44 27 22 45 94 25 46 92 23 47 20 26 48 77 27 49 97 28 50 25 29 51 98 30 52 54 31 53 25 29 54 100 32 55 98 30 56 26 33 57 56 34 58 103 35 59 12 36 60 104 37 61 28 38 62 12 36 63 106 39 64 104 37 65 25 29 66 54 31 67 109 40 68 24 37 69 110 41 70 85 42 71 24 37 72 112 43 73 110 41 74 21 13 75 79 44 76 115 45 77 22 46 78 116 47 79 48 48 80 22 46 81 118 49 82 116 47 83 23 50 84 50 37 85 121 51 86 20 26 87 122 52 88 77 27 89 20 26 90 124 53 91 122 52 92 22 46 93 48 48 94 127 54 95 15 55 96 128 56 97 67 57 98 15 55 99 130 58 100 128 56 101 16 10 102 69 59 103 133 56 104 17 60 105 134 61 106 38 62 107 17 60 108 136 37 109 134 61 110 15 55 111 67 57 112 139 63 113 138 64 114 56 34 115 26 33 116 139 63 117 140 65 118 138 64 119 138 64 120 140 65 121 56 34 122 140 65 123 57 66 124 56 34 125 139 63 126 67 57 127 140 65 128 67 57 129 66 67 130 140 65 131 140 65 132 66 67 133 57 66 134 66 67 135 10 14 136 57 66 137 135 68 138 138 64 139 26 33 140 134 61 141 141 69 142 135 68 143 135 68 144 141 69 145 138 64 146 141 69 147 139 63 148 138 64 149 134 61 150 136 37 151 141 69 152 136 37 153 137 70 154 141 69 155 141 69 156 137 70 157 139 63 158 137 70 159 15 55 160 139 63 161 39 71 162 88 20 163 7 3 164 38 62 165 142 72 166 39 71 167 39 71 168 142 72 169 88 20 170 142 72 171 89 73 172 88 20 173 38 62 174 134 61 175 142 72 176 134 61 177 135 68 178 142 72 179 142 72 180 135 68 181 89 73 182 135 68 183 26 33 184 89 73 185 132 56 186 50 37 187 23 50 188 133 56 189 143 37 190 132 56 191 132 56 192 143 37 193 50 37 194 143 37 195 51 56 196 50 37 197 133 56 198 69 59 199 143 37 200 69 59 201 68 11 202 143 37 203 143 37 204 68 11 205 51 56 206 68 11 207 11 10 208 51 56 209 129 41 210 132 56 211 23 50 212 128 56 213 144 74 214 129 41 215 129 41 216 144 74 217 132 56 218 144 74 219 133 56 220 132 56 221 128 56 222 130 58 223 144 74 224 130 58 225 131 43 226 144 74 227 144 74 228 131 43 229 133 56 230 131 43 231 16 10 232 133 56 233 66 67 234 82 17 235 10 14 236 67 57 237 145 56 238 66 67 239 66 67 240 145 56 241 82 17 242 145 56 243 83 75 244 82 17 245 67 57 246 128 56 247 145 56 248 128 56 249 129 41 250 145 56 251 145 56 252 129 41 253 83 75 254 129 41 255 23 50 256 83 75 257 126 76 258 65 77 259 14 78 260 127 54 261 146 79 262 126 76 263 126 76 264 146 79 265 65 77 266 146 79 267 64 6 268 65 77 269 127 54 270 48 48 271 146 79 272 48 48 273 49 80 274 146 79 275 146 79 276 49 80 277 64 6 278 49 80 279 9 7 280 64 6 281 123 81 282 126 76 283 14 78 284 122 52 285 147 82 286 123 81 287 123 81 288 147 82 289 126 76 290 147 82 291 127 54 292 126 76 293 122 52 294 124 53 295 147 82 296 124 53 297 125 83 298 147 82 299 147 82 300 125 83 301 127 54 302 125 83 303 22 46 304 127 54 305 76 84 306 33 85 307 1 12 308 77 27 309 148 86 310 76 84 311 76 84 312 148 86 313 33 85 314 148 86 315 32 87 316 33 85 317 77 27 318 122 52 319 148 86 320 122 52 321 123 81 322 148 86 323 148 86 324 123 81 325 32 87 326 123 81 327 14 78 328 32 87 329 120 37 330 52 41 331 24 37 332 121 51 333 149 88 334 120 37 335 120 37 336 149 88 337 52 41 338 149 88 339 53 18 340 52 41 341 121 51 342 50 37 343 149 88 344 50 37 345 51 56 346 149 88 347 149 88 348 51 56 349 53 18 350 51 56 351 11 10 352 53 18 353 117 89 354 120 37 355 24 37 356 116 47 357 150 39 358 117 89 359 117 89 360 150 39 361 120 37 362 150 39 363 121 51 364 120 37 365 116 47 366 118 49 367 150 39 368 118 49 369 119 90 370 150 39 371 150 39 372 119 90 373 121 51 374 119 90 375 23 50 376 121 51 377 49 80 378 84 91 379 9 7 380 48 48 381 151 92 382 49 80 383 49 80 384 151 92 385 84 91 386 151 92 387 85 42 388 84 91 389 48 48 390 116 47 391 151 92 392 116 47 393 117 89 394 151 92 395 151 92 396 117 89 397 85 42 398 117 89 399 24 37 400 85 42 401 114 93 402 75 94 403 19 95 404 115 45 405 152 43 406 114 93 407 114 93 408 152 43 409 75 94 410 152 43 411 74 96 412 75 94 413 115 45 414 79 44 415 152 43 416 79 44 417 78 59 418 152 43 419 152 43 420 78 59 421 74 96 422 78 59 423 0 97 424 74 96 425 111 41 426 114 93 427 19 95 428 110 41 429 153 18 430 111 41 431 111 41 432 153 18 433 114 93 434 153 18 435 115 45 436 114 93 437 110 41 438 112 43 439 153 18 440 112 43 441 113 56 442 153 18 443 153 18 444 113 56 445 115 45 446 113 56 447 21 13 448 115 45 449 84 91 450 43 98 451 9 7 452 85 42 453 154 45 454 84 91 455 84 91 456 154 45 457 43 98 458 154 45 459 42 6 460 43 98 461 85 42 462 110 41 463 154 45 464 110 41 465 111 41 466 154 45 467 154 45 468 111 41 469 42 6 470 111 41 471 19 95 472 42 6 473 108 99 474 63 100 475 13 5 476 109 40 477 155 101 478 108 99 479 108 99 480 155 101 481 63 100 482 155 101 483 62 5 484 63 100 485 109 40 486 54 31 487 155 101 488 54 31 489 55 102 490 155 101 491 155 101 492 55 102 493 62 5 494 55 102 495 8 5 496 62 5 497 105 76 498 108 99 499 13 5 500 104 37 501 156 103 502 105 76 503 105 76 504 156 103 505 108 99 506 156 103 507 109 40 508 108 99 509 104 37 510 106 39 511 156 103 512 106 39 513 107 88 514 156 103 515 156 103 516 107 88 517 109 40 518 107 88 519 25 29 520 109 40 521 29 104 522 31 105 523 4 106 524 28 38 525 157 18 526 29 104 527 29 104 528 157 18 529 31 105 530 157 18 531 30 107 532 31 105 533 28 38 534 104 37 535 157 18 536 104 37 537 105 76 538 157 18 539 157 18 540 105 76 541 30 107 542 105 76 543 13 5 544 30 107 545 102 108 546 58 109 547 27 22 548 103 35 549 158 110 550 102 108 551 102 108 552 158 110 553 58 109 554 158 110 555 59 21 556 58 109 557 103 35 558 56 34 559 158 110 560 56 34 561 57 66 562 158 110 563 158 110 564 57 66 565 59 21 566 57 66 567 10 14 568 59 21 569 99 111 570 102 108 571 27 22 572 98 30 573 159 112 574 99 111 575 99 111 576 159 112 577 102 108 578 159 112 579 103 35 580 102 108 581 98 30 582 100 32 583 159 112 584 100 32 585 101 113 586 159 112 587 159 112 588 101 113 589 103 35 590 101 113 591 26 33 592 103 35 593 55 102 594 90 114 595 8 5 596 54 31 597 160 115 598 55 102 599 55 102 600 160 115 601 90 114 602 160 115 603 91 24 604 90 114 605 54 31 606 98 30 607 160 115 608 98 30 609 99 111 610 160 115 611 160 115 612 99 111 613 91 24 614 99 111 615 27 22 616 91 24 617 96 116 618 73 117 619 18 118 620 97 28 621 161 45 622 96 116 623 96 116 624 161 45 625 73 117 626 161 45 627 72 119 628 73 117 629 97 28 630 77 27 631 161 45 632 77 27 633 76 84 634 161 45 635 161 45 636 76 84 637 72 119 638 76 84 639 1 12 640 72 119 641 93 120 642 96 116 643 18 118 644 92 23 645 162 121 646 93 120 647 93 120 648 162 121 649 96 116 650 162 121 651 97 28 652 96 116 653 92 23 654 94 25 655 162 121 656 94 25 657 95 122 658 162 121 659 162 121 660 95 122 661 97 28 662 95 122 663 20 26 664 97 28 665 90 114 666 41 107 667 8 5 668 91 24 669 163 123 670 90 114 671 90 114 672 163 123 673 41 107 674 163 123 675 40 124 676 41 107 677 91 24 678 92 23 679 163 123 680 92 23 681 93 120 682 163 123 683 163 123 684 93 120 685 40 124 686 93 120 687 18 118 688 40 124 689 58 109 690 94 25 691 27 22 692 59 21 693 164 18 694 58 109 695 58 109 696 164 18 697 94 25 698 164 18 699 95 122 700 94 25 701 59 21 702 45 16 703 164 18 704 45 16 705 44 125 706 164 18 707 164 18 708 44 125 709 95 122 710 44 125 711 20 26 712 95 122 713 87 126 714 100 32 715 25 29 716 86 19 717 165 127 718 87 126 719 87 126 720 165 127 721 100 32 722 165 127 723 101 113 724 100 32 725 86 19 726 88 20 727 165 127 728 88 20 729 89 73 730 165 127 731 165 127 732 89 73 733 101 113 734 89 73 735 26 33 736 101 113 737 61 128 738 106 39 739 12 36 740 60 4 741 166 39 742 61 128 743 61 128 744 166 39 745 106 39 746 166 39 747 107 88 748 106 39 749 60 4 750 86 19 751 166 39 752 86 19 753 87 126 754 166 39 755 166 39 756 87 126 757 107 88 758 87 126 759 25 29 760 107 88 761 52 41 762 112 43 763 24 37 764 53 18 765 167 43 766 52 41 767 52 41 768 167 43 769 112 43 770 167 43 771 113 56 772 112 43 773 53 18 774 47 13 775 167 43 776 47 13 777 46 129 778 167 43 779 167 43 780 46 129 781 113 56 782 46 129 783 21 13 784 113 56 785 81 130 786 118 49 787 22 46 788 80 15 789 168 131 790 81 130 791 81 130 792 168 131 793 118 49 794 168 131 795 119 90 796 118 49 797 80 15 798 82 17 799 168 131 800 82 17 801 83 75 802 168 131 803 168 131 804 83 75 805 119 90 806 83 75 807 23 50 808 119 90 809 44 125 810 124 53 811 20 26 812 45 16 813 169 132 814 44 125 815 44 125 816 169 132 817 124 53 818 169 132 819 125 83 820 124 53 821 45 16 822 80 15 823 169 132 824 80 15 825 81 130 826 169 132 827 169 132 828 81 130 829 125 83 830 81 130 831 22 46 832 125 83 833 34 133 834 130 58 835 15 55 836 35 8 837 170 41 838 34 133 839 34 133 840 170 41 841 130 58 842 170 41 843 131 43 844 130 58 845 35 8 846 37 13 847 170 41 848 37 13 849 36 134 850 170 41 851 170 41 852 36 134 853 131 43 854 36 134 855 16 10 856 131 43 857 71 135 858 136 37 859 17 60 860 70 9 861 171 136 862 71 135 863 71 135 864 171 136 865 136 37 866 171 136 867 137 70 868 136 37 869 70 9 870 35 8 871 171 136 872 35 8 873 34 133 874 171 136 875 171 136 876 34 133 877 137 70 878 34 133 879 15 55 880 137 70 881 6 2 882 3 1 883 70 9 884 6 2 885 70 9 886 71 135 887 29 104 888 4 106 889 6 2 890 61 128 891 12 36 892 6 2 893 12 36 894 28 38 895 6 2 896 28 38 897 29 104 898 6 2 899 6 2 900 71 135 901 17 60 902 17 60 903 38 62 904 6 2 905 38 62 906 39 71 907 6 2 908 39 71 909 7 3 910 6 2 911 60 4 912 61 128 913 6 2 914 72 119 915 1 12 916 6 2 917 6 2 918 4 106 919 31 105 920 6 2 921 31 105 922 30 107 923 73 117 924 72 119 925 6 2 926 18 118 927 73 117 928 6 2 929 6 2 930 30 107 931 13 5 932 6 2 933 13 5 934 63 100 935 40 124 936 18 118 937 6 2 938 41 107 939 40 124 940 6 2 941 6 2 942 63 100 943 62 5 944 8 5 945 41 107 946 6 2 947 2 0 948 1 12 949 33 85 950 2 0 951 33 85 952 32 87 953 74 96 954 0 97 955 2 0 956 42 6 957 19 95 958 2 0 959 19 95 960 75 94 961 2 0 962 75 94 963 74 96 964 2 0 965 2 0 966 32 87 967 14 78 968 2 0 969 14 78 970 65 77 971 9 7 972 43 98 973 2 0 974 43 98 975 42 6 976 2 0 977 2 0 978 65 77 979 64 6 980 2 0 981 0 97 982 78 59 983 2 0 984 78 59 985 79 44 986 37 13 987 3 1 988 2 0 989 36 134 990 37 13 991 2 0 992 2 0 993 79 44 994 21 13 995 2 0 996 21 13 997 46 129 998 16 10 999 36 134 1000 2 0 1001 69 59 1002 16 10 1003 2 0 1004 2 0 1005 46 129 1006 47 13 1007 2 0 1008 47 13 1009 11 10 1010 68 11 1011 69 59 1012 2 0 1013</p>
        </triangles>
      </mesh>
    </geometry>
  </library_geometries>
  <library_visual_scenes>
    <visual_scene id="Scene" name="Scene">
      <node id="Light_002" name="Light.002" type="NODE">
        <matrix sid="transform">-0.2908646 -0.7711008 0.5663933 4.076245 0.9551712 -0.1998833 0.2183913 1.005454 -0.05518912 0.6045247 0.7946723 5.903862 0 0 0 1</matrix>
        <instance_light url="#Light_002-light"/>
      </node>
      <node id="Camera_002" name="Camera.002" type="NODE">
        <matrix sid="transform">0.6859207 -0.3240135 0.6515582 7.358891 0.7276763 0.3054209 -0.6141704 -6.925791 -4.01133e-9 0.8953956 0.4452714 4.958309 0 0 0 1</matrix>
        <instance_camera url="#Camera_002-camera"/>
      </node>
      <node id="Camera_001" name="Camera.001" type="NODE">
        <matrix sid="transform">0.6859207 -0.3240135 0.6515582 7.358891 0.7276763 0.3054209 -0.6141704 -6.925791 -4.01133e-9 0.8953956 0.4452714 4.958309 0 0 0 1</matrix>
        <instance_camera url="#Camera_001-camera"/>
      </node>
      <node id="Light_001" name="Light.001" type="NODE">
        <matrix sid="transform">-0.2908646 -0.7711007 0.5663934 4.076245 0.9551712 -0.1998832 0.2183914 1.005454 -0.05518918 0.6045248 0.7946723 5.903862 0 0 0 1</matrix>
        <instance_light url="#Light_001-light"/>
      </node>
      <node id="Cube_001" name="Cube.001" type="NODE">
        <matrix sid="transform">1 0 0 0 0 1 0 0 0 0 1 0 0 0 0 1</matrix>
        <instance_geometry url="#Cube_001-mesh" name="Cube.001">
          <bind_material>
            <technique_common>
              <instance_material symbol="Material_001-material" target="#Material_001-material">
                <bind_vertex_input semantic="Cube_001-mesh-map-0" input_semantic="TEXCOORD" input_set="0"/>
              </instance_material>
            </technique_common>
          </bind_material>
        </instance_geometry>
      </node>
      <node id="Camera" name="Camera" type="NODE">
        <matrix sid="transform">0.6859207 -0.3240135 0.6515582 7.358891 0.7276763 0.3054208 -0.6141704 -6.925791 0 0.8953956 0.4452714 4.958309 0 0 0 1</matrix>
        <instance_camera url="#Camera-camera"/>
      </node>
      <node id="Light" name="Light" type="NODE">
        <matrix sid="transform">-0.2908646 -0.7711008 0.5663932 4.076245 0.9551712 -0.1998834 0.2183912 1.005454 -0.05518906 0.6045247 0.7946723 5.903862 0 0 0 1</matrix>
        <instance_light url="#Light-light"/>
      </node>
    </visual_scene>
  </library_visual_scenes>
  <scene>
    <instance_visual_scene url="#Scene"/>
  </scene>
</COLLADA>