<?xml version="1.0" encoding="utf-8"?>
<COLLADA xmlns="http://www.collada.org/2005/11/COLLADASchema" version="1.4.1" xmlns:xsi="http://www.w3.org/2001/XMLSchema-instance">
  <asset>
    <contributor>
      <author>Blender User</author>
      <authoring_tool>Blender 4.3.0 commit date:2024-11-19, commit time:08:52, hash:2b18cad88b13</authoring_tool>
    </contributor>
    <created>2024-12-09T17:32:05</created>
    <modified>2024-12-09T17:32:05</modified>
    <unit name="meter" meter="1"/>
    <up_axis>Z_UP</up_axis>
  </asset>
  <library_images/>
  <library_geometries>
    <geometry id="Mesh-mesh" name="Mesh">
      <mesh>
        <source id="Mesh-mesh-positions">
          <float_array id="Mesh-mesh-positions-array" count="2694">-0.2698118 2.437475 0 -0.2711652 2.417651 0 -0.2719386 2.398478 0 -0.2721513 2.379942 0 -0.2718224 2.36203 0 -0.2709711 2.344727 0 -0.2696167 2.328021 0 -0.2677782 2.311897 0 -0.265475 2.296341 0 -0.2627263 2.28134 0 -0.2595512 2.26688 0 -0.2559689 2.252948 0 -0.2519987 2.239529 0 -0.2476598 2.22661 0 -0.2429713 2.214177 0 -0.2379524 2.202217 0 -0.2326224 2.190715 0 -0.2270004 2.179659 0 -0.2211057 2.169033 0 -0.2149575 2.158825 0 -0.2085749 2.149021 0 -0.2019772 2.139606 0 -0.1951836 2.130568 0 -0.1882132 2.121892 0 -0.1810853 2.113566 0 -0.1738191 2.105574 0 -0.1664338 2.097903 0 -0.1589485 2.090541 0 -0.1513825 2.083472 0 -0.143755 2.076683 0 -0.1360852 2.07016 0 -0.1283922 2.06389 0 -0.1206954 2.057859 0 -0.1130139 2.052053 0 -0.1053668 2.046458 0 -0.09777343 2.041062 0 -0.09025299 2.035849 0 -0.08282464 2.030806 0 -0.07550764 2.025919 0 -0.06832104 2.021176 0 -0.06128424 2.016561 0 -0.05441623 2.012062 0 -0.04773646 2.007664 0 -0.04126393 2.003354 0 -0.03501796 1.999118 0 -0.0290178 1.994942 0 -0.0232824 1.990813 0 -0.01783126 1.986717 0 -0.01268339 1.982639 0 -0.007858037 1.978568 0 -0.003374338 1.974487 0 7.48256e-4 1.970385 0 0.004490733 1.966247 0 0.007834017 1.962059 0 0.01075857 1.957808 0 0.01324558 1.95348 0 0.01527553 1.949061 0 0.01682943 1.944537 0 0.01788789 1.939895 0 0.01843184 1.935121 0 0.01844203 1.930202 0 0.01789927 1.925123 0 0.01678431 1.919871 0 0.01507794 1.914431 0 0.01276093 1.908791 0 0.009089827 1.90229 0 0.003914058 1.89548 0 -0.002716541 1.888371 0 -0.01075232 1.880971 0 -0.02014333 1.87329 0 -0.03083992 1.865337 0 -0.04279232 1.857121 0 -0.05595058 1.848652 0 -0.07026505 1.839939 0 -0.0856859 1.830992 0 -0.1021633 1.821819 0 -0.1196476 1.812429 0 -0.1380889 1.802833 0 -0.1574375 1.79304 0 -0.1776434 1.783058 0 -0.198657 1.772898 0 -0.2204287 1.762568 0 -0.2429082 1.752077 0 -0.2660462 1.741436 0 -0.2897927 1.730652 0 -0.314098 1.719737 0 -0.3389121 1.708698 0 -0.3641855 1.697545 0 -0.3898683 1.686288 0 -0.4159106 1.674936 0 -0.4422628 1.663498 0 -0.4688749 1.651983 0 -0.4956974 1.640401 0 -0.5226803 1.628761 0 -0.5497739 1.617072 0 -0.5769283 1.605343 0 -0.6040939 1.593585 0 -0.6312208 1.581805 0 -0.6582592 1.570015 0 -0.6851594 1.558222 0 -0.7118715 1.546436 0 -0.7383458 1.534666 0 -0.7645325 1.522922 0 -0.7903818 1.511213 0 -0.8158439 1.499548 0 -0.840869 1.487937 0 -0.8654074 1.476389 0 -0.8894093 1.464913 0 -0.9128248 1.453518 0 -0.9356042 1.442214 0 -0.9576977 1.43101 0 -0.9790555 1.419915 0 -0.9996279 1.40894 0 -1.019365 1.398092 0 -1.038217 1.387381 0 -1.056134 1.376817 0 -1.073067 1.366409 0 -1.088965 1.356165 0 -1.103779 1.346097 0 -1.11746 1.336212 0 -1.129956 1.32652 0 -1.141219 1.31703 0 -1.151198 1.307752 0 -1.159845 1.298695 0 -1.167108 1.289869 0 -1.172939 1.281281 0 -1.177287 1.272943 0 -1.180104 1.264863 0 -1.181337 1.25705 0 -1.180656 1.25034 0 -1.177939 1.243185 0 -1.173253 1.235599 0 -1.166663 1.227595 0 -1.158238 1.219185 0 -1.148044 1.210383 0 -1.136148 1.201202 0 -1.122616 1.191655 0 -1.107516 1.181755 0 -1.090915 1.171515 0 -1.07288 1.160948 0 -1.053477 1.150067 0 -1.032773 1.138886 0 -1.010836 1.127418 0 -0.9877313 1.115675 0 -0.9635271 1.103671 0 -0.9382899 1.091418 0 -0.9120866 1.07893 0 -0.884984 1.066221 0 -0.8570491 1.053302 0 -0.8283488 1.040187 0 -0.79895 1.02689 0 -0.7689195 1.013423 0 -0.7383244 0.9997993 0 -0.7072315 0.986032 0 -0.6757076 0.9721343 0 -0.6438198 0.9581192 0 -0.6116349 0.9439999 0 -0.5792198 0.9297894 0 -0.5466415 0.9155008 0 -0.5139667 0.9011471 0 -0.4812625 0.8867416 0 -0.4485958 0.8722972 0 -0.4160333 0.8578271 0 -0.3836421 0.8433443 0 -0.3514891 0.828862 0 -0.3196411 0.8143932 0 -0.288165 0.799951 0 -0.2571278 0.7855485 0 -0.2265964 0.7711988 0 -0.1966376 0.756915 0 -0.1673184 0.7427101 0 -0.1387056 0.7285973 0 -0.1108662 0.7145896 0 -0.08386707 0.7007002 0 -0.05777508 0.6869421 0 -0.0326572 0.6733283 0 -0.008580386 0.6598721 0 0.0143885 0.6465864 0 0.0361827 0.6334844 0 0.05673515 0.6205792 0 0.07597911 0.6078838 0 0.09384751 0.5954114 0 0.1102735 0.583175 0 0.1251901 0.5711876 0 0.1385306 0.5594625 0 0.150228 0.5480127 0 0.1602153 0.5368512 0 0.1684257 0.5259912 0 0.1747923 0.5154458 0 0.1792481 0.505228 0 0.1817263 0.4953509 0 0.18216 0.4858276 0 0.180482 0.4766711 0 0.1743316 0.4577338 0 0.1677865 0.4395862 0 0.1608765 0.4222003 0 0.1536313 0.405548 0 0.1460807 0.3896009 0 0.1382542 0.3743311 0 0.1301817 0.3597102 0 0.121893 0.3457103 0 0.1134176 0.332303 0 0.1047855 0.3194602 0 0.09602612 0.3071539 0 0.0871694 0.2953557 0 0.07824498 0.2840376 0 0.06928265 0.2731714 0 0.06031203 0.2627289 0 0.05136299 0.2526819 0 0.04246509 0.2430024 0 0.03364819 0.2336621 0 0.02494192 0.2246329 0 0.01637601 0.2158865 0 0.007980406 0.207395 0 -2.15459e-4 0.1991299 0 -0.00818175 0.1910635 0 -0.01588869 0.1831673 0 -0.0233066 0.1754131 0 -0.03040581 0.1677729 0 -0.03715664 0.1602185 0 -0.04352915 0.1527217 0 -0.04949373 0.1452544 0 -0.05502068 0.1377884 0 -0.06008028 0.1302955 0 -0.06464278 0.1227476 0 -0.06867843 0.1151165 0 -0.07215756 0.1073741 0 -0.07505035 0.09949213 0 -0.07732719 0.09144252 0 -0.07895827 0.08319711 0 -0.07991391 0.07472771 0 -0.08016431 0.06600612 0 -0.0796799 0.05700421 0 -0.07843083 0.04769378 0 -0.07638734 0.03804677 0 -0.07351982 0.02803504 0 -0.06979852 0.01763015 0 -0.06519365 0.006804347 0 -0.05967551 -0.004470705 0 -0.05321443 -0.01622337 0 -0.04578059 -0.0284816 0 -0.03734433 -0.04127359 0 -0.02787595 -0.05462747 0 -0.01734566 -0.06857156 0 -0.005723834 -0.08313381 0 0.007019281 -0.09834253 0 0.0209136 -0.1142258 0 0.03598856 -0.1308118 0 0.05227416 -0.1481287 0 0.06980001 -0.1662046 0 0.0885958 -0.1850678 0 0.1086912 -0.2047464 0 0.1301161 -0.2252686 0 0.1529 -0.2466624 0 0.177073 -0.2689561 0 0.2026644 -0.2921778 0 0.2297044 -0.316356 0 0.2419603 -0.3276017 0 0.2537038 -0.3391073 0 0.2649433 -0.3508672 0 0.2756869 -0.3628764 0 0.2859427 -0.3751294 0 0.295719 -0.3876209 0 0.305024 -0.4003457 0 0.3138659 -0.4132985 0 0.3222529 -0.426474 0 0.3301931 -0.4398669 0 0.3376947 -0.4534718 0 0.344766 -0.4672836 0 0.3514151 -0.4812968 0 0.3576502 -0.4955062 0 0.3634796 -0.5099065 0 0.3689114 -0.5244925 0 0.3739538 -0.5392587 0 0.378615 -0.5542 0 0.3829032 -0.569311 0 0.3868266 -0.5845864 0 0.3903934 -0.6000209 0 0.3936118 -0.6156092 0 0.39649 -0.6313461 0 0.3990361 -0.6472262 0 0.4012584 -0.6632443 0 0.403165 -0.679395 0 0.4047642 -0.6956731 0 0.4060641 -0.7120732 0 0.407073 -0.7285901 0 0.407799 -0.7452184 0 0.4082503 -0.7619529 0 0.4084352 -0.7787883 0 0.4083617 -0.7957192 0 0.4080382 -0.8127405 0 0.4074727 -0.8298467 0 0.4066736 -0.8470326 0 0.405649 -0.8642929 0 0.404407 -0.8816223 0 0.4029558 -0.8990154 0 0.4013038 -0.9164671 0 0.3994591 -0.933972 0 0.3974298 -0.9515247 0 0.3952241 -0.9691202 0 0.3928503 -0.9867529 0 0.3903166 -1.004418 0 0.387631 -1.022109 0 0.3848019 -1.039822 0 0.3818374 -1.057551 0 0.3787457 -1.075291 0 0.3755351 -1.093036 0 0.3722136 -1.110782 0 0.3687895 -1.128522 0 0.365271 -1.146253 0 0.3616663 -1.163967 0 0.3579836 -1.181661 0 0.354231 -1.199328 0 0.3504168 -1.216964 0 0.3465492 -1.234563 0 0.3426364 -1.25212 0 0.3386864 -1.26963 0 0.3347076 -1.287087 0 0.3307082 -1.304485 0 0.3266962 -1.321821 0 0.32268 -1.339087 0 0.3191124 -1.355281 0 0.3159999 -1.371261 0 0.3133313 -1.387025 0 0.3110953 -1.402574 0 0.3092809 -1.417906 0 0.3078769 -1.433021 0 0.306872 -1.447918 0 0.3062551 -1.462596 0 0.306015 -1.477055 0 0.3061406 -1.491293 0 0.3066206 -1.505311 0 0.3074439 -1.519106 0 0.3085993 -1.53268 0 0.3100756 -1.54603 0 0.3118616 -1.559156 0 0.3139463 -1.572057 0 0.3163183 -1.584733 0 0.3189665 -1.597182 0 0.3218796 -1.609405 0 0.3250467 -1.6214 0 0.3284564 -1.633167 0 0.3320977 -1.644704 0 0.3359591 -1.656011 0 0.3400298 -1.667088 0 0.3442984 -1.677933 0 0.3487538 -1.688546 0 0.3533847 -1.698926 0 0.3581801 -1.709073 0 0.3631286 -1.718985 0 0.3682193 -1.728662 0 0.3734408 -1.738103 0 0.378782 -1.747307 0 0.3842317 -1.756274 0 0.3897788 -1.765003 0 0.395412 -1.773493 0 0.4011202 -1.781744 0 0.4068922 -1.789754 0 0.4127168 -1.797523 0 0.4185829 -1.80505 0 0.4244792 -1.812334 0 0.4303946 -1.819375 0 0.4363179 -1.826172 0 0.442238 -1.832724 0 0.4481436 -1.83903 0 0.4540235 -1.845091 0 0.4598667 -1.850904 0 0.4656618 -1.856469 0 0.4713978 -1.861786 0 0.4770634 -1.866853 0 0.4826475 -1.87167 0 0.4881389 -1.876237 0 0.4935264 -1.880551 0 0.4987989 -1.884614 0 0.5039451 -1.888424 0 0.5089538 -1.891979 0 0.513814 -1.89528 0 0.5185144 -1.898326 0 0.5230438 -1.901116 0 0.5273911 -1.903649 0 0.5315451 -1.905925 0 0.5354945 -1.907942 0 0.5392283 -1.9097 0 0.5427353 -1.911199 0 0.5460038 -1.912437 0 0.550747 -1.914374 0 0.555572 -1.916863 0 0.5604721 -1.919889 0 0.5654405 -1.923435 0 0.5704705 -1.927484 0 0.5755553 -1.93202 0 0.5806881 -1.937026 0 0.5858623 -1.942485 0 0.591071 -1.948381 0 0.5963074 -1.954697 0 0.6015648 -1.961416 0 0.6068365 -1.968523 0 0.6121157 -1.976 0 0.6173956 -1.983831 0 0.6226695 -1.991999 0 0.6279305 -2.000487 0 0.633172 -2.00928 0 0.6383872 -2.018359 0 0.6435692 -2.02771 0 0.6487114 -2.037314 0 0.653807 -2.047156 0 0.6588492 -2.057219 0 0.6638312 -2.067486 0 0.6687464 -2.077941 0 0.6735879 -2.088567 0 0.678349 -2.099347 0 0.6830229 -2.110265 0 0.6876029 -2.121305 0 0.6920821 -2.132449 0 0.6964539 -2.143681 0 0.7007114 -2.154984 0 0.7048479 -2.166343 0 0.7088567 -2.177739 0 0.7127309 -2.189157 0 0.7164639 -2.20058 0 0.7200488 -2.211991 0 0.7234789 -2.223374 0 0.7267475 -2.234713 0 0.7298477 -2.245989 0 0.7327728 -2.257188 0 0.735516 -2.268292 0 0.7380707 -2.279285 0 0.7404299 -2.29015 0 0.742587 -2.30087 0 0.7445353 -2.311429 0 0.7462678 -2.32181 0 0.7477779 -2.331998 0 0.7490589 -2.341974 0 0.7501039 -2.351722 0 0.7509062 -2.361227 0 0.751459 -2.370471 0 0.7517555 -2.379437 0 0.751789 -2.388109 0 0.7515528 -2.396471 0 0.7510401 -2.404505 0 0.7502441 -2.412196 0 0.749158 -2.419527 0 0.7477752 -2.42648 0 0.7460888 -2.433039 0 0.744092 -2.439189 0 0.7417781 -2.444911 0 0.7391405 -2.45019 0 0.7361721 -2.455009 0 0.7328665 -2.459352 0 -0.2698118 2.437475 5 -0.2711652 2.417651 5 -0.2719386 2.398478 5 -0.2721513 2.379942 5 -0.2718224 2.36203 5 -0.2709711 2.344727 5 -0.2696167 2.328021 5 -0.2677782 2.311897 5 -0.265475 2.296341 5 -0.2627263 2.28134 5 -0.2595512 2.26688 5 -0.2559689 2.252948 5 -0.2519987 2.239529 5 -0.2476598 2.22661 5 -0.2429713 2.214177 5 -0.2379524 2.202217 5 -0.2326224 2.190715 5 -0.2270004 2.179659 5 -0.2211057 2.169033 5 -0.2149575 2.158825 5 -0.2085749 2.149021 5 -0.2019772 2.139606 5 -0.1951836 2.130568 5 -0.1882132 2.121892 5 -0.1810853 2.113566 5 -0.1738191 2.105574 5 -0.1664338 2.097903 5 -0.1589485 2.090541 5 -0.1513825 2.083472 5 -0.143755 2.076683 5 -0.1360852 2.07016 5 -0.1283922 2.06389 5 -0.1206954 2.057859 5 -0.1130139 2.052053 5 -0.1053668 2.046458 5 -0.09777343 2.041062 5 -0.09025299 2.035849 5 -0.08282464 2.030806 5 -0.07550764 2.025919 5 -0.06832104 2.021176 5 -0.06128424 2.016561 5 -0.05441623 2.012062 5 -0.04773646 2.007664 5 -0.04126393 2.003354 5 -0.03501796 1.999118 5 -0.0290178 1.994942 5 -0.0232824 1.990813 5 -0.01783126 1.986717 5 -0.01268339 1.982639 5 -0.007858037 1.978568 5 -0.003374338 1.974487 5 7.48256e-4 1.970385 5 0.004490733 1.966247 5 0.007834017 1.962059 5 0.01075857 1.957808 5 0.01324558 1.95348 5 0.01527553 1.949061 5 0.01682943 1.944537 5 0.01788789 1.939895 5 0.01843184 1.935121 5 0.01844203 1.930202 5 0.01789927 1.925123 5 0.01678431 1.919871 5 0.01507794 1.914431 5 0.01276093 1.908791 5 0.009089827 1.90229 5 0.003914058 1.89548 5 -0.002716541 1.888371 5 -0.01075232 1.880971 5 -0.02014333 1.87329 5 -0.03083992 1.865337 5 -0.04279232 1.857121 5 -0.05595058 1.848652 5 -0.07026505 1.839939 5 -0.0856859 1.830992 5 -0.1021633 1.821819 5 -0.1196476 1.812429 5 -0.1380889 1.802833 5 -0.1574375 1.79304 5 -0.1776434 1.783058 5 -0.198657 1.772898 5 -0.2204287 1.762568 5 -0.2429082 1.752077 5 -0.2660462 1.741436 5 -0.2897927 1.730652 5 -0.314098 1.719737 5 -0.3389121 1.708698 5 -0.3641855 1.697545 5 -0.3898683 1.686288 5 -0.4159106 1.674936 5 -0.4422628 1.663498 5 -0.4688749 1.651983 5 -0.4956974 1.640401 5 -0.5226803 1.628761 5 -0.5497739 1.617072 5 -0.5769283 1.605343 5 -0.6040939 1.593585 5 -0.6312208 1.581805 5 -0.6582592 1.570015 5 -0.6851594 1.558222 5 -0.7118715 1.546436 5 -0.7383458 1.534666 5 -0.7645325 1.522922 5 -0.7903818 1.511213 5 -0.8158439 1.499548 5 -0.840869 1.487937 5 -0.8654074 1.476389 5 -0.8894093 1.464913 5 -0.9128248 1.453518 5 -0.9356042 1.442214 5 -0.9576977 1.43101 5 -0.9790555 1.419915 5 -0.9996279 1.40894 5 -1.019365 1.398092 5 -1.038217 1.387381 5 -1.056134 1.376817 5 -1.073067 1.366409 5 -1.088965 1.356165 5 -1.103779 1.346097 5 -1.11746 1.336212 5 -1.129956 1.32652 5 -1.141219 1.31703 5 -1.151198 1.307752 5 -1.159845 1.298695 5 -1.167108 1.289869 5 -1.172939 1.281281 5 -1.177287 1.272943 5 -1.180104 1.264863 5 -1.181337 1.25705 5 -1.180656 1.25034 5 -1.177939 1.243185 5 -1.173253 1.235599 5 -1.166663 1.227595 5 -1.158238 1.219185 5 -1.148044 1.210383 5 -1.136148 1.201202 5 -1.122616 1.191655 5 -1.107516 1.181755 5 -1.090915 1.171515 5 -1.07288 1.160948 5 -1.053477 1.150067 5 -1.032773 1.138886 5 -1.010836 1.127418 5 -0.9877313 1.115675 5 -0.9635271 1.103671 5 -0.9382899 1.091418 5 -0.9120866 1.07893 5 -0.884984 1.066221 5 -0.8570491 1.053302 5 -0.8283488 1.040187 5 -0.79895 1.02689 5 -0.7689195 1.013423 5 -0.7383244 0.9997993 5 -0.7072315 0.986032 5 -0.6757076 0.9721343 5 -0.6438198 0.9581192 5 -0.6116349 0.9439999 5 -0.5792198 0.9297894 5 -0.5466415 0.9155008 5 -0.5139667 0.9011471 5 -0.4812625 0.8867416 5 -0.4485958 0.8722972 5 -0.4160333 0.8578271 5 -0.3836421 0.8433443 5 -0.3514891 0.828862 5 -0.3196411 0.8143932 5 -0.288165 0.799951 5 -0.2571278 0.7855485 5 -0.2265964 0.7711988 5 -0.1966376 0.756915 5 -0.1673184 0.7427101 5 -0.1387056 0.7285973 5 -0.1108662 0.7145896 5 -0.08386707 0.7007002 5 -0.05777508 0.6869421 5 -0.0326572 0.6733283 5 -0.008580386 0.6598721 5 0.0143885 0.6465864 5 0.0361827 0.6334844 5 0.05673515 0.6205792 5 0.07597911 0.6078838 5 0.09384751 0.5954114 5 0.1102735 0.583175 5 0.1251901 0.5711876 5 0.1385306 0.5594625 5 0.150228 0.5480127 5 0.1602153 0.5368512 5 0.1684257 0.5259912 5 0.1747923 0.5154458 5 0.1792481 0.505228 5 0.1817263 0.4953509 5 0.18216 0.4858276 5 0.180482 0.4766711 5 0.1743316 0.4577338 5 0.1677865 0.4395862 5 0.1608765 0.4222003 5 0.1536313 0.405548 5 0.1460807 0.3896009 5 0.1382542 0.3743311 5 0.1301817 0.3597102 5 0.121893 0.3457103 5 0.1134176 0.332303 5 0.1047855 0.3194602 5 0.09602612 0.3071539 5 0.0871694 0.2953557 5 0.07824498 0.2840376 5 0.06928265 0.2731714 5 0.06031203 0.2627289 5 0.05136299 0.2526819 5 0.04246509 0.2430024 5 0.03364819 0.2336621 5 0.02494192 0.2246329 5 0.01637601 0.2158865 5 0.007980406 0.207395 5 -2.15459e-4 0.1991299 5 -0.00818175 0.1910635 5 -0.01588869 0.1831673 5 -0.0233066 0.1754131 5 -0.03040581 0.1677729 5 -0.03715664 0.1602185 5 -0.04352915 0.1527217 5 -0.04949373 0.1452544 5 -0.05502068 0.1377884 5 -0.06008028 0.1302955 5 -0.06464278 0.1227476 5 -0.06867843 0.1151165 5 -0.07215756 0.1073741 5 -0.07505035 0.09949213 5 -0.07732719 0.09144252 5 -0.07895827 0.08319711 5 -0.07991391 0.07472771 5 -0.08016431 0.06600612 5 -0.0796799 0.05700421 5 -0.07843083 0.04769378 5 -0.07638734 0.03804677 5 -0.07351982 0.02803504 5 -0.06979852 0.01763015 5 -0.06519365 0.006804347 5 -0.05967551 -0.004470705 5 -0.05321443 -0.01622337 5 -0.04578059 -0.0284816 5 -0.03734433 -0.04127359 5 -0.02787595 -0.05462747 5 -0.01734566 -0.06857156 5 -0.005723834 -0.08313381 5 0.007019281 -0.09834253 5 0.0209136 -0.1142258 5 0.03598856 -0.1308118 5 0.05227416 -0.1481287 5 0.06980001 -0.1662046 5 0.0885958 -0.1850678 5 0.1086912 -0.2047464 5 0.1301161 -0.2252686 5 0.1529 -0.2466624 5 0.177073 -0.2689561 5 0.2026644 -0.2921778 5 0.2297044 -0.316356 5 0.2419603 -0.3276017 5 0.2537038 -0.3391073 5 0.2649433 -0.3508672 5 0.2756869 -0.3628764 5 0.2859427 -0.3751294 5 0.295719 -0.3876209 5 0.305024 -0.4003457 5 0.3138659 -0.4132985 5 0.3222529 -0.426474 5 0.3301931 -0.4398669 5 0.3376947 -0.4534718 5 0.344766 -0.4672836 5 0.3514151 -0.4812968 5 0.3576502 -0.4955062 5 0.3634796 -0.5099065 5 0.3689114 -0.5244925 5 0.3739538 -0.5392587 5 0.378615 -0.5542 5 0.3829032 -0.569311 5 0.3868266 -0.5845864 5 0.3903934 -0.6000209 5 0.3936118 -0.6156092 5 0.39649 -0.6313461 5 0.3990361 -0.6472262 5 0.4012584 -0.6632443 5 0.403165 -0.679395 5 0.4047642 -0.6956731 5 0.4060641 -0.7120732 5 0.407073 -0.7285901 5 0.407799 -0.7452184 5 0.4082503 -0.7619529 5 0.4084352 -0.7787883 5 0.4083617 -0.7957192 5 0.4080382 -0.8127405 5 0.4074727 -0.8298467 5 0.4066736 -0.8470326 5 0.405649 -0.8642929 5 0.404407 -0.8816223 5 0.4029558 -0.8990154 5 0.4013038 -0.9164671 5 0.3994591 -0.933972 5 0.3974298 -0.9515247 5 0.3952241 -0.9691202 5 0.3928503 -0.9867529 5 0.3903166 -1.004418 5 0.387631 -1.022109 5 0.3848019 -1.039822 5 0.3818374 -1.057551 5 0.3787457 -1.075291 5 0.3755351 -1.093036 5 0.3722136 -1.110782 5 0.3687895 -1.128522 5 0.365271 -1.146253 5 0.3616663 -1.163967 5 0.3579836 -1.181661 5 0.354231 -1.199328 5 0.3504168 -1.216964 5 0.3465492 -1.234563 5 0.3426364 -1.25212 5 0.3386864 -1.26963 5 0.3347076 -1.287087 5 0.3307082 -1.304485 5 0.3266962 -1.321821 5 0.32268 -1.339087 5 0.3191124 -1.355281 5 0.3159999 -1.371261 5 0.3133313 -1.387025 5 0.3110953 -1.402574 5 0.3092809 -1.417906 5 0.3078769 -1.433021 5 0.306872 -1.447918 5 0.3062551 -1.462596 5 0.306015 -1.477055 5 0.3061406 -1.491293 5 0.3066206 -1.505311 5 0.3074439 -1.519106 5 0.3085993 -1.53268 5 0.3100756 -1.54603 5 0.3118616 -1.559156 5 0.3139463 -1.572057 5 0.3163183 -1.584733 5 0.3189665 -1.597182 5 0.3218796 -1.609405 5 0.3250467 -1.6214 5 0.3284564 -1.633167 5 0.3320977 -1.644704 5 0.3359591 -1.656011 5 0.3400298 -1.667088 5 0.3442984 -1.677933 5 0.3487538 -1.688546 5 0.3533847 -1.698926 5 0.3581801 -1.709073 5 0.3631286 -1.718985 5 0.3682193 -1.728662 5 0.3734408 -1.738103 5 0.378782 -1.747307 5 0.3842317 -1.756274 5 0.3897788 -1.765003 5 0.395412 -1.773493 5 0.4011202 -1.781744 5 0.4068922 -1.789754 5 0.4127168 -1.797523 5 0.4185829 -1.80505 5 0.4244792 -1.812334 5 0.4303946 -1.819375 5 0.4363179 -1.826172 5 0.442238 -1.832724 5 0.4481436 -1.83903 5 0.4540235 -1.845091 5 0.4598667 -1.850904 5 0.4656618 -1.856469 5 0.4713978 -1.861786 5 0.4770634 -1.866853 5 0.4826475 -1.87167 5 0.4881389 -1.876237 5 0.4935264 -1.880551 5 0.4987989 -1.884614 5 0.5039451 -1.888424 5 0.5089538 -1.891979 5 0.513814 -1.89528 5 0.5185144 -1.898326 5 0.5230438 -1.901116 5 0.5273911 -1.903649 5 0.5315451 -1.905925 5 0.5354945 -1.907942 5 0.5392283 -1.9097 5 0.5427353 -1.911199 5 0.5460038 -1.912437 5 0.550747 -1.914374 5 0.555572 -1.916863 5 0.5604721 -1.919889 5 0.5654405 -1.923435 5 0.5704705 -1.927484 5 0.5755553 -1.93202 5 0.5806881 -1.937026 5 0.5858623 -1.942485 5 0.591071 -1.948381 5 0.5963074 -1.954697 5 0.6015648 -1.961416 5 0.6068365 -1.968523 5 0.6121157 -1.976 5 0.6173956 -1.983831 5 0.6226695 -1.991999 5 0.6279305 -2.000487 5 0.633172 -2.00928 5 0.6383872 -2.018359 5 0.6435692 -2.02771 5 0.6487114 -2.037314 5 0.653807 -2.047156 5 0.6588492 -2.057219 5 0.6638312 -2.067486 5 0.6687464 -2.077941 5 0.6735879 -2.088567 5 0.678349 -2.099347 5 0.6830229 -2.110265 5 0.6876029 -2.121305 5 0.6920821 -2.132449 5 0.6964539 -2.143681 5 0.7007114 -2.154984 5 0.7048479 -2.166343 5 0.7088567 -2.177739 5 0.7127309 -2.189157 5 0.7164639 -2.20058 5 0.7200488 -2.211991 5 0.7234789 -2.223374 5 0.7267475 -2.234713 5 0.7298477 -2.245989 5 0.7327728 -2.257188 5 0.735516 -2.268292 5 0.7380707 -2.279285 5 0.7404299 -2.29015 5 0.742587 -2.30087 5 0.7445353 -2.311429 5 0.7462678 -2.32181 5 0.7477779 -2.331998 5 0.7490589 -2.341974 5 0.7501039 -2.351722 5 0.7509062 -2.361227 5 0.751459 -2.370471 5 0.7517555 -2.379437 5 0.751789 -2.388109 5 0.7515528 -2.396471 5 0.7510401 -2.404505 5 0.7502441 -2.412196 5 0.749158 -2.419527 5 0.7477752 -2.42648 5 0.7460888 -2.433039 5 0.744092 -2.439189 5 0.7417781 -2.444911 5 0.7391405 -2.45019 5 0.7361721 -2.455009 5 0.7328665 -2.459352 5</float_array>
          <technique_common>
            <accessor source="#Mesh-mesh-positions-array" count="898" stride="3">
              <param name="X" type="float"/>
              <param name="Y" type="float"/>
              <param name="Z" type="float"/>
            </accessor>
          </technique_common>
        </source>
        <source id="Mesh-mesh-normals">
          <float_array id="Mesh-mesh-normals-array" count="2205">0.8940498 0.4479675 0 0.8604944 -0.5094599 0 0.8996641 0.4365828 0 0.8452723 -0.5343359 0 0.9049785 0.4254572 0 0.8299495 -0.5578386 0 0.9099982 0.4146124 0 0.814697 -0.5798869 0 0.9147536 0.4040123 0 0.7997371 -0.6003504 0 0.9193055 0.3935448 0 0.7852513 -0.6191772 0 0.9236661 0.3831985 0 0.7714534 -0.6362858 0 0.9278591 0.372931 0 0.7585415 -0.6516248 0 0.9976778 -0.06811195 0 0.9318975 0.3627218 0 0.7467296 -0.6651278 0 0.9991874 -0.04030585 0 0.9358139 0.3524945 0 0.7362073 -0.6767562 0 0.9999342 -0.01147413 0 0.9396316 0.3421878 0 0.7271873 -0.6864392 0 0.9998315 0.01835888 0 0.9433369 0.3318368 0 0.7198606 -0.6941186 0 0.998792 0.04914003 0 0.9469777 0.3212991 0 0.7144419 -0.6996949 0 0.9967299 0.08080691 0 0.9505277 0.31064 0 0.7111069 -0.7030839 0 0.9935626 0.1132846 0 0.9540306 0.2997093 0 0.7100722 -0.7041289 0 0.9892166 0.1464597 0 0.9574735 0.2885215 0 0.7115119 -0.702674 0 0.9836238 0.1802346 0 0.9608735 0.2769877 0 0.7156305 -0.6984792 0 0.9767295 0.2144749 0 0.9642195 0.2651051 0 0.7225987 -0.6912677 0 0.9684967 0.2490263 0 0.9675398 0.2527188 0 0.7325678 -0.6806942 0 0.9589128 0.283701 0 0.9708111 0.2398458 0 0.7456561 -0.6663309 0 0.9479631 0.3183802 0 0.9740441 0.2263586 0 0.7619284 -0.6476614 0 0.9356799 0.3528501 0 0.9772261 0.2122006 0 0.7813394 -0.6241064 0 0.9220985 0.3869554 0 0.9803524 0.1972541 0 0.8037321 -0.5949914 0 0.9073177 0.4204459 0 0.9833991 0.1814563 0 0.8287516 -0.5596167 0 0.8913713 0.4532742 0 0.9863583 0.1646128 0 0.8558034 -0.5173014 0 0.874456 0.485105 0 0.9891927 0.1466212 0 0.8839961 -0.4674942 0 0.8566281 0.5159344 0 0.9918557 0.127367 0 0.9121397 -0.4098795 0 0.8380568 0.5455831 0 0.9943032 0.1065887 0 0.9387714 -0.344541 0 0.8189284 0.5738959 0 0.9964566 0.084109 0 0.9622483 -0.2721732 0 0.7993636 0.6008477 0 0.9982171 0.05969041 0 0.9809904 -0.1940565 0 0.7795748 0.6263093 0 0.9994536 0.03305613 0 0.9936944 -0.1121222 0 0.7596608 0.6503197 0 0.9999926 0.003855705 0 0.9995882 -0.02869838 0 0.7399126 0.6727031 0 0.9996014 -0.0282306 0 0.9985553 0.05373382 0 0.7203765 0.6935833 0 0.9979699 -0.06368803 0 0.9911204 0.1329675 0 0.7012281 0.712937 0 0.9946868 -0.1029477 0 0.9782926 0.2072283 0 0.6827014 0.7306975 0 0.9892041 -0.1465446 0 0.9613461 0.2753432 0 0.6648777 0.7469522 0 0.9807893 -0.1950708 0 0.9415903 0.3367607 0 0.6478673 0.7617532 0 0.9684967 -0.2490264 0 0.9202123 0.3914198 0 0.6317621 0.7751623 0 0.9511285 -0.3087956 0 0.8982 0.4395872 0 0.6167809 0.7871349 0 0.9270716 -0.3748846 0 0.8763058 0.4817554 0 0.6029763 0.7977592 0 0.8945597 -0.4469486 0 0.8550571 0.5185338 0 0.5904549 0.8070707 0 0.8514354 -0.5244596 0 0.834803 0.5505489 0 0.5792772 0.8151308 0 0.7957597 -0.6056127 0 0.8157555 0.578397 0 0.5697051 0.8218493 0 0.7980104 0.6026437 0 0.5616818 0.8273535 0 0.7815992 0.6237811 0 0.5554088 0.8315774 0 0.7665024 0.6422415 0 0.5508454 0.8346073 0 0.7526615 0.6584078 0 0.5483855 0.8362257 0 0.7400102 0.6725957 0 0.547972 0.8364967 0 0.728466 0.685082 0 0.5499112 0.8352233 0 0.7179466 0.6960983 0 0.5542055 0.8323799 0 0.7083715 0.7058399 0 0.5612748 0.8276295 0 0.6996583 0.7144776 0 0.5712733 0.82076 0 0.6917299 0.7221564 0 0.5842658 0.8115624 0 0.6845179 0.7289961 0 0.6006982 0.7994759 0 0.6779536 0.7351047 0 0.620974 0.7838313 0 0.6719884 0.7405617 0 0.6448389 0.7643185 0 0.6665573 0.7454539 0 0.6731176 0.7395355 0 0.6760876 0.7368214 0 0.7053241 0.708885 0 0.6998347 0.7143049 0 0.7416419 0.670796 0 0.7229213 0.6909304 0 0.781533 0.6238641 0 0.745287 0.6667439 0 0.8238625 0.5667898 0 0.7668351 0.6418443 0 0.8670569 0.4982092 0 0.7874961 0.6163197 0 0.9087153 0.4174168 0 0.8072061 0.5902698 0 0.9457743 0.3248245 0 0.8259173 0.5637914 0 0.9749767 0.2223075 0 0.8435862 0.5369939 0 0.9935716 0.1132054 0 0.8601902 0.5099734 0 0.9999979 0.00207138 0 0.875702 0.4828521 0 0.9943383 -0.1062608 0 0.8901242 0.4557182 0 0.9782008 -0.2076615 0 0.9034576 0.4286777 0 0.9541606 -0.2992953 0 0.9157192 0.4018191 0 0.924987 -0.3799986 0 0.9269313 0.3752312 0 0.8707532 -0.4917204 0 0.9371282 0.3489856 0 0.7961526 -0.6050959 0 0.946345 0.3231583 0 0.7312878 -0.682069 0 0.9546247 0.2978118 0 0.6774141 -0.7356019 0 0.9620134 0.2730024 0 0.6331232 -0.774051 0 0.9685628 0.2487692 0 0.5966548 -0.8024981 0 0.974322 0.2251594 0 0.5664752 -0.8240789 0 0.9793447 0.2021977 0 0.5411983 -0.8408951 0 0.9836834 0.1799086 0 0.5199468 -0.8541988 0 0.9873892 0.1583117 0 0.5018396 -0.8649608 0 0.9905128 0.1374213 0 0.4864163 -0.8737272 0 0.993104 0.117237 0 0.473118 -0.8809992 0 0.9952089 0.097772 0 0.4615949 -0.8870909 0 0.9968737 0.07901293 0 0.4515904 -0.8922255 0 0.9981397 0.06096917 0 0.4429122 -0.8965651 0 0.9990482 0.04361987 0 0.4352884 -0.9002911 0 0.9996367 0.02695834 0 0.4286737 -0.9034594 0 0.9999398 0.01098167 0 0.4229102 -0.9061717 0 0.9999906 -0.004340648 0 0.4178286 -0.908526 0 0.9998195 -0.01900231 0 0.4134818 -0.9105125 0 0.999454 -0.03304034 0 0.4096659 -0.9122357 0 0.9989209 -0.04644644 0 0.4064608 -0.9136683 0 0.9982428 -0.05925732 0 0.403731 -0.9148778 0 0.9974415 -0.07148736 0 0.4014343 -0.9158879 0 0.9965375 -0.08314609 0 0.3995971 -0.916691 0 0.9955494 -0.09424126 0 0.3981443 -0.9173228 0 0.9944932 -0.1048019 0 0.3971177 -0.9177677 0 0.9933832 -0.1148465 0 0.3964285 -0.9180657 0 0.9922344 -0.1243826 0 0.3960945 -0.9182099 0 0.9910596 -0.1334206 0 0.3961351 -0.9181923 0 0.98987 -0.141977 0 0.3965299 -0.9180219 0 0.9886729 -0.1500865 0 0.3972119 -0.917727 0 0.9874836 -0.1577219 0 0.3983185 -0.9172472 0 0.9863067 -0.164922 0 0.3997027 -0.9166448 0 0.9851512 -0.1716896 0 0.401508 -0.9158556 0 0.9840234 -0.1780392 0 0.4036836 -0.9148988 0 0.9829311 -0.1839743 0 0.4062452 -0.9137642 0 0.9818774 -0.1895176 0 0.4092082 -0.9124411 0 0.9808745 -0.1946411 0 0.4126154 -0.9109054 0 0.9799169 -0.1994068 0 0.4165024 -0.9091346 0 0.9790202 -0.2037636 0 0.4208779 -0.9071173 0 0.9781767 -0.2077751 0 0.4258082 -0.9048135 0 0.9774026 -0.2113867 0 0.4313628 -0.9021787 0 0.976693 -0.2146413 0 0.437582 -0.8991785 0 0.9760548 -0.2175247 0 0.4445124 -0.8957728 0 0.9754875 -0.2200552 0 0.4522837 -0.8918741 0 0.9749965 -0.2222205 0 0.4609921 -0.8874043 0 0.9745815 -0.2240336 0 0.4706997 -0.8822936 0 0.9742507 -0.2254676 0 0.481662 -0.8763571 0 0.9739975 -0.2265591 0 0.4939935 -0.8694655 0 0.976582 -0.2151456 0 0.5078989 -0.8614168 0 0.981555 -0.19118 0 0.5236567 -0.8519294 0 0.9859724 -0.1669086 0 0.5416497 -0.8406044 0 0.989818 -0.142339 0 0.5620965 -0.8270717 0 0.9930706 -0.1175201 0 0.5856566 -0.8105594 0 0.9957137 -0.092489 0 0.6128796 -0.7901763 0 0.9977325 -0.0673049 0 0.6443491 -0.7647315 0 0.999118 -0.04199236 0 0.6809193 -0.7323585 0 0.9998621 -0.01660466 0 0.7232916 -0.6905428 0 0.9999611 0.008822262 0 0.7721698 -0.6354164 0 0.9994143 0.03422117 0 0.8273172 -0.561735 0 0.9982239 0.05957597 0 0.8866811 -0.4623814 0 0.996397 0.08481121 0 0.9442561 -0.3292118 0 0.993941 0.1099147 0 0.9877765 -0.1558772 0 0.9908694 0.134825 0 0.9948889 0.1009771 0 0.9871941 0.1595239 0 0.9348627 0.3550096 0 0.9829391 0.1839318 0 0.8507746 0.5255308 0 0.9781145 0.2080674 0 0.7720079 0.6356132 0 0.9727554 0.2318342 0 0.7064797 0.7077334 0 0.9668667 0.2552818 0 0.6535297 0.756901 0 0.9604904 0.2783134 0 0.6109665 0.7916566 0 0.9536305 0.3009803 0 0.576478 0.8171128 0 0.9463391 0.3231754 0 0.5482971 0.8362838 0 0.9386233 0.344944 0 0.5249871 0.8511103 0 0.930514 0.3662565 0 0.5055376 0.8628047 0 0.9220488 0.3870739 0 0.4891359 0.8722077 0 0.9132398 0.4074226 0 0.475172 0.879893 0 0.9041146 0.4272904 0 0.4632815 0.8862113 0 0.8946999 0.4466677 0 0.4530943 0.8914627 0 0.8850128 0.4655667 0 0.4443083 0.895874 0 0.8750892 0.4839619 0 0.436753 0.8995814 0 0.864916 0.5019166 0 0.4302256 0.9027215 0 0.8545522 0.5193658 0 0.4245628 0.9053986 0 0.8440052 0.5363351 0 0.4197548 0.9076376 0 0.8332619 0.5528787 0 0.4156283 0.9095345 0 0.8223732 0.5689485 0 0.4121061 0.911136 0 0.8113076 0.5846197 0 0.4091804 0.9124536 0 0.8001211 0.5998386 0 0.4067766 0.9135278 0 0.7887451 0.6147205 0 0.4048656 0.9143762 0 0.7772499 0.6291921 0 0.4033993 0.9150242 0 0.7656438 0.643265 0 0.4023677 0.9154782 0 0.7539198 0.6569666 0 0.4017368 0.9157552 0 0.7419863 0.6704151 0 0.4014998 0.9158592 0 0.7299038 0.68355 0 0.4016568 0.9157904 0 0.7177579 0.6962928 0 0.4021989 0.9155524 0 0.7052861 0.7089229 0 0.4031044 0.915154 0 0.692635 0.7212883 0 0.4044077 0.9145788 0 0.6798329 0.7333671 0 0.4060888 0.9138337 0 0.6666092 0.7454074 0 0.4081801 0.9129014 0 0.6531689 0.7572124 0 0.4106864 0.9117767 0 0.6394226 0.7688556 0 0.4136231 0.9104483 0 0.6250531 0.7805823 0 0.4170271 0.9088941 0 0.6103957 0.7920967 0 0.4209297 0.9070934 0 0.595076 0.8036695 0 0.425361 0.9050238 0 0.5787857 0.8154798 0 0.4303695 0.9026528 0 0.5618826 0.827217 0 0.4360129 0.8999405 0 0.5438283 0.8391966 0 0.4423537 0.8968407 0 0.5244705 0.8514287 0 0.4494703 0.8932953 0 0.5034291 0.8640366 0 0.4574559 0.8892324 0 0.4804863 0.8770023 0 0.4664254 0.8845606 0 0.4547975 0.8905949 0 0.4765073 0.8791706 0 0.4260163 0.9047155 0 0.4878636 0.87292 0 0.3929915 0.9195421 0 0.5006937 0.8656247 0 0.354269 0.9351436 0 0.5152312 0.8570514 0 0.3780844 0.9257712 0 0.5317727 0.8468872 0 0.4584085 0.8887417 0 0.5506712 0.8347223 0 0.5254466 0.8508266 0 0.5723703 0.8199954 0 0.5809434 0.8139441 0 0.5974035 0.8019408 0 0.6270831 0.7789525 0 0.6264213 0.7794848 0 0.6656928 0.746226 0 0.6601645 0.7511211 0 0.6982112 0.7158919 0 0.6995036 0.7146292 0 0.7258018 0.687904 0 0.7452157 0.6668235 0 0.7494566 0.6620535 0 0.7976872 0.6030715 0 0.7698338 0.6382444 0 0.8560812 0.5168415 0 0.7875666 0.6162295 0 0.9166333 0.3997293 0 0.8031728 0.5957462 0 0.9699361 0.2433599 0 0.8168939 0.5767881 0 0.9989647 0.04549205 0 0.8291382 0.5590438 0 0.9836196 -0.1802565 0 0.8400979 0.5424349 0 0.9510965 -0.308894 0 0.8499854 0.5268063 0 0.9406895 -0.3392689 0 0.8589666 0.5120319 0 0.9292916 -0.3693469 0 0.8671203 0.4980989 0 0.9169681 -0.3989608 0 0.8746628 0.4847319 0 0.9038101 -0.4279339 0 0.8815864 0.4720228 0 0.8899154 -0.4561257 0 0.8880498 0.4597474 0 0.8754307 -0.4833438 0 0.8940363 0.4479947 0 0.8604952 -0.5094587 0 0.8996832 0.4365434 0 0.8452715 -0.5343372 0 0.9099926 0.4146247 0 0.8146981 -0.5798854 0 0.7997383 -0.6003488 0 0.9236754 0.3831759 0 0.7714521 -0.6362875 0 0.9278504 0.3729529 0 0.9976778 -0.06811064 0 0.7467312 -0.665126 0 0.9991875 -0.04030424 0 0.7362056 -0.676758 0 0.939639 0.3421675 0 0.7198643 -0.6941149 0 0.9469712 0.3213184 0 0.7144438 -0.6996929 0 0.9967297 0.08080875 0 0.7111089 -0.703082 0 0.993562 0.1132899 0 0.7100692 -0.704132 0 0.9892162 0.1464632 0 0.9574681 0.2885392 0 0.9836245 0.1802302 0 0.9608784 0.2769706 0 0.7156315 -0.6984781 0 0.9767308 0.2144695 0 0.9642219 0.2650968 0 0.7226009 -0.6912655 0 0.967542 0.2527107 0 0.7325667 -0.6806953 0 0.9589107 0.2837085 0 0.9708149 0.2398303 0 0.745653 -0.6663345 0 0.7619274 -0.6476626 0 0.9356834 0.3528406 0 0.9772277 0.2121934 0 0.7813385 -0.6241075 0 0.9803497 0.1972676 0 0.803733 -0.5949901 0 0.8913838 0.4532493 0 0.8558019 -0.5173037 0 0.9891936 0.1466158 0 0.8839955 -0.4674954 0 0.9918563 0.1273622 0 0.838047 0.545598 0 0.9943028 0.1065929 0 0.938771 -0.3445419 0 0.8189393 0.5738803 0 0.9964561 0.08411568 0 0.9622483 -0.2721736 0 0.9982169 0.05969285 0 0.7795612 0.626326 0 0.9994536 0.0330547 0 0.7596461 0.6503369 0 0.9999927 0.003855824 0 0.7398965 0.6727207 0 0.9996015 -0.02822935 0 0.7203937 0.6935654 0 0.9979698 -0.06369102 0 0.7012097 0.7129552 0 0.9946863 -0.1029527 0 0.6826817 0.7307159 0 0.6648361 0.7469894 0 0.9807934 -0.1950502 0 0.9685002 -0.2490128 0 0.9511172 -0.3088303 0 0.8763058 0.4817555 0 0.8945339 -0.4470003 0 0.8550572 0.5185337 0 0.5905073 0.8070324 0 0.8514539 -0.5244295 0 0.7957083 -0.60568 0 0.8157553 0.5783972 0 0.5696488 0.8218882 0 0.5507837 0.8346481 0 0.7526612 0.6584081 0 0.5484489 0.8361841 0 0.7284656 0.6850824 0 0.5499444 0.8352013 0 0.7179475 0.6960973 0 0.5542736 0.8323347 0 0.5613095 0.8276061 0 0.5712382 0.8207844 0 0.5842303 0.8115881 0 0.6845186 0.7289954 0 0.600734 0.799449 0 0.6779544 0.735104 0 0.6209383 0.7838596 0 0.6719876 0.7405624 0 0.666558 0.7454532 0 0.6760891 0.7368199 0 0.7416727 0.6707621 0 0.7229228 0.6909289 0 0.7815052 0.6238988 0 0.8670379 0.4982422 0 0.7874927 0.616324 0 0.9086879 0.4174764 0 0.8072072 0.5902683 0 0.9457659 0.324849 0 0.9749727 0.2223249 0 0.860187 0.5099788 0 0.9999979 0.002071261 0 0.8757006 0.4828547 0 0.9943391 -0.1062529 0 0.8901228 0.4557207 0 0.9034552 0.4286825 0 0.9541665 -0.2992762 0 0.9269304 0.3752334 0 0.9546241 0.2978135 0 0.6773953 -0.7356193 0 0.9620143 0.2729992 0 0.6331044 -0.7740665 0 0.9685624 0.2487707 0 0.9743223 0.2251581 0 0.9793445 0.2021989 0 0.5412155 -0.840884 0 0.9836835 0.1799075 0 0.987389 0.1583136 0 0.9905129 0.1374205 0 0.4864009 -0.8737359 0 0.9931041 0.1172363 0 0.4731479 -0.8809831 0 0.995209 0.09777086 0 0.4616093 -0.8870833 0 0.9996367 0.02695786 0 0.4286608 -0.9034656 0 0.9999397 0.01098179 0 0.4228975 -0.9061776 0 0.4178162 -0.9085316 0 0.9998195 -0.01900243 0 0.4134939 -0.9105069 0 0.999454 -0.03303998 0 0.9982428 -0.05925798 0 0.4014456 -0.915883 0 0.9955496 -0.09423923 0 0.3981555 -0.917318 0 0.3964174 -0.9180704 0 0.3961054 -0.9182051 0 0.3961459 -0.9181876 0 0.396519 -0.9180266 0 0.3972228 -0.9177223 0 0.9874841 -0.1577186 0 0.4036726 -0.9149035 0 0.4062398 -0.9137666 0 0.981877 -0.1895196 0 0.4091972 -0.912446 0 0.9808742 -0.1946431 0 0.412621 -0.9109029 0 0.9799165 -0.1994088 0 0.9790198 -0.2037656 0 0.9781771 -0.2077729 0 0.425814 -0.9048108 0 0.9774031 -0.2113845 0 0.4313569 -0.9021815 0 0.9766935 -0.2146391 0 0.4375761 -0.8991815 0 0.9760543 -0.217527 0 0.4445184 -0.8957698 0 0.9754869 -0.2200576 0 0.9745809 -0.2240359 0 0.4706869 -0.8823003 0 0.9742518 -0.2254629 0 0.9739969 -0.2265615 0 0.4940069 -0.8694581 0 0.9815546 -0.1911822 0 0.5236428 -0.8519379 0 0.9859721 -0.1669106 0 0.5416426 -0.840609 0 0.9898177 -0.1423407 0 0.5621038 -0.8270667 0 0.5856492 -0.8105648 0 0.6128721 -0.7901822 0 0.9977326 -0.06730318 0 0.6809043 -0.7323725 0 0.9998623 -0.01660418 0 0.827323 -0.5617265 0 0.9982237 0.0595768 0 0.9963971 0.08481001 0 0.9442586 -0.3292049 0 0.993941 0.1099162 0 0.9877753 -0.1558847 0 0.9908699 0.1348211 0 0.9948885 0.1009799 0 0.9871945 0.1595216 0 0.9348658 0.3550013 0 0.8507687 0.5255404 0 0.7720153 0.6356041 0 0.7064716 0.7077414 0 0.9668627 0.255297 0 0.6535459 0.756887 0 0.9604879 0.2783217 0 0.6109744 0.7916504 0 0.9536275 0.3009894 0 0.5764856 0.8171074 0 0.9463358 0.3231852 0 0.9386271 0.3449335 0 0.9305183 0.3662453 0 0.5055308 0.8628087 0 0.9220438 0.3870857 0 0.4891229 0.872215 0 0.9132343 0.4074351 0 0.4751783 0.8798896 0 0.9041208 0.4272773 0 0.4530884 0.8914657 0 0.4443027 0.8958768 0 0.8750725 0.4839918 0 0.4367586 0.8995789 0 0.864907 0.5019322 0 0.4302202 0.9027241 0 0.8545619 0.5193496 0 0.4245576 0.905401 0 0.8439946 0.5363518 0 0.4156233 0.9095368 0 0.8223855 0.5689307 0 0.4091852 0.9124515 0 0.8000928 0.5998763 0 0.4067861 0.9135236 0 0.4048703 0.9143741 0 0.777266 0.6291722 0 0.7656781 0.6432241 0 0.4023631 0.9154802 0 0.7538832 0.6570086 0 0.7419669 0.6704365 0 0.4015043 0.9158573 0 0.7298831 0.683572 0 0.4016612 0.9157884 0 0.4021899 0.9155563 0 0.7052628 0.708946 0 0.4044033 0.9145808 0 0.6798067 0.7333914 0 0.6666371 0.7453825 0 0.4081757 0.9129034 0 0.6531985 0.7571867 0 0.4106774 0.9117807 0 0.6394542 0.7688293 0 0.6250194 0.7806093 0 0.4170294 0.9088931 0 0.4209274 0.9070944 0 0.594999 0.8037265 0 0.4253587 0.9050249 0 0.4303672 0.9026539 0 0.5618382 0.8272472 0 0.5244185 0.8514606 0 0.4574534 0.8892337 0 0.4805483 0.8769684 0 0.4664229 0.884562 0 0.4548657 0.8905601 0 0.4262442 0.9046083 0 0.4262442 0.9046083 0 0.4262442 0.9046083 0 0.4878609 0.8729214 0 0.3926352 0.9196943 0 0.3926352 0.9196943 -5.74478e-7 0.3926352 0.9196943 0 0.5006963 0.8656231 0 0.3541736 0.9351798 0 0.5152339 0.8570497 0 0.3780206 0.9257972 0 0.458464 0.8887131 0 0.5506742 0.8347204 0 0.5809019 0.8139737 0 0.5973976 0.8019453 0 0.6270473 0.7789813 0 0.6264152 0.7794896 0 0.6656616 0.7462538 0 0.6601676 0.7511184 0 0.6995006 0.714632 0 0.7257778 0.6879293 0 0.7452213 0.6668173 0 0.7494141 0.6621016 0 0.7976898 0.6030681 0 0.8560791 0.5168449 0 0.7875496 0.6162513 0 0.9166346 0.3997262 0 0.8031575 0.5957667 0 0.8169078 0.5767684 0 0.8291508 0.559025 0 0.9836201 -0.1802546 0 0.8499642 0.5268405 0 0.9406901 -0.3392673 0 0.9292924 -0.3693452 0 0.8746796 0.4847016 0 0.889916 -0.4561246 0 0.8880353 0.4597755 0 0.8754314 -0.4833426 0</float_array>
          <technique_common>
            <accessor source="#Mesh-mesh-normals-array" count="735" stride="3">
              <param name="X" type="float"/>
              <param name="Y" type="float"/>
              <param name="Z" type="float"/>
            </accessor>
          </technique_common>
        </source>
        <vertices id="Mesh-mesh-vertices">
          <input semantic="POSITION" source="#Mesh-mesh-positions"/>
        </vertices>
        <triangles count="896">
          <input semantic="VERTEX" source="#Mesh-mesh-vertices" offset="0"/>
          <input semantic="NORMAL" source="#Mesh-mesh-normals" offset="1"/>
          <p>405 0 855 0 406 0 199 1 649 1 200 1 406 2 856 2 407 2 200 3 650 3 201 3 407 4 857 4 408 4 201 5 651 5 202 5 408 6 858 6 409 6 202 7 652 7 203 7 409 8 859 8 410 8 203 9 653 9 204 9 410 10 860 10 411 10 204 11 654 11 205 11 411 12 861 12 412 12 205 13 655 13 206 13 412 14 862 14 413 14 206 15 656 15 207 15 0 16 450 16 1 16 413 17 863 17 414 17 207 18 657 18 208 18 1 19 451 19 2 19 414 20 864 20 415 20 208 21 658 21 209 21 2 22 452 22 3 22 415 23 865 23 416 23 209 24 659 24 210 24 3 25 453 25 4 25 416 26 866 26 417 26 210 27 660 27 211 27 4 28 454 28 5 28 417 29 867 29 418 29 211 30 661 30 212 30 5 31 455 31 6 31 418 32 868 32 419 32 212 33 662 33 213 33 6 34 456 34 7 34 419 35 869 35 420 35 213 36 663 36 214 36 7 37 457 37 8 37 420 38 870 38 421 38 214 39 664 39 215 39 8 40 458 40 9 40 421 41 871 41 422 41 215 42 665 42 216 42 9 43 459 43 10 43 422 44 872 44 423 44 216 45 666 45 217 45 10 46 460 46 11 46 423 47 873 47 424 47 217 48 667 48 218 48 11 49 461 49 12 49 424 50 874 50 425 50 218 51 668 51 219 51 12 52 462 52 13 52 425 53 875 53 426 53 219 54 669 54 220 54 13 55 463 55 14 55 426 56 876 56 427 56 220 57 670 57 221 57 14 58 464 58 15 58 427 59 877 59 428 59 221 60 671 60 222 60 15 61 465 61 16 61 428 62 878 62 429 62 222 63 672 63 223 63 16 64 466 64 17 64 429 65 879 65 430 65 223 66 673 66 224 66 17 67 467 67 18 67 430 68 880 68 431 68 224 69 674 69 225 69 18 70 468 70 19 70 431 71 881 71 432 71 225 72 675 72 226 72 19 73 469 73 20 73 432 74 882 74 433 74 226 75 676 75 227 75 20 76 470 76 21 76 433 77 883 77 434 77 227 78 677 78 228 78 21 79 471 79 22 79 434 80 884 80 435 80 228 81 678 81 229 81 22 82 472 82 23 82 435 83 885 83 436 83 229 84 679 84 230 84 23 85 473 85 24 85 436 86 886 86 437 86 230 87 680 87 231 87 24 88 474 88 25 88 437 89 887 89 438 89 231 90 681 90 232 90 25 91 475 91 26 91 438 92 888 92 439 92 232 93 682 93 233 93 26 94 476 94 27 94 439 95 889 95 440 95 233 96 683 96 234 96 27 97 477 97 28 97 440 98 890 98 441 98 234 99 684 99 235 99 28 100 478 100 29 100 441 101 891 101 442 101 235 102 685 102 236 102 29 103 479 103 30 103 442 104 892 104 443 104 236 105 686 105 237 105 30 106 480 106 31 106 443 107 893 107 444 107 237 108 687 108 238 108 31 109 481 109 32 109 444 110 894 110 445 110 238 111 688 111 239 111 32 112 482 112 33 112 445 113 895 113 446 113 239 114 689 114 240 114 33 115 483 115 34 115 446 116 896 116 447 116 240 117 690 117 241 117 34 118 484 118 35 118 447 119 897 119 448 119 241 120 691 120 242 120 35 121 485 121 36 121 242 122 692 122 243 122 36 123 486 123 37 123 243 124 693 124 244 124 37 125 487 125 38 125 244 126 694 126 245 126 38 127 488 127 39 127 245 128 695 128 246 128 39 129 489 129 40 129 246 130 696 130 247 130 40 131 490 131 41 131 247 132 697 132 248 132 41 133 491 133 42 133 248 134 698 134 249 134 42 135 492 135 43 135 249 136 699 136 250 136 43 137 493 137 44 137 250 138 700 138 251 138 44 139 494 139 45 139 251 140 701 140 252 140 45 141 495 141 46 141 252 142 702 142 253 142 46 143 496 143 47 143 253 144 703 144 254 144 47 145 497 145 48 145 254 146 704 146 255 146 48 147 498 147 49 147 255 148 705 148 256 148 49 149 499 149 50 149 256 150 706 150 257 150 50 151 500 151 51 151 257 152 707 152 258 152 51 153 501 153 52 153 258 154 708 154 259 154 52 155 502 155 53 155 259 156 709 156 260 156 53 157 503 157 54 157 260 158 710 158 261 158 54 159 504 159 55 159 261 160 711 160 262 160 55 161 505 161 56 161 262 162 712 162 263 162 56 163 506 163 57 163 263 164 713 164 264 164 57 165 507 165 58 165 264 166 714 166 265 166 58 167 508 167 59 167 265 168 715 168 266 168 59 169 509 169 60 169 266 170 716 170 267 170 60 171 510 171 61 171 267 172 717 172 268 172 61 173 511 173 62 173 268 174 718 174 269 174 62 175 512 175 63 175 269 176 719 176 270 176 63 177 513 177 64 177 270 178 720 178 271 178 64 179 514 179 65 179 271 180 721 180 272 180 65 181 515 181 66 181 272 182 722 182 273 182 66 183 516 183 67 183 273 184 723 184 274 184 67 185 517 185 68 185 274 186 724 186 275 186 68 187 518 187 69 187 275 188 725 188 276 188 69 189 519 189 70 189 276 190 726 190 277 190 70 191 520 191 71 191 277 192 727 192 278 192 71 193 521 193 72 193 278 194 728 194 279 194 72 195 522 195 73 195 279 196 729 196 280 196 73 197 523 197 74 197 280 198 730 198 281 198 74 199 524 199 75 199 281 200 731 200 282 200 75 201 525 201 76 201 282 202 732 202 283 202 76 203 526 203 77 203 283 204 733 204 284 204 77 205 527 205 78 205 284 206 734 206 285 206 78 207 528 207 79 207 285 208 735 208 286 208 79 209 529 209 80 209 286 210 736 210 287 210 80 211 530 211 81 211 287 212 737 212 288 212 81 213 531 213 82 213 288 214 738 214 289 214 82 215 532 215 83 215 289 216 739 216 290 216 83 217 533 217 84 217 290 218 740 218 291 218 84 219 534 219 85 219 291 220 741 220 292 220 85 221 535 221 86 221 292 222 742 222 293 222 86 223 536 223 87 223 293 224 743 224 294 224 87 225 537 225 88 225 294 226 744 226 295 226 88 227 538 227 89 227 295 228 745 228 296 228 89 229 539 229 90 229 296 230 746 230 297 230 90 231 540 231 91 231 297 232 747 232 298 232 91 233 541 233 92 233 298 234 748 234 299 234 92 235 542 235 93 235 299 236 749 236 300 236 93 237 543 237 94 237 300 238 750 238 301 238 94 239 544 239 95 239 301 240 751 240 302 240 95 241 545 241 96 241 302 242 752 242 303 242 96 243 546 243 97 243 303 244 753 244 304 244 97 245 547 245 98 245 304 246 754 246 305 246 98 247 548 247 99 247 305 248 755 248 306 248 99 249 549 249 100 249 306 250 756 250 307 250 100 251 550 251 101 251 307 252 757 252 308 252 101 253 551 253 102 253 308 254 758 254 309 254 102 255 552 255 103 255 309 256 759 256 310 256 103 257 553 257 104 257 310 258 760 258 311 258 104 259 554 259 105 259 311 260 761 260 312 260 105 261 555 261 106 261 312 262 762 262 313 262 106 263 556 263 107 263 313 264 763 264 314 264 107 265 557 265 108 265 314 266 764 266 315 266 108 267 558 267 109 267 315 268 765 268 316 268 109 269 559 269 110 269 316 270 766 270 317 270 110 271 560 271 111 271 317 272 767 272 318 272 111 273 561 273 112 273 318 274 768 274 319 274 112 275 562 275 113 275 319 276 769 276 320 276 113 277 563 277 114 277 320 278 770 278 321 278 114 279 564 279 115 279 321 280 771 280 322 280 115 281 565 281 116 281 322 282 772 282 323 282 116 283 566 283 117 283 323 284 773 284 324 284 117 285 567 285 118 285 324 286 774 286 325 286 118 287 568 287 119 287 325 288 775 288 326 288 119 289 569 289 120 289 326 290 776 290 327 290 120 291 570 291 121 291 327 292 777 292 328 292 121 293 571 293 122 293 328 294 778 294 329 294 122 295 572 295 123 295 329 296 779 296 330 296 123 297 573 297 124 297 330 298 780 298 331 298 124 299 574 299 125 299 331 300 781 300 332 300 125 301 575 301 126 301 332 302 782 302 333 302 126 303 576 303 127 303 333 304 783 304 334 304 127 305 577 305 128 305 334 306 784 306 335 306 128 307 578 307 129 307 335 308 785 308 336 308 129 309 579 309 130 309 336 310 786 310 337 310 130 311 580 311 131 311 337 312 787 312 338 312 131 313 581 313 132 313 338 314 788 314 339 314 132 315 582 315 133 315 339 316 789 316 340 316 133 317 583 317 134 317 340 318 790 318 341 318 134 319 584 319 135 319 341 320 791 320 342 320 135 321 585 321 136 321 342 322 792 322 343 322 136 323 586 323 137 323 343 324 793 324 344 324 137 325 587 325 138 325 344 326 794 326 345 326 138 327 588 327 139 327 345 328 795 328 346 328 139 329 589 329 140 329 346 330 796 330 347 330 140 331 590 331 141 331 347 332 797 332 348 332 141 333 591 333 142 333 348 334 798 334 349 334 142 335 592 335 143 335 349 336 799 336 350 336 143 337 593 337 144 337 350 338 800 338 351 338 144 339 594 339 145 339 351 340 801 340 352 340 145 341 595 341 146 341 352 342 802 342 353 342 146 343 596 343 147 343 353 344 803 344 354 344 147 345 597 345 148 345 354 346 804 346 355 346 148 347 598 347 149 347 355 348 805 348 356 348 149 349 599 349 150 349 356 350 806 350 357 350 150 351 600 351 151 351 357 352 807 352 358 352 151 353 601 353 152 353 358 354 808 354 359 354 152 355 602 355 153 355 359 356 809 356 360 356 153 357 603 357 154 357 360 358 810 358 361 358 154 359 604 359 155 359 361 360 811 360 362 360 155 361 605 361 156 361 362 362 812 362 363 362 156 363 606 363 157 363 363 364 813 364 364 364 157 365 607 365 158 365 364 366 814 366 365 366 158 367 608 367 159 367 365 368 815 368 366 368 159 369 609 369 160 369 366 370 816 370 367 370 160 371 610 371 161 371 367 372 817 372 368 372 161 373 611 373 162 373 368 374 818 374 369 374 162 375 612 375 163 375 369 376 819 376 370 376 163 377 613 377 164 377 370 378 820 378 371 378 164 379 614 379 165 379 371 380 821 380 372 380 165 381 615 381 166 381 372 382 822 382 373 382 166 383 616 383 167 383 373 384 823 384 374 384 167 385 617 385 168 385 374 386 824 386 375 386 168 387 618 387 169 387 375 388 825 388 376 388 169 389 619 389 170 389 376 390 826 390 377 390 170 391 620 391 171 391 377 392 827 392 378 392 171 393 621 393 172 393 378 394 828 394 379 394 172 395 622 395 173 395 379 396 829 396 380 396 173 397 623 397 174 397 380 398 830 398 381 398 174 399 624 399 175 399 381 400 831 400 382 400 175 401 625 401 176 401 382 402 832 402 383 402 176 403 626 403 177 403 383 404 833 404 384 404 177 405 627 405 178 405 384 406 834 406 385 406 178 407 628 407 179 407 385 408 835 408 386 408 179 409 629 409 180 409 386 410 836 410 387 410 180 411 630 411 181 411 387 412 837 412 388 412 181 413 631 413 182 413 388 414 838 414 389 414 182 415 632 415 183 415 389 416 839 416 390 416 183 417 633 417 184 417 390 418 840 418 391 418 184 419 634 419 185 419 391 420 841 420 392 420 185 421 635 421 186 421 392 422 842 422 393 422 186 423 636 423 187 423 393 424 843 424 394 424 187 425 637 425 188 425 394 426 844 426 395 426 188 427 638 427 189 427 395 428 845 428 396 428 189 429 639 429 190 429 396 430 846 430 397 430 190 431 640 431 191 431 397 432 847 432 398 432 191 433 641 433 192 433 398 434 848 434 399 434 192 435 642 435 193 435 399 436 849 436 400 436 193 437 643 437 194 437 400 438 850 438 401 438 194 439 644 439 195 439 401 440 851 440 402 440 195 441 645 441 196 441 402 442 852 442 403 442 196 443 646 443 197 443 403 444 853 444 404 444 197 445 647 445 198 445 404 446 854 446 405 446 198 447 648 447 199 447 405 448 854 448 855 448 199 449 648 449 649 449 406 450 855 450 856 450 200 451 649 451 650 451 407 4 856 4 857 4 201 5 650 5 651 5 408 452 857 452 858 452 202 453 651 453 652 453 409 8 858 8 859 8 203 454 652 454 653 454 410 10 859 10 860 10 204 11 653 11 654 11 411 455 860 455 861 455 205 456 654 456 655 456 412 457 861 457 862 457 206 15 655 15 656 15 0 458 449 458 450 458 413 17 862 17 863 17 207 459 656 459 657 459 1 460 450 460 451 460 414 20 863 20 864 20 208 461 657 461 658 461 2 22 451 22 452 22 415 462 864 462 865 462 209 24 658 24 659 24 3 25 452 25 453 25 416 26 865 26 866 26 210 463 659 463 660 463 4 28 453 28 454 28 417 464 866 464 867 464 211 465 660 465 661 465 5 466 454 466 455 466 418 32 867 32 868 32 212 467 661 467 662 467 6 468 455 468 456 468 419 35 868 35 869 35 213 469 662 469 663 469 7 470 456 470 457 470 420 471 869 471 870 471 214 39 663 39 664 39 8 472 457 472 458 472 421 473 870 473 871 473 215 474 664 474 665 474 9 475 458 475 459 475 422 476 871 476 872 476 216 477 665 477 666 477 10 46 459 46 460 46 423 478 872 478 873 478 217 479 666 479 667 479 11 480 460 480 461 480 424 481 873 481 874 481 218 482 667 482 668 482 12 52 461 52 462 52 425 53 874 53 875 53 219 483 668 483 669 483 13 484 462 484 463 484 426 485 875 485 876 485 220 486 669 486 670 486 14 58 463 58 464 58 427 487 876 487 877 487 221 488 670 488 671 488 15 61 464 61 465 61 428 62 877 62 878 62 222 63 671 63 672 63 16 489 465 489 466 489 429 65 878 65 879 65 223 490 672 490 673 490 17 67 466 67 467 67 430 491 879 491 880 491 224 492 673 492 674 492 18 70 467 70 468 70 431 493 880 493 881 493 225 72 674 72 675 72 19 494 468 494 469 494 432 495 881 495 882 495 226 496 675 496 676 496 20 497 469 497 470 497 433 498 882 498 883 498 227 499 676 499 677 499 21 79 470 79 471 79 434 500 883 500 884 500 228 81 677 81 678 81 22 501 471 501 472 501 435 502 884 502 885 502 229 84 678 84 679 84 23 503 472 503 473 503 436 504 885 504 886 504 230 87 679 87 680 87 24 505 473 505 474 505 437 506 886 506 887 506 231 90 680 90 681 90 25 507 474 507 475 507 438 508 887 508 888 508 232 93 681 93 682 93 26 509 475 509 476 509 439 510 888 510 889 510 233 96 682 96 683 96 27 511 476 511 477 511 440 98 889 98 890 98 234 99 683 99 684 99 28 512 477 512 478 512 441 513 890 513 891 513 235 102 684 102 685 102 29 103 478 103 479 103 442 514 891 514 892 514 236 105 685 105 686 105 30 106 479 106 480 106 443 515 892 515 893 515 237 108 686 108 687 108 31 109 480 109 481 109 444 110 893 110 894 110 238 516 687 516 688 516 32 112 481 112 482 112 445 517 894 517 895 517 239 518 688 518 689 518 33 519 482 519 483 519 446 520 895 520 896 520 240 117 689 117 690 117 34 118 483 118 484 118 447 521 896 521 897 521 241 522 690 522 691 522 35 523 484 523 485 523 242 122 691 122 692 122 36 123 485 123 486 123 243 124 692 124 693 124 37 125 486 125 487 125 244 126 693 126 694 126 38 524 487 524 488 524 245 525 694 525 695 525 39 526 488 526 489 526 246 130 695 130 696 130 40 131 489 131 490 131 247 527 696 527 697 527 41 528 490 528 491 528 248 529 697 529 698 529 42 530 491 530 492 530 249 136 698 136 699 136 43 531 492 531 493 531 250 138 699 138 700 138 44 532 493 532 494 532 251 140 700 140 701 140 45 533 494 533 495 533 252 534 701 534 702 534 46 535 495 535 496 535 253 536 702 536 703 536 47 537 496 537 497 537 254 538 703 538 704 538 48 147 497 147 498 147 255 539 704 539 705 539 49 149 498 149 499 149 256 540 705 540 706 540 50 151 499 151 500 151 257 152 706 152 707 152 51 541 500 541 501 541 258 542 707 542 708 542 52 543 501 543 502 543 259 156 708 156 709 156 53 157 502 157 503 157 260 158 709 158 710 158 54 544 503 544 504 544 261 545 710 545 711 545 55 546 504 546 505 546 262 547 711 547 712 547 56 548 505 548 506 548 263 164 712 164 713 164 57 549 506 549 507 549 264 166 713 166 714 166 58 167 507 167 508 167 265 550 714 550 715 550 59 551 508 551 509 551 266 552 715 552 716 552 60 553 509 553 510 553 267 554 716 554 717 554 61 173 510 173 511 173 268 555 717 555 718 555 62 556 511 556 512 556 269 176 718 176 719 176 63 177 512 177 513 177 270 557 719 557 720 557 64 179 513 179 514 179 271 180 720 180 721 180 65 181 514 181 515 181 272 182 721 182 722 182 66 183 515 183 516 183 273 558 722 558 723 558 67 559 516 559 517 559 274 560 723 560 724 560 68 561 517 561 518 561 275 562 724 562 725 562 69 189 518 189 519 189 276 563 725 563 726 563 70 191 519 191 520 191 277 564 726 564 727 564 71 565 520 565 521 565 278 566 727 566 728 566 72 195 521 195 522 195 279 567 728 567 729 567 73 197 522 197 523 197 280 568 729 568 730 568 74 569 523 569 524 569 281 570 730 570 731 570 75 571 524 571 525 571 282 572 731 572 732 572 76 573 525 573 526 573 283 204 732 204 733 204 77 205 526 205 527 205 284 206 733 206 734 206 78 207 527 207 528 207 285 208 734 208 735 208 79 209 528 209 529 209 286 574 735 574 736 574 80 575 529 575 530 575 287 576 736 576 737 576 81 577 530 577 531 577 288 214 737 214 738 214 82 578 531 578 532 578 289 579 738 579 739 579 83 580 532 580 533 580 290 581 739 581 740 581 84 219 533 219 534 219 291 220 740 220 741 220 85 221 534 221 535 221 292 582 741 582 742 582 86 223 535 223 536 223 293 224 742 224 743 224 87 583 536 583 537 583 294 226 743 226 744 226 88 227 537 227 538 227 295 584 744 584 745 584 89 585 538 585 539 585 296 230 745 230 746 230 90 231 539 231 540 231 297 232 746 232 747 232 91 586 540 586 541 586 298 234 747 234 748 234 92 587 541 587 542 587 299 236 748 236 749 236 93 588 542 588 543 588 300 238 749 238 750 238 94 589 543 589 544 589 301 240 750 240 751 240 95 590 544 590 545 590 302 591 751 591 752 591 96 243 545 243 546 243 303 244 752 244 753 244 97 245 546 245 547 245 304 246 753 246 754 246 98 247 547 247 548 247 305 248 754 248 755 248 99 592 548 592 549 592 306 250 755 250 756 250 100 593 549 593 550 593 307 594 756 594 757 594 101 595 550 595 551 595 308 596 757 596 758 596 102 597 551 597 552 597 309 598 758 598 759 598 103 257 552 257 553 257 310 599 759 599 760 599 104 259 553 259 554 259 311 600 760 600 761 600 105 601 554 601 555 601 312 602 761 602 762 602 106 603 555 603 556 603 313 604 762 604 763 604 107 605 556 605 557 605 314 606 763 606 764 606 108 607 557 607 558 607 315 608 764 608 765 608 109 269 558 269 559 269 316 270 765 270 766 270 110 271 559 271 560 271 317 609 766 609 767 609 111 610 560 610 561 610 318 611 767 611 768 611 112 275 561 275 562 275 319 612 768 612 769 612 113 613 562 613 563 613 320 278 769 278 770 278 114 279 563 279 564 279 321 614 770 614 771 614 115 615 564 615 565 615 322 616 771 616 772 616 116 617 565 617 566 617 323 618 772 618 773 618 117 619 566 619 567 619 324 286 773 286 774 286 118 620 567 620 568 620 325 288 774 288 775 288 119 621 568 621 569 621 326 622 775 622 776 622 120 291 569 291 570 291 327 292 776 292 777 292 121 623 570 623 571 623 328 624 777 624 778 624 122 295 571 295 572 295 329 296 778 296 779 296 123 297 572 297 573 297 330 298 779 298 780 298 124 625 573 625 574 625 331 626 780 626 781 626 125 301 574 301 575 301 332 627 781 627 782 627 126 628 575 628 576 628 333 629 782 629 783 629 127 630 576 630 577 630 334 631 783 631 784 631 128 632 577 632 578 632 335 633 784 633 785 633 129 634 578 634 579 634 336 310 785 310 786 310 130 635 579 635 580 635 337 312 786 312 787 312 131 636 580 636 581 636 338 314 787 314 788 314 132 637 581 637 582 637 339 638 788 638 789 638 133 639 582 639 583 639 340 640 789 640 790 640 134 641 583 641 584 641 341 642 790 642 791 642 135 643 584 643 585 643 342 644 791 644 792 644 136 323 585 323 586 323 343 645 792 645 793 645 137 325 586 325 587 325 344 646 793 646 794 646 138 647 587 647 588 647 345 648 794 648 795 648 139 649 588 649 589 649 346 650 795 650 796 650 140 651 589 651 590 651 347 652 796 652 797 652 141 333 590 333 591 333 348 334 797 334 798 334 142 653 591 653 592 653 349 336 798 336 799 336 143 654 592 654 593 654 350 655 799 655 800 655 144 656 593 656 594 656 351 657 800 657 801 657 145 658 594 658 595 658 352 659 801 659 802 659 146 660 595 660 596 660 353 661 802 661 803 661 147 345 596 345 597 345 354 346 803 346 804 346 148 662 597 662 598 662 355 663 804 663 805 663 149 349 598 349 599 349 356 350 805 350 806 350 150 664 599 664 600 664 357 665 806 665 807 665 151 666 600 666 601 666 358 354 807 354 808 354 152 667 601 667 602 667 359 668 808 668 809 668 153 357 602 357 603 357 360 669 809 669 810 669 154 670 603 670 604 670 361 671 810 671 811 671 155 361 604 361 605 361 362 672 811 672 812 672 156 673 605 673 606 673 363 674 812 674 813 674 157 675 606 675 607 675 364 366 813 366 814 366 158 676 607 676 608 676 365 677 814 677 815 677 159 369 608 369 609 369 366 370 815 370 816 370 160 678 609 678 610 678 367 679 816 679 817 679 161 373 610 373 611 373 368 680 817 680 818 680 162 681 611 681 612 681 369 682 818 682 819 682 163 683 612 683 613 683 370 684 819 684 820 684 164 379 613 379 614 379 371 685 820 685 821 685 165 686 614 686 615 686 372 382 821 382 822 382 166 687 615 687 616 687 373 688 822 688 823 688 167 689 616 689 617 689 374 386 823 386 824 386 168 690 617 690 618 690 375 691 824 691 825 691 169 389 618 389 619 389 376 390 825 390 826 390 170 391 619 391 620 391 377 692 826 692 827 692 171 393 620 393 621 393 378 394 827 394 828 394 172 693 621 693 622 693 379 694 828 694 829 694 173 695 622 695 623 695 380 696 829 696 830 696 174 399 623 399 624 399 381 697 830 698 831 699 175 700 624 700 625 700 382 701 831 702 832 703 176 704 625 704 626 704 383 705 832 705 833 705 177 706 626 706 627 706 384 707 833 707 834 707 178 407 627 407 628 407 385 708 834 708 835 708 179 709 628 709 629 709 386 410 835 410 836 410 180 411 629 411 630 411 387 710 836 710 837 710 181 711 630 711 631 711 388 712 837 712 838 712 182 713 631 713 632 713 389 714 838 714 839 714 183 715 632 715 633 715 390 418 839 418 840 418 184 716 633 716 634 716 391 717 840 717 841 717 185 718 634 718 635 718 392 719 841 719 842 719 186 720 635 720 636 720 393 424 842 424 843 424 187 721 636 721 637 721 394 722 843 722 844 722 188 723 637 723 638 723 395 724 844 724 845 724 189 429 638 429 639 429 396 725 845 725 846 725 190 431 639 431 640 431 397 726 846 726 847 726 191 727 640 727 641 727 398 434 847 434 848 434 192 435 641 435 642 435 399 728 848 728 849 728 193 729 642 729 643 729 400 438 849 438 850 438 194 730 643 730 644 730 401 440 850 440 851 440 195 441 644 441 645 441 402 731 851 731 852 731 196 443 645 443 646 443 403 444 852 444 853 444 197 732 646 732 647 732 404 733 853 733 854 733 198 734 647 734 648 734</p>
        </triangles>
      </mesh>
    </geometry>
  </library_geometries>
  <library_visual_scenes>
    <visual_scene id="Scene" name="Scene">
      <node id="BézierCurve" name="BézierCurve" type="NODE">
        <matrix sid="transform">0.002385213 0 -0.9999971 2.45235 0 1 0 0 0.9999971 0 0.002385213 0 0 0 0 1</matrix>
        <instance_geometry url="#Mesh-mesh" name="BézierCurve"/>
      </node>
    </visual_scene>
  </library_visual_scenes>
  <scene>
    <instance_visual_scene url="#Scene"/>
  </scene>
</COLLADA>